<?xml version="1.0" standalone="no"?>
<!DOCTYPE svg PUBLIC "-//W3C//DTD SVG 20010904//EN"
 "http://www.w3.org/TR/2001/REC-SVG-20010904/DTD/svg10.dtd">
<svg version="1.0" xmlns="http://www.w3.org/2000/svg"
 width="720.000000pt" height="256.000000pt" viewBox="0 0 720.000000 256.000000"
 preserveAspectRatio="xMidYMid meet">

<g transform="translate(0.000000,256.000000) scale(0.100000,-0.100000)"
fill="#000000" stroke="none">
<path d="M1651 2141 c-1 -33 0 -34 14 -15 15 19 15 19 30 0 14 -19 15 -18 14
15 0 19 -3 28 -6 22 -2 -7 -13 -13 -23 -13 -10 0 -21 6 -23 13 -3 6 -6 -3 -6
-22z"/>
<path d="M1955 2161 c-3 -6 4 -15 15 -21 25 -13 26 -27 3 -33 -17 -4 -17 -5 0
-6 25 -1 34 29 12 41 -14 8 -15 12 -4 19 11 7 11 9 -3 9 -9 0 -19 -4 -23 -9z"/>
<path d="M2757 2164 c-12 -12 -8 -41 8 -54 20 -17 47 5 43 34 -3 21 -37 34
-51 20z m41 -26 c-2 -13 -10 -23 -18 -23 -8 0 -16 10 -18 23 -3 17 2 22 18 22
16 0 21 -5 18 -22z"/>
<path d="M2882 2159 c-17 -6 -22 -15 -20 -31 2 -12 8 -23 13 -25 19 -6 37 14
33 39 -3 22 -6 24 -26 17z m13 -39 c-5 -8 -11 -8 -17 -2 -6 6 -7 16 -3 22 5 8
11 8 17 2 6 -6 7 -16 3 -22z"/>
<path d="M3046 2145 c3 -16 8 -32 11 -35 7 -7 33 31 33 49 -1 10 -6 7 -15 -9
l-14 -25 -11 25 c-10 24 -10 24 -4 -5z"/>
<path d="M3290 2156 c0 -8 9 -18 20 -21 11 -4 18 -11 14 -16 -3 -6 -13 -8 -23
-4 -11 4 -13 3 -5 -5 11 -11 44 -4 44 11 0 4 -9 13 -20 19 -11 6 -18 15 -15
21 4 5 1 9 -4 9 -6 0 -11 -6 -11 -14z"/>
<path d="M4395 2149 c-9 -26 15 -52 38 -43 17 6 25 64 9 64 -4 0 -8 -12 -7
-27 0 -14 -5 -28 -11 -30 -17 -6 -26 27 -13 43 8 9 8 14 1 14 -6 0 -14 -10
-17 -21z"/>
<path d="M4542 2140 c0 -19 2 -27 5 -17 2 9 2 25 0 35 -3 9 -5 1 -5 -18z"/>
<path d="M5542 2138 c3 -36 16 -44 42 -25 26 19 13 57 -20 57 -22 0 -25 -4
-22 -32z m43 12 c7 -12 -12 -40 -26 -40 -5 0 -9 11 -9 25 0 25 23 35 35 15z"/>
<path d="M5670 2141 c0 -17 2 -31 4 -31 8 0 13 51 5 56 -5 3 -9 -9 -9 -25z"/>
<path d="M5760 2141 c0 -30 26 -49 43 -32 15 15 4 43 -20 52 -21 7 -23 5 -23
-20z m35 -21 c-5 -8 -11 -8 -17 -2 -6 6 -7 16 -3 22 5 8 11 8 17 2 6 -6 7 -16
3 -22z"/>
<path d="M6140 2141 c0 -33 24 -48 47 -30 17 15 13 51 -7 57 -12 4 -13 3 -2
-10 14 -17 5 -51 -12 -45 -6 2 -11 16 -11 30 1 15 -3 27 -7 27 -4 0 -8 -13 -8
-29z"/>
<path d="M6282 2140 c0 -19 2 -27 5 -17 2 9 2 25 0 35 -3 9 -5 1 -5 -18z"/>
<path d="M6432 2138 c2 -17 8 -33 14 -35 7 -2 9 8 6 27 -3 23 -1 30 13 30 13
0 16 -6 13 -25 -4 -19 -2 -23 7 -15 9 8 14 6 19 -5 3 -8 11 -15 18 -14 10 0
10 2 1 6 -15 5 -18 43 -4 43 5 0 12 -6 14 -12 4 -10 6 -10 6 -1 1 18 -18 26
-33 14 -10 -9 -15 -8 -20 4 -3 8 -17 15 -31 15 -23 0 -26 -3 -23 -32z"/>
<path d="M6560 2142 c0 -17 3 -33 8 -35 9 -6 8 50 -1 60 -4 3 -7 -8 -7 -25z"/>
<path d="M6682 2140 c0 -19 2 -27 5 -17 2 9 2 25 0 35 -3 9 -5 1 -5 -18z"/>
<path d="M6785 2145 c7 -33 12 -41 20 -33 3 3 -2 18 -11 34 l-16 29 7 -30z"/>
<path d="M6810 2154 c0 -8 5 -12 10 -9 6 3 10 10 10 16 0 5 -4 9 -10 9 -5 0
-10 -7 -10 -16z"/>
<path d="M6850 2157 c0 -9 -4 -17 -10 -17 -5 0 -10 -7 -10 -15 0 -8 4 -15 9
-15 10 0 25 50 16 58 -3 3 -5 -2 -5 -11z"/>
<path d="M6973 2159 c-25 -9 -31 -44 -10 -52 22 -8 39 8 35 35 -3 22 -6 24
-25 17z m12 -39 c-5 -8 -11 -8 -17 -2 -6 6 -7 16 -3 22 5 8 11 8 17 2 6 -6 7
-16 3 -22z"/>
<path d="M1730 2145 c-10 -12 -10 -18 0 -29 16 -20 42 -8 38 17 -4 26 -21 32
-38 12z m25 -25 c-5 -8 -11 -8 -17 -2 -6 6 -7 16 -3 22 5 8 11 8 17 2 6 -6 7
-16 3 -22z"/>
<path d="M1793 2153 c-7 -2 -13 -14 -12 -26 0 -22 0 -22 9 1 5 12 12 22 15 22
3 0 10 -10 15 -22 l10 -23 -3 24 c-2 25 -13 33 -34 24z"/>
<path d="M1848 2133 c5 -21 7 -23 10 -9 2 10 0 22 -6 28 -6 6 -7 0 -4 -19z"/>
<path d="M1874 2146 c-8 -21 2 -46 18 -45 10 0 10 2 1 6 -7 2 -13 13 -13 24 0
20 15 26 23 9 3 -6 4 -5 3 2 -4 19 -25 21 -32 4z"/>
<path d="M2020 2145 c-10 -12 -10 -18 0 -30 7 -8 17 -15 23 -15 6 0 2 7 -9 15
-19 15 -19 15 0 30 11 8 15 15 9 15 -6 0 -16 -7 -23 -15z"/>
<path d="M2110 2145 c-10 -12 -10 -18 0 -30 7 -8 18 -15 24 -14 7 0 6 2 -1 6
-7 2 -13 13 -13 24 0 20 15 26 23 9 3 -6 4 -5 3 2 -4 18 -22 20 -36 3z"/>
<path d="M2164 2146 c-8 -21 2 -46 18 -45 10 0 10 2 1 6 -7 2 -13 13 -13 24 0
20 15 26 23 9 3 -6 4 -5 3 2 -4 19 -25 21 -32 4z"/>
<path d="M2248 2133 c5 -21 7 -23 10 -9 2 10 0 22 -6 28 -6 6 -7 0 -4 -19z"/>
<path d="M2832 2151 c-8 -5 -12 -16 -10 -25 2 -12 6 -10 15 9 6 14 10 25 10
25 -1 0 -8 -4 -15 -9z"/>
<path d="M2933 2153 c-18 -7 -16 -40 3 -47 24 -9 31 -7 12 5 -10 5 -15 16 -11
24 4 13 8 12 23 -5 17 -19 17 -19 28 6 11 22 10 24 -7 15 -10 -6 -22 -6 -27
-2 -5 5 -15 6 -21 4z"/>
<path d="M3143 2153 c-18 -7 -16 -40 3 -47 24 -9 31 -7 12 5 -10 5 -15 16 -11
25 5 12 7 13 14 3 4 -8 11 -11 14 -8 8 9 -18 27 -32 22z"/>
<path d="M3354 2145 c-8 -20 2 -45 18 -44 10 0 10 2 1 6 -7 2 -13 13 -13 23 0
10 6 21 13 23 9 4 9 6 -1 6 -7 1 -15 -6 -18 -14z"/>
<path d="M3412 2151 c-8 -5 -12 -16 -10 -25 2 -12 6 -10 15 9 6 14 10 25 10
25 -1 0 -8 -4 -15 -9z"/>
<path d="M3447 2153 c-4 -3 -7 -16 -7 -27 0 -17 2 -18 9 -6 6 8 7 18 5 22 -10
16 8 7 34 -17 15 -14 31 -25 37 -25 5 0 2 5 -8 11 -14 8 -15 14 -5 32 10 20
10 21 -6 8 -13 -11 -20 -11 -28 -3 -14 14 -22 15 -31 5z"/>
<path d="M3563 2153 c-7 -2 -13 -14 -12 -26 0 -22 0 -22 9 1 5 12 12 22 15 22
3 0 10 -10 15 -22 l10 -23 -3 24 c-2 25 -13 33 -34 24z"/>
<path d="M4570 2145 c-10 -12 -10 -18 0 -30 7 -8 18 -15 24 -14 7 0 6 2 -1 6
-16 6 -17 43 -2 43 5 0 7 -4 4 -10 -3 -5 -1 -10 5 -10 14 0 8 22 -7 27 -5 2
-16 -3 -23 -12z"/>
<path d="M5630 2153 c7 -3 4 -10 -7 -18 -14 -11 -16 -16 -5 -26 9 -9 15 -10
23 -2 14 14 8 46 -9 49 -7 1 -8 0 -2 -3z m10 -33 c0 -5 -4 -10 -10 -10 -5 0
-10 5 -10 10 0 6 5 10 10 10 6 0 10 -4 10 -10z"/>
<path d="M5720 2153 c7 -3 4 -10 -7 -18 -14 -11 -16 -16 -5 -26 9 -9 15 -10
23 -2 14 14 8 46 -9 49 -7 1 -8 0 -2 -3z m10 -33 c0 -5 -4 -10 -10 -10 -5 0
-10 5 -10 10 0 6 5 10 10 10 6 0 10 -4 10 -10z"/>
<path d="M5840 2153 c7 -3 4 -10 -7 -18 -14 -11 -16 -16 -5 -26 9 -9 15 -10
23 -2 14 14 8 46 -9 49 -7 1 -8 0 -2 -3z m10 -33 c0 -5 -4 -10 -10 -10 -5 0
-10 5 -10 10 0 6 5 10 10 10 6 0 10 -4 10 -10z"/>
<path d="M5874 2149 c-4 -7 1 -16 11 -21 14 -8 15 -12 4 -19 -9 -6 -10 -9 -2
-9 21 0 26 22 8 32 -14 8 -15 12 -4 19 9 6 10 9 2 9 -6 0 -15 -5 -19 -11z"/>
<path d="M5934 2146 c-8 -21 2 -46 18 -45 10 0 10 2 1 6 -7 2 -13 13 -13 24 0
20 15 26 23 9 3 -6 4 -5 3 2 -4 19 -25 21 -32 4z"/>
<path d="M6222 2151 c-8 -5 -12 -16 -10 -25 2 -12 6 -10 15 9 6 14 10 25 10
25 -1 0 -8 -4 -15 -9z"/>
<path d="M6257 2153 c-9 -9 -9 -41 1 -46 4 -3 7 8 7 24 0 16 0 29 -1 29 0 0
-4 -3 -7 -7z"/>
<path d="M6314 2146 c-8 -21 2 -46 18 -45 10 0 10 2 1 6 -7 2 -13 13 -13 24 0
20 15 26 23 9 3 -6 4 -5 3 2 -4 19 -25 21 -32 4z"/>
<path d="M6620 2153 c7 -3 5 -10 -6 -17 -20 -15 -11 -38 12 -29 18 7 15 45 -4
49 -7 1 -8 0 -2 -3z m10 -27 c0 -3 -4 -8 -10 -11 -5 -3 -10 -1 -10 4 0 6 5 11
10 11 6 0 10 -2 10 -4z"/>
<path d="M6704 2149 c-4 -7 1 -16 11 -21 14 -8 15 -12 4 -19 -9 -6 -10 -9 -2
-9 21 0 26 22 8 32 -14 8 -15 12 -4 19 9 6 10 9 2 9 -6 0 -15 -5 -19 -11z"/>
<path d="M6903 2153 c-7 -2 -13 -14 -12 -26 0 -22 0 -22 9 1 5 12 14 22 19 22
5 0 12 -10 14 -22 5 -21 5 -21 4 1 -2 25 -13 33 -34 24z"/>
<path d="M7017 2153 c-12 -12 -7 -41 7 -46 22 -9 41 19 26 38 -14 16 -23 19
-33 8z m28 -33 c-5 -8 -11 -8 -17 -2 -6 6 -7 16 -3 22 5 8 11 8 17 2 6 -6 7
-16 3 -22z"/>
<path d="M2072 2130 c0 -14 2 -19 5 -12 2 6 2 18 0 25 -3 6 -5 1 -5 -13z"/>
<path d="M2222 2130 c0 -14 2 -19 5 -12 2 6 2 18 0 25 -3 6 -5 1 -5 -13z"/>
<path d="M3112 2130 c0 -14 2 -19 5 -12 2 6 2 18 0 25 -3 6 -5 1 -5 -13z"/>
<path d="M3191 2145 c0 -5 3 -16 8 -23 6 -10 10 -10 21 3 7 8 10 19 6 22 -4 4
-11 1 -15 -6 -7 -11 -10 -11 -14 0 -3 8 -6 10 -6 4z"/>
<path d="M3237 2136 c-4 -10 -5 -21 -2 -24 9 -9 17 6 13 25 -3 17 -4 17 -11
-1z"/>
<path d="M3525 2140 c-3 -5 -1 -10 4 -10 6 0 11 5 11 10 0 6 -2 10 -4 10 -3 0
-8 -4 -11 -10z"/>
<path d="M4472 2130 c0 -14 2 -19 5 -12 2 6 2 18 0 25 -3 6 -5 1 -5 -13z"/>
<path d="M4622 2130 c0 -14 2 -19 5 -12 2 6 2 18 0 25 -3 6 -5 1 -5 -13z"/>
<path d="M6372 2130 c0 -14 2 -19 5 -12 2 6 2 18 0 25 -3 6 -5 1 -5 -13z"/>
<path d="M6652 2130 c0 -14 2 -19 5 -12 2 6 2 18 0 25 -3 6 -5 1 -5 -13z"/>
<path d="M6872 2130 c0 -14 2 -19 5 -12 2 6 2 18 0 25 -3 6 -5 1 -5 -13z"/>
<path d="M7071 2145 c0 -5 3 -16 8 -23 6 -10 10 -10 21 3 7 8 10 19 6 22 -4 4
-11 1 -15 -6 -7 -11 -10 -11 -14 0 -3 8 -6 10 -6 4z"/>
<path d="M7117 2136 c-4 -10 -5 -21 -2 -24 9 -9 17 6 13 25 -3 17 -4 17 -11
-1z"/>
<path d="M79 2096 c-5 -38 -26 -45 -32 -11 -4 24 -4 24 -3 -2 1 -37 33 -44 42
-9 3 14 4 31 1 38 -2 7 -6 0 -8 -16z"/>
<path d="M311 2088 c1 -18 3 -25 6 -15 4 15 7 16 19 6 13 -11 14 -9 3 14 -17
37 -29 34 -28 -5z"/>
<path d="M356 2104 c-3 -9 -2 -23 4 -32 7 -14 9 -10 10 16 0 35 -5 41 -14 16z"/>
<path d="M750 2086 c0 -22 5 -36 13 -36 42 1 51 62 10 68 -20 3 -23 -1 -23
-32z m38 2 c-5 -32 -28 -35 -28 -4 0 17 5 26 16 26 10 0 14 -7 12 -22z"/>
<path d="M872 2090 c0 -19 2 -27 5 -17 2 9 2 25 0 35 -3 9 -5 1 -5 -18z"/>
<path d="M1150 2088 c0 -18 4 -28 8 -22 4 6 15 14 25 17 24 9 17 31 -11 35
-19 3 -22 -1 -22 -30z m40 12 c0 -5 -7 -10 -15 -10 -8 0 -15 5 -15 10 0 6 7
10 15 10 8 0 15 -4 15 -10z"/>
<path d="M721 2094 c0 -11 3 -14 6 -6 3 7 2 16 -1 19 -3 4 -6 -2 -5 -13z"/>
<path d="M154 2085 c-8 -19 4 -35 24 -34 14 1 14 2 -1 6 -13 3 -17 11 -14 24
6 22 -1 26 -9 4z"/>
<path d="M271 2084 c0 -11 3 -14 6 -6 3 7 2 16 -1 19 -3 4 -6 -2 -5 -13z"/>
<path d="M417 2093 c-3 -5 -1 -17 4 -28 7 -17 8 -17 8 8 1 27 -4 34 -12 20z"/>
<path d="M440 2080 c0 -11 2 -20 4 -20 2 0 6 9 9 20 3 11 1 20 -4 20 -5 0 -9
-9 -9 -20z"/>
<path d="M477 2079 c4 -13 8 -18 11 -10 2 7 -1 18 -6 23 -8 8 -9 4 -5 -13z"/>
<path d="M527 2094 c-3 -3 -3 -12 0 -20 6 -16 -13 -19 -20 -4 -3 6 -4 5 -3 -2
1 -7 10 -14 19 -16 12 -3 17 4 17 22 0 27 -2 30 -13 20z"/>
<path d="M560 2080 c0 -11 7 -23 16 -27 13 -5 13 -8 2 -15 -10 -8 -10 -9 2 -5
9 2 16 17 17 38 0 19 -1 24 -4 12 -2 -13 -9 -23 -15 -23 -6 0 -8 9 -5 20 3 11
1 20 -4 20 -5 0 -9 -9 -9 -20z"/>
<path d="M622 2078 c2 -14 11 -24 23 -25 17 -2 17 -1 2 3 -13 4 -17 12 -14 25
3 10 1 19 -5 19 -5 0 -8 -10 -6 -22z"/>
<path d="M670 2080 c0 -11 2 -20 4 -20 2 0 6 9 9 20 3 11 1 20 -4 20 -5 0 -9
-9 -9 -20z"/>
<path d="M823 2081 c1 -14 9 -26 17 -28 10 -3 11 -2 4 4 -7 4 -14 17 -17 28
-5 16 -5 15 -4 -4z"/>
<path d="M902 2080 c0 -14 2 -19 5 -12 2 6 2 18 0 25 -3 6 -5 1 -5 -13z"/>
<path d="M976 2092 c-9 -14 10 -42 28 -42 8 0 8 2 0 8 -7 4 -13 16 -16 27 -2
15 -6 17 -12 7z"/>
<path d="M1214 2085 c-8 -19 4 -35 24 -34 14 1 14 2 -1 6 -13 3 -17 11 -14 24
6 22 -1 26 -9 4z"/>
<path d="M1240 2090 c0 -5 5 -10 11 -10 5 0 7 5 4 10 -3 6 -8 10 -11 10 -2 0
-4 -4 -4 -10z"/>
<path d="M1270 2080 c0 -11 2 -20 4 -20 2 0 6 9 9 20 3 11 1 20 -4 20 -5 0 -9
-9 -9 -20z"/>
<path d="M1300 2091 c0 -5 8 -12 17 -15 15 -6 15 -8 3 -17 -13 -9 -13 -10 -1
-7 23 6 23 22 1 36 -11 7 -20 8 -20 3z"/>
<path d="M1388 2078 c4 -18 2 -20 -14 -14 -14 5 -16 4 -7 -5 6 -6 16 -8 22 -5
13 9 15 46 2 46 -5 0 -7 -10 -3 -22z"/>
<path d="M1410 2080 c0 -11 2 -20 4 -20 2 0 6 9 9 20 3 11 1 20 -4 20 -5 0 -9
-9 -9 -20z"/>
<path d="M1442 2080 c0 -14 2 -19 5 -12 2 6 2 18 0 25 -3 6 -5 1 -5 -13z"/>
<path d="M1482 2080 c0 -14 2 -19 5 -12 2 6 2 18 0 25 -3 6 -5 1 -5 -13z"/>
<path d="M950 2081 c0 -7 -4 -9 -10 -6 -5 3 -10 2 -10 -4 0 -5 4 -12 9 -15 10
-6 25 24 16 32 -3 3 -5 0 -5 -7z"/>
<path d="M1100 2081 c0 -7 -4 -9 -10 -6 -6 4 -7 -1 -3 -11 6 -15 7 -15 15 1 6
9 7 19 4 22 -3 4 -6 1 -6 -6z"/>
<path d="M124 2072 c3 -6 -2 -13 -11 -15 -16 -4 -16 -5 -1 -6 21 -1 32 15 17
25 -7 4 -9 3 -5 -4z"/>
<path d="M390 2071 c0 -6 4 -13 10 -16 6 -3 7 1 4 9 -7 18 -14 21 -14 7z"/>
<path d="M943 1895 c0 -22 2 -30 4 -17 2 12 2 30 0 40 -3 9 -5 -1 -4 -23z"/>
<path d="M1065 1910 c-3 -5 1 -10 10 -10 9 0 13 5 10 10 -3 6 -8 10 -10 10 -2
0 -7 -4 -10 -10z"/>
<path d="M1172 1888 c10 -29 12 -30 25 -13 7 11 13 26 12 34 0 9 -5 5 -11 -9
l-10 -25 -9 23 c-13 34 -19 26 -7 -10z"/>
<path d="M1438 1893 c4 -23 2 -25 -18 -20 -16 4 -20 3 -12 -5 6 -6 18 -8 26
-5 17 7 22 42 7 51 -4 3 -6 -6 -3 -21z"/>
<path d="M1515 1906 c-21 -15 -14 -46 10 -46 10 0 15 10 15 30 0 34 0 34 -25
16z m15 -21 c0 -8 -4 -15 -10 -15 -5 0 -10 7 -10 15 0 8 5 15 10 15 6 0 10 -7
10 -15z"/>
<path d="M894 1896 c-7 -18 3 -36 19 -36 7 0 6 4 -3 10 -13 8 -12 10 3 10 10
0 17 5 15 12 -7 19 -27 21 -34 4z"/>
<path d="M972 1889 c2 -12 10 -24 18 -26 13 -4 13 -3 0 6 -13 9 -12 11 3 11
23 0 17 24 -7 28 -13 3 -17 -2 -14 -19z"/>
<path d="M1024 1895 c-7 -17 3 -35 19 -34 9 0 9 2 0 6 -7 2 -13 11 -13 18 0 7
6 16 13 18 9 4 9 6 -1 6 -7 1 -15 -6 -18 -14z"/>
<path d="M1244 1895 c-8 -19 3 -35 24 -34 14 0 13 2 -3 9 l-20 9 20 1 20 1
-20 8 -20 8 20 5 c17 5 17 6 2 7 -10 0 -20 -6 -23 -14z"/>
<path d="M1320 1903 c0 -15 19 -37 26 -31 3 4 -1 14 -10 23 -9 9 -16 13 -16 8z"/>
<path d="M1461 1883 c1 -22 2 -23 6 -8 3 11 10 23 17 27 7 5 5 8 -6 8 -13 0
-18 -7 -17 -27z"/>
<path d="M1554 1895 c-8 -19 3 -35 24 -34 14 0 13 2 -3 9 l-20 9 20 1 20 1
-20 8 -20 8 20 5 c17 5 17 6 2 7 -10 0 -20 -6 -23 -14z"/>
<path d="M1610 1899 c0 -5 5 -7 10 -4 6 3 10 8 10 11 0 2 -4 4 -10 4 -5 0 -10
-5 -10 -11z"/>
<path d="M1640 1901 c0 -6 5 -13 11 -17 8 -4 7 -9 -2 -15 -11 -7 -10 -9 4 -9
9 0 17 7 17 15 0 8 -6 15 -12 15 -9 0 -8 4 2 10 13 8 12 10 -2 10 -10 0 -18
-4 -18 -9z"/>
<path d="M853 1894 c21 -7 22 -21 2 -27 -11 -4 -10 -4 2 -3 25 2 23 30 -2 33
-16 1 -16 1 -2 -3z"/>
<path d="M1300 1881 c0 -5 5 -13 10 -16 6 -3 10 -2 10 4 0 5 -4 13 -10 16 -5
3 -10 2 -10 -4z"/>
<path d="M1070 1870 c0 -5 5 -10 11 -10 5 0 7 5 4 10 -3 6 -8 10 -11 10 -2 0
-4 -4 -4 -10z"/>
<path d="M1855 1840 c4 -6 -181 -11 -537 -13 l-543 -2 543 -3 c359 -1 541 -5
537 -12 -9 -14 5 -12 35 5 l25 13 -28 11 c-35 14 -40 14 -32 1z"/>
<path d="M1920 1730 l0 -100 574 0 c403 0 575 -3 578 -11 2 -7 12 -7 31 2 l28
13 -23 13 c-28 15 -41 16 -33 3 4 -7 -188 -10 -569 -10 l-576 0 0 89 0 90 33
4 c31 4 31 4 -5 5 l-38 2 0 -100z"/>
<path d="M2346 1720 c-20 -21 -15 -50 9 -50 11 0 15 10 15 35 0 40 1 40 -24
15z m14 -25 c0 -8 -4 -15 -10 -15 -5 0 -10 7 -10 15 0 8 5 15 10 15 6 0 10 -7
10 -15z"/>
<path d="M2223 1714 c-3 -8 1 -23 10 -31 8 -9 23 -13 31 -10 17 7 22 42 7 51
-4 3 -6 -6 -3 -20 4 -21 1 -25 -14 -22 -12 2 -19 12 -18 26 1 26 -4 28 -13 6z"/>
<path d="M2670 1720 c0 -6 7 -13 15 -16 20 -8 19 -21 -2 -27 -14 -4 -12 -5 5
-6 27 -1 29 19 2 42 -11 9 -20 12 -20 7z"/>
<path d="M2972 1700 c0 -19 2 -27 5 -17 2 9 2 25 0 35 -3 9 -5 1 -5 -18z"/>
<path d="M2014 1705 c-3 -8 -3 -19 1 -25 8 -13 35 -13 35 0 0 5 -7 7 -15 4
-10 -4 -15 0 -15 11 0 11 5 15 15 11 8 -3 15 -1 15 4 0 16 -30 12 -36 -5z"/>
<path d="M2070 1711 c0 -6 7 -8 15 -5 10 4 15 0 15 -11 0 -11 -5 -15 -15 -11
-8 3 -15 1 -15 -5 0 -6 8 -9 18 -7 9 2 17 12 17 23 0 11 -8 21 -17 23 -10 2
-18 -1 -18 -7z"/>
<path d="M2124 1706 c-8 -20 3 -36 24 -35 14 0 13 2 -3 9 -18 8 -18 9 -2 9 10
1 17 6 15 13 -7 19 -27 21 -34 4z"/>
<path d="M2171 1693 c2 -24 2 -25 6 -5 2 12 8 22 13 22 5 0 11 -10 13 -22 4
-20 4 -19 6 5 1 21 -4 27 -19 27 -15 0 -20 -6 -19 -27z"/>
<path d="M2290 1695 c0 -14 2 -25 4 -25 2 0 6 11 8 25 3 14 1 25 -3 25 -5 0
-9 -11 -9 -25z"/>
<path d="M2384 1706 c-8 -20 3 -36 24 -35 14 0 13 2 -3 9 -18 8 -18 9 -2 9 10
1 17 6 15 13 -7 19 -27 21 -34 4z"/>
<path d="M2440 1709 c0 -5 5 -7 10 -4 6 3 10 8 10 11 0 2 -4 4 -10 4 -5 0 -10
-5 -10 -11z"/>
<path d="M2492 1700 c-14 -23 -15 -30 -3 -30 8 0 24 41 18 47 -2 1 -8 -7 -15
-17z"/>
<path d="M2554 1706 c-8 -20 3 -36 24 -35 14 0 13 2 -3 9 -18 8 -18 9 -2 9 10
1 17 6 15 13 -7 19 -27 21 -34 4z"/>
<path d="M2637 1702 c1 -8 3 -18 3 -23 0 -6 5 -7 10 -4 6 3 10 13 10 21 0 8
-4 13 -9 10 -5 -4 -11 -3 -14 1 -2 5 -2 2 0 -5z"/>
<path d="M2734 1705 c-7 -17 3 -35 19 -34 9 0 9 2 0 6 -7 2 -13 11 -13 18 0 7
6 16 13 18 9 4 9 6 -1 6 -7 1 -15 -6 -18 -14z"/>
<path d="M2780 1709 c0 -5 5 -7 10 -4 6 3 10 8 10 11 0 2 -4 4 -10 4 -5 0 -10
-5 -10 -11z"/>
<path d="M2814 1706 c-8 -20 3 -36 24 -35 14 0 13 2 -3 9 -18 8 -18 9 -2 9 10
1 17 6 15 13 -7 19 -27 21 -34 4z"/>
<path d="M2864 1706 c-8 -20 3 -36 24 -35 14 0 13 2 -3 9 -18 8 -18 9 -2 9 10
1 17 6 15 13 -7 19 -27 21 -34 4z"/>
<path d="M2920 1710 c0 -5 7 -7 15 -4 8 4 15 8 15 10 0 2 -7 4 -15 4 -8 0 -15
-4 -15 -10z"/>
<path d="M3012 1700 c0 -14 2 -19 5 -12 2 6 2 18 0 25 -3 6 -5 1 -5 -13z"/>
<path d="M2610 1684 c0 -8 5 -12 10 -9 6 4 8 11 5 16 -9 14 -15 11 -15 -7z"/>
<path d="M3168 1633 l32 -4 0 -184 0 -184 -32 -4 c-18 -2 256 -5 610 -5 426
-1 641 -5 637 -12 -8 -13 8 -13 40 2 l26 12 -32 13 c-38 16 -42 16 -34 3 4 -7
-198 -10 -599 -10 l-606 0 0 190 0 190 -37 -2 c-37 -1 -37 -1 -5 -5z"/>
<path d="M845 1530 c-3 -6 1 -7 9 -4 18 7 21 14 7 14 -6 0 -13 -4 -16 -10z"/>
<path d="M1115 1529 c-4 -6 2 -19 14 -30 12 -11 21 -15 21 -10 0 6 -8 15 -17
20 -16 9 -16 12 -3 21 9 6 10 10 3 10 -6 0 -15 -5 -18 -11z"/>
<path d="M1830 1531 c0 -5 -8 -12 -17 -14 -16 -4 -16 -5 0 -6 10 0 17 -7 14
-13 -2 -7 -10 -12 -16 -10 -7 1 -10 -2 -6 -7 11 -19 35 1 35 30 0 16 -2 29 -5
29 -3 0 -5 -4 -5 -9z"/>
<path d="M991 1509 c-1 -15 4 -26 12 -26 7 0 13 8 13 18 0 10 -3 16 -7 13 -4
-2 -10 2 -12 8 -3 7 -6 1 -6 -13z"/>
<path d="M1160 1506 c0 -31 6 -34 13 -6 3 11 1 23 -4 26 -5 3 -9 -6 -9 -20z"/>
<path d="M1240 1520 c0 -5 5 -10 11 -10 5 0 7 5 4 10 -3 6 -8 10 -11 10 -2 0
-4 -4 -4 -10z"/>
<path d="M943 1505 c-3 -9 -3 -19 1 -22 3 -4 6 1 6 10 0 8 6 18 13 20 9 4 9 6
-1 6 -7 1 -15 -6 -19 -14z"/>
<path d="M1206 1513 c6 -4 14 -15 17 -23 5 -11 6 -9 4 4 -1 11 -9 21 -17 23
-10 3 -11 2 -4 -4z"/>
<path d="M1312 1500 c0 -14 2 -19 5 -12 2 6 2 18 0 25 -3 6 -5 1 -5 -13z"/>
<path d="M1330 1511 c0 -6 5 -13 11 -17 8 -4 7 -9 -2 -15 -10 -6 -10 -9 -2 -9
18 0 27 21 13 30 -10 6 -9 9 1 13 10 4 9 6 -3 6 -10 1 -18 -3 -18 -8z"/>
<path d="M1443 1505 c-3 -9 -3 -19 1 -22 3 -4 6 1 6 10 0 10 5 17 11 17 6 0 9
-9 6 -20 -3 -11 -1 -18 4 -14 5 3 9 14 9 25 0 23 -28 26 -37 4z"/>
<path d="M1491 1498 c1 -16 3 -18 6 -6 2 9 12 19 21 21 12 3 10 5 -5 6 -18 1
-23 -4 -22 -21z"/>
<path d="M1596 1513 c6 -4 14 -15 17 -23 5 -11 6 -9 4 4 -1 11 -9 21 -17 23
-10 3 -11 2 -4 -4z"/>
<path d="M1631 1498 c1 -17 2 -19 6 -5 2 9 8 17 13 17 5 0 11 -8 13 -17 4 -14
5 -12 6 5 1 16 -5 22 -19 22 -14 0 -20 -6 -19 -22z"/>
<path d="M1713 1505 c-3 -9 -3 -19 1 -22 3 -4 6 1 6 10 0 10 5 17 11 17 6 0 9
-9 6 -20 -3 -11 -1 -18 4 -14 5 3 9 14 9 25 0 23 -28 26 -37 4z"/>
<path d="M1761 1498 c0 -16 2 -18 6 -8 3 8 11 18 17 22 7 5 4 8 -6 8 -12 0
-18 -7 -17 -22z"/>
<path d="M1860 1516 c0 -2 9 -6 20 -9 11 -3 18 -1 14 4 -5 9 -34 13 -34 5z"/>
<path d="M1910 1500 c0 -11 2 -20 4 -20 2 0 6 9 9 20 3 11 1 20 -4 20 -5 0 -9
-9 -9 -20z"/>
<path d="M1190 1491 c0 -6 4 -13 10 -16 6 -3 7 1 4 9 -7 18 -14 21 -14 7z"/>
<path d="M1580 1491 c0 -6 4 -13 10 -16 6 -3 7 1 4 9 -7 18 -14 21 -14 7z"/>
<path d="M1860 1485 c7 -8 17 -15 22 -15 5 0 3 7 -6 15 -8 8 -18 15 -22 15 -3
0 -1 -7 6 -15z"/>
<path d="M3070 1460 c0 -6 -394 -11 -1147 -13 l-1148 -2 1153 -3 c766 -1 1151
-5 1147 -12 -8 -13 5 -12 33 3 l23 13 -26 12 c-32 15 -35 15 -35 2z"/>
<path d="M3610 1340 c0 -5 -7 -10 -15 -10 -16 0 -21 -35 -6 -44 5 -4 7 3 4 14
-3 11 -1 20 5 20 6 0 13 -8 15 -17 3 -10 5 -3 6 15 0 17 -1 32 -4 32 -3 0 -5
-4 -5 -10z"/>
<path d="M4284 1336 c-10 -25 1 -51 20 -51 24 0 45 30 30 45 -8 8 -10 4 -10
-12 1 -14 -6 -24 -18 -26 -16 -3 -18 1 -14 27 5 33 1 41 -8 17z"/>
<path d="M3431 1319 c-1 -15 4 -26 12 -26 7 0 13 8 13 18 0 10 -3 16 -7 13 -4
-2 -10 2 -12 8 -3 7 -6 1 -6 -13z"/>
<path d="M3482 1315 c0 -16 2 -22 5 -12 2 9 2 23 0 30 -3 6 -5 -1 -5 -18z"/>
<path d="M3724 1329 c1 -7 12 -16 25 -20 14 -6 20 -5 16 1 -3 6 -12 10 -20 10
-7 0 -16 5 -18 10 -3 6 -4 5 -3 -1z"/>
<path d="M3775 1330 c-3 -5 -1 -10 4 -10 6 0 11 5 11 10 0 6 -2 10 -4 10 -3 0
-8 -4 -11 -10z"/>
<path d="M3860 1317 c0 -14 4 -28 8 -31 9 -5 8 41 -1 51 -4 3 -7 -5 -7 -20z"/>
<path d="M4125 1326 c-21 -15 -14 -46 10 -46 10 0 15 10 15 30 0 34 0 34 -25
16z m15 -21 c0 -8 -4 -15 -10 -15 -5 0 -10 7 -10 15 0 8 5 15 10 15 6 0 10 -7
10 -15z"/>
<path d="M4262 1315 c0 -16 2 -22 5 -12 2 9 2 23 0 30 -3 6 -5 -1 -5 -18z"/>
<path d="M3225 1319 c-11 -16 -1 -19 13 -3 7 8 8 14 3 14 -5 0 -13 -5 -16 -11z"/>
<path d="M3280 1321 c0 -6 6 -8 14 -5 8 3 16 -2 20 -13 4 -15 5 -15 3 2 -2 20
-37 35 -37 16z"/>
<path d="M3334 1315 c-8 -19 3 -35 24 -34 14 0 14 2 -2 8 -18 7 -18 8 -2 14 9
4 14 11 11 17 -9 15 -25 12 -31 -5z"/>
<path d="M3384 1315 c-7 -17 3 -35 19 -34 9 0 9 2 0 6 -7 2 -13 11 -13 18 0 7
6 16 13 18 9 4 9 6 -1 6 -7 1 -15 -6 -18 -14z"/>
<path d="M3550 1319 c0 -5 5 -7 10 -4 6 3 10 8 10 11 0 2 -4 4 -10 4 -5 0 -10
-5 -10 -11z"/>
<path d="M3634 1315 c-8 -19 3 -35 24 -34 14 0 13 2 -3 9 -17 7 -17 9 -2 9 21
1 23 31 2 31 -9 0 -18 -7 -21 -15z"/>
<path d="M3683 1315 c-3 -9 -3 -19 1 -22 3 -4 6 1 6 10 0 8 6 18 13 20 9 4 9
6 -1 6 -7 1 -15 -6 -19 -14z"/>
<path d="M3826 1323 c6 -4 14 -15 17 -23 5 -11 6 -9 4 4 -1 11 -9 21 -17 23
-10 3 -11 2 -4 -4z"/>
<path d="M3950 1321 c0 -6 5 -13 11 -17 8 -4 7 -9 -2 -15 -10 -6 -10 -9 -2 -9
17 0 29 23 15 28 -7 2 -10 8 -6 13 3 5 0 9 -5 9 -6 0 -11 -4 -11 -9z"/>
<path d="M4040 1323 c8 -3 19 -11 23 -17 6 -7 7 -6 4 4 -2 8 -12 16 -23 17
-13 2 -15 1 -4 -4z"/>
<path d="M4080 1310 c0 -11 2 -20 4 -20 2 0 6 9 9 20 3 11 1 20 -4 20 -5 0 -9
-9 -9 -20z"/>
<path d="M4174 1315 c-8 -19 3 -35 24 -34 14 0 14 2 -2 8 -18 7 -18 8 -3 14 9
3 17 11 17 17 0 15 -30 12 -36 -5z"/>
<path d="M4225 1320 c-3 -6 1 -7 9 -4 18 7 21 14 7 14 -6 0 -13 -4 -16 -10z"/>
<path d="M4358 1307 c-3 -19 -2 -25 4 -19 6 6 8 18 6 28 -3 14 -5 12 -10 -9z"/>
<path d="M3810 1301 c0 -6 4 -13 10 -16 6 -3 7 1 4 9 -7 18 -14 21 -14 7z"/>
<path d="M3510 1290 c-9 -6 -10 -10 -3 -10 6 0 15 5 18 10 8 12 4 12 -15 0z"/>
<path d="M3910 1290 c-9 -6 -10 -10 -3 -10 6 0 15 5 18 10 8 12 4 12 -15 0z"/>
<path d="M4037 1289 c7 -7 15 -10 18 -7 3 3 -2 9 -12 12 -14 6 -15 5 -6 -5z"/>
<path d="M3238 1283 c7 -3 16 -2 19 1 4 3 -2 6 -13 5 -11 0 -14 -3 -6 -6z"/>
<path d="M3738 1283 c7 -3 16 -2 19 1 4 3 -2 6 -13 5 -11 0 -14 -3 -6 -6z"/>
<path d="M4518 1253 l32 -4 0 -284 0 -284 -32 -4 c-18 -2 436 -5 1010 -5 693
-1 1041 -5 1037 -12 -9 -14 5 -12 35 5 l25 13 -28 11 c-35 14 -40 14 -32 1 4
-7 -332 -10 -999 -10 l-1006 0 0 91 c0 99 -2 96 55 73 18 -7 18 -6 7 9 -8 9
-11 21 -7 27 8 12 3 13 -29 0 l-26 -10 0 95 0 95 566 0 c411 0 563 -3 558 -11
-4 -8 1 -9 17 -4 39 12 42 22 10 33 -19 7 -31 7 -31 1 0 -5 -214 -9 -560 -9
l-560 0 0 95 0 95 -37 -2 c-37 -1 -37 -1 -5 -5z"/>
<path d="M4880 1150 c0 -5 -7 -10 -15 -10 -8 0 -15 -4 -15 -10 0 -5 7 -7 15
-4 10 4 15 0 15 -11 0 -11 -5 -15 -16 -11 -8 3 -12 2 -9 -4 15 -24 35 -9 35
25 0 19 -2 35 -5 35 -3 0 -5 -4 -5 -10z"/>
<path d="M4710 1127 c0 -14 4 -28 8 -31 9 -5 8 41 -1 51 -4 3 -7 -5 -7 -20z"/>
<path d="M4743 1134 c-3 -8 1 -23 10 -31 13 -13 19 -14 31 -3 17 14 21 36 8
44 -5 3 -8 -5 -8 -17 1 -13 -5 -22 -14 -22 -9 0 -15 9 -14 23 1 26 -4 28 -13
6z"/>
<path d="M4991 1143 c-1 -7 7 -17 17 -22 15 -9 15 -12 2 -21 -13 -8 -13 -10 3
-10 10 0 17 8 17 20 0 11 -6 20 -14 20 -8 0 -17 6 -19 13 -4 9 -6 9 -6 0z"/>
<path d="M5130 1127 c0 -14 4 -28 8 -31 9 -5 8 41 -1 51 -4 3 -7 -5 -7 -20z"/>
<path d="M5395 1136 c-21 -15 -14 -46 10 -46 10 0 15 10 15 30 0 34 0 34 -25
16z m15 -21 c0 -8 -4 -15 -10 -15 -5 0 -10 7 -10 15 0 8 5 15 10 15 6 0 10 -7
10 -15z"/>
<path d="M5532 1125 c0 -16 2 -22 5 -12 2 9 2 23 0 30 -3 6 -5 -1 -5 -18z"/>
<path d="M5551 1123 c-1 -27 3 -33 18 -33 11 0 22 4 25 9 4 5 -3 7 -13 4 -15
-4 -20 1 -24 24 -4 27 -4 27 -6 -4z"/>
<path d="M4605 1129 c-4 -6 -4 -13 -1 -16 3 -4 6 -1 6 5 0 6 8 13 18 15 15 4
15 5 0 6 -9 0 -20 -4 -23 -10z"/>
<path d="M4662 1118 c2 -12 9 -23 16 -24 7 -1 8 0 2 3 -17 8 -12 36 6 29 8 -3
12 -2 9 4 -12 19 -36 11 -33 -12z"/>
<path d="M4820 1129 c0 -5 5 -7 10 -4 6 3 10 8 10 11 0 2 -4 4 -10 4 -5 0 -10
-5 -10 -11z"/>
<path d="M4904 1125 c-8 -19 3 -35 24 -34 14 0 15 2 2 7 -21 10 -25 36 -5 28
9 -3 13 -2 10 4 -9 15 -25 12 -31 -5z"/>
<path d="M4951 1118 c0 -16 2 -18 6 -8 3 8 11 18 17 22 7 5 4 8 -6 8 -12 0
-18 -7 -17 -22z"/>
<path d="M5105 1123 c7 -24 -9 -33 -18 -10 -3 7 -6 5 -6 -5 -1 -22 27 -24 36
-2 3 8 0 21 -7 27 -10 9 -11 7 -5 -10z"/>
<path d="M5161 1124 c0 -11 3 -14 6 -6 3 7 2 16 -1 19 -3 4 -6 -2 -5 -13z"/>
<path d="M5310 1133 c8 -3 19 -11 23 -17 6 -7 7 -6 4 4 -2 8 -12 16 -23 17
-13 2 -15 1 -4 -4z"/>
<path d="M5350 1120 c0 -11 2 -20 4 -20 2 0 6 9 9 20 3 11 1 20 -4 20 -5 0 -9
-9 -9 -20z"/>
<path d="M5444 1126 c-8 -20 3 -36 24 -35 14 0 15 2 2 7 -17 8 -25 32 -11 32
5 0 12 -5 14 -10 3 -6 4 -5 3 2 -4 18 -25 22 -32 4z"/>
<path d="M5490 1120 c0 -11 2 -20 4 -20 2 0 6 9 9 20 3 11 1 20 -4 20 -5 0 -9
-9 -9 -20z"/>
<path d="M5632 1120 c0 -14 2 -19 5 -12 2 6 2 18 0 25 -3 6 -5 1 -5 -13z"/>
<path d="M5234 1111 c4 -5 1 -12 -4 -14 -6 -3 -5 -4 2 -3 15 3 23 26 8 26 -6
0 -9 -4 -6 -9z"/>
<path d="M4625 1101 c-3 -5 -2 -12 3 -15 5 -3 9 1 9 9 0 17 -3 19 -12 6z"/>
<path d="M5050 1100 c0 -5 5 -10 11 -10 5 0 7 5 4 10 -3 6 -8 10 -11 10 -2 0
-4 -4 -4 -10z"/>
<path d="M5180 1100 c-13 -8 -12 -10 3 -10 9 0 17 5 17 10 0 12 -1 12 -20 0z"/>
<path d="M5308 1093 c7 -3 16 -2 19 1 4 3 -2 6 -13 5 -11 0 -14 -3 -6 -6z"/>
<path d="M5360 960 c0 -5 -7 -10 -16 -10 -22 0 -14 -44 9 -48 14 -3 17 4 17
32 0 20 -2 36 -5 36 -3 0 -5 -4 -5 -10z m0 -35 c0 -8 -4 -15 -10 -15 -5 0 -10
7 -10 15 0 8 5 15 10 15 6 0 10 -7 10 -15z"/>
<path d="M4933 950 c2 -8 12 -16 23 -17 13 -2 15 -1 4 4 -8 3 -19 11 -23 17
-6 7 -7 6 -4 -4z"/>
<path d="M4990 941 c0 -25 6 -27 13 -6 4 8 2 17 -3 20 -6 4 -10 -3 -10 -14z"/>
<path d="M5080 937 c0 -14 4 -28 8 -31 9 -5 8 41 -1 51 -4 3 -7 -5 -7 -20z"/>
<path d="M5472 935 c0 -16 2 -22 5 -12 2 9 2 23 0 30 -3 6 -5 -1 -5 -18z"/>
<path d="M5492 933 c2 -20 9 -28 22 -28 24 0 45 30 30 45 -8 8 -10 4 -10 -12
1 -14 -6 -24 -18 -26 -15 -3 -18 1 -14 22 3 14 1 26 -4 26 -5 0 -8 -12 -6 -27z"/>
<path d="M4670 930 c0 -11 2 -20 4 -20 2 0 6 9 9 20 3 11 1 20 -4 20 -5 0 -9
-9 -9 -20z"/>
<path d="M4704 935 c-8 -19 4 -35 24 -34 15 1 15 2 0 6 -10 2 -18 11 -18 18 0
7 8 16 18 18 16 4 16 5 -1 6 -10 0 -20 -6 -23 -14z"/>
<path d="M4794 925 c1 -11 9 -21 19 -23 13 -3 17 3 16 25 -1 23 -2 24 -6 6 -5
-27 -20 -30 -26 -5 -3 13 -4 12 -3 -3z"/>
<path d="M4850 930 c0 -11 2 -20 4 -20 2 0 6 9 9 20 3 11 1 20 -4 20 -5 0 -9
-9 -9 -20z"/>
<path d="M4881 928 c1 -17 2 -19 6 -5 2 9 8 17 13 17 5 0 11 -8 13 -17 4 -14
5 -12 6 5 1 16 -5 22 -19 22 -14 0 -20 -6 -19 -22z"/>
<path d="M5038 943 c15 -6 16 -29 2 -36 -6 -3 -5 -4 2 -3 7 1 14 12 16 24 3
16 -2 22 -15 21 -10 0 -13 -3 -5 -6z"/>
<path d="M5114 925 c1 -11 9 -21 19 -23 13 -3 17 3 16 25 -1 23 -2 24 -6 6 -5
-27 -20 -30 -26 -5 -3 13 -4 12 -3 -3z"/>
<path d="M5165 940 c-3 -6 1 -13 10 -16 13 -6 14 -8 3 -15 -9 -6 -9 -9 -1 -9
20 0 26 20 8 26 -13 6 -14 8 -3 15 9 6 9 9 1 9 -6 0 -15 -5 -18 -10z"/>
<path d="M5212 930 c0 -14 2 -19 5 -12 2 6 2 18 0 25 -3 6 -5 1 -5 -13z"/>
<path d="M5243 934 c-8 -22 13 -42 30 -25 10 10 9 11 -5 6 -13 -5 -18 -2 -18
10 0 11 5 15 15 11 8 -3 15 -1 15 4 0 16 -30 11 -37 -6z"/>
<path d="M5300 939 c0 -5 5 -7 10 -4 6 3 10 8 10 11 0 2 -4 4 -10 4 -5 0 -10
-5 -10 -11z"/>
<path d="M5384 935 c-8 -19 4 -35 24 -34 15 1 15 2 0 6 -10 2 -18 11 -18 20 0
10 6 13 16 9 8 -3 12 -2 9 4 -9 15 -25 12 -31 -5z"/>
<path d="M5433 935 c-3 -9 -3 -19 1 -22 3 -4 6 1 6 10 0 8 6 18 13 20 9 4 9 6
-1 6 -7 1 -15 -6 -19 -14z"/>
<path d="M5571 924 c0 -11 3 -14 6 -6 3 7 2 16 -1 19 -3 4 -6 -2 -5 -13z"/>
<path d="M4760 910 c0 -5 5 -10 11 -10 5 0 7 5 4 10 -3 6 -8 10 -11 10 -2 0
-4 -4 -4 -10z"/>
<path d="M4948 903 c7 -3 16 -2 19 1 4 3 -2 6 -13 5 -11 0 -14 -3 -6 -6z"/>
<path d="M4828 770 c6 -8 12 -23 12 -33 0 -15 -5 -18 -21 -14 -16 4 -19 3 -11
-5 15 -15 42 -2 42 20 0 11 -8 26 -17 33 -15 11 -16 11 -5 -1z"/>
<path d="M4621 743 c1 -17 3 -21 6 -10 6 24 21 21 26 -5 l4 -23 2 22 c0 13 -7
27 -19 33 -18 10 -20 8 -19 -17z"/>
<path d="M5040 760 c0 -6 7 -13 15 -16 20 -8 19 -21 -2 -27 -16 -4 -16 -5 -1
-6 27 -2 32 19 9 40 -12 11 -21 15 -21 9z"/>
<path d="M5090 747 c0 -14 4 -28 8 -31 9 -5 8 41 -1 51 -4 3 -7 -5 -7 -20z"/>
<path d="M5177 763 c-4 -8 9 -53 16 -53 5 0 1 50 -5 56 -3 3 -8 2 -11 -3z"/>
<path d="M5572 745 c0 -16 2 -22 5 -12 2 9 2 23 0 30 -3 6 -5 -1 -5 -18z"/>
<path d="M5601 743 c-1 -25 3 -33 17 -33 11 0 13 3 6 8 -7 4 -14 18 -17 32 -4
21 -4 20 -6 -7z"/>
<path d="M5638 743 c5 -21 7 -23 10 -9 2 10 0 22 -6 28 -6 6 -7 0 -4 -19z"/>
<path d="M4570 750 c0 -6 8 -14 17 -17 15 -6 15 -7 -3 -14 -16 -6 -16 -8 -2
-8 23 -1 33 18 13 25 -13 6 -14 8 -3 15 10 7 9 9 -4 9 -10 0 -18 -5 -18 -10z"/>
<path d="M4673 744 c-8 -21 13 -42 28 -27 13 13 5 43 -11 43 -6 0 -13 -7 -17
-16z m27 -9 c0 -8 -4 -15 -10 -15 -5 0 -10 7 -10 15 0 8 5 15 10 15 6 0 10 -7
10 -15z"/>
<path d="M4727 742 c1 -8 3 -19 3 -25 0 -12 29 23 30 37 0 5 -6 3 -14 -3 -8
-7 -16 -8 -18 -4 -3 4 -3 2 -1 -5z"/>
<path d="M4861 732 c2 -24 2 -25 6 -4 5 24 23 31 23 8 0 -21 20 -30 33 -17 9
9 8 11 -5 6 -13 -5 -18 -2 -18 10 0 11 5 15 15 11 8 -3 15 -1 15 3 0 5 -16 9
-35 9 -32 0 -35 -3 -34 -26z"/>
<path d="M4952 738 c2 -12 9 -23 16 -24 7 -1 8 0 2 3 -17 8 -12 36 6 29 8 -3
12 -2 9 4 -12 19 -36 11 -33 -12z"/>
<path d="M5001 738 c0 -16 2 -18 6 -8 3 8 11 18 17 22 7 5 4 8 -6 8 -12 0 -18
-7 -17 -22z"/>
<path d="M5138 753 c15 -6 16 -33 1 -33 -5 0 -7 5 -3 12 4 7 3 8 -5 4 -14 -9
-5 -26 15 -26 8 0 14 10 14 25 0 17 -5 25 -17 24 -11 0 -13 -3 -5 -6z"/>
<path d="M5214 735 c1 -11 9 -21 19 -23 13 -3 17 3 16 25 -1 23 -2 24 -6 6 -5
-27 -20 -30 -26 -5 -3 13 -4 12 -3 -3z"/>
<path d="M5260 750 c0 -6 8 -14 17 -17 15 -6 15 -7 -3 -14 -16 -6 -16 -8 -2
-8 23 -1 33 18 13 25 -13 6 -14 8 -3 15 10 7 9 9 -4 9 -10 0 -18 -5 -18 -10z"/>
<path d="M5312 740 c0 -14 2 -19 5 -12 2 6 2 18 0 25 -3 6 -5 1 -5 -13z"/>
<path d="M5343 744 c-8 -21 13 -42 28 -27 13 13 5 43 -11 43 -6 0 -13 -7 -17
-16z m27 -9 c0 -8 -4 -15 -10 -15 -5 0 -10 7 -10 15 0 8 5 15 10 15 6 0 10 -7
10 -15z"/>
<path d="M5393 745 c-3 -9 -3 -19 1 -22 3 -4 6 1 6 10 0 8 6 18 13 20 9 4 9 6
-1 6 -7 1 -15 -6 -19 -14z"/>
<path d="M5434 745 c-3 -8 -3 -19 1 -25 8 -13 35 -13 35 0 0 5 -7 7 -15 4 -10
-4 -15 0 -15 11 0 11 5 15 15 11 8 -3 15 -1 15 4 0 16 -30 12 -36 -5z"/>
<path d="M5503 753 c9 -2 14 -9 11 -15 -4 -7 -2 -8 5 -4 15 10 4 26 -17 25
-15 -1 -15 -2 1 -6z"/>
<path d="M5540 740 c0 -11 2 -20 4 -20 2 0 6 9 9 20 3 11 1 20 -4 20 -5 0 -9
-9 -9 -20z"/>
<path d="M4766 735 c-9 -26 -7 -32 5 -12 6 10 9 21 6 23 -2 3 -7 -2 -11 -11z"/>
<path d="M900 570 c0 -5 10 -14 23 -20 20 -10 20 -10 5 3 -10 8 -15 17 -11 20
3 4 1 7 -5 7 -7 0 -12 -4 -12 -10z"/>
<path d="M1520 557 c0 -14 4 -28 8 -31 9 -5 8 41 -1 51 -4 3 -7 -5 -7 -20z"/>
<path d="M1632 555 c0 -16 2 -22 5 -12 2 9 2 23 0 30 -3 6 -5 -1 -5 -18z"/>
<path d="M960 560 c0 -5 7 -7 15 -4 8 4 15 8 15 10 0 2 -7 4 -15 4 -8 0 -15
-4 -15 -10z"/>
<path d="M1010 560 c0 -5 7 -7 15 -4 10 4 15 0 15 -11 0 -12 -5 -15 -17 -10
-15 5 -16 4 -5 -6 16 -17 37 3 29 25 -7 17 -37 22 -37 6z"/>
<path d="M1061 560 c0 -8 4 -22 9 -30 12 -18 12 -2 0 25 -6 13 -9 15 -9 5z"/>
<path d="M1081 565 c0 -5 6 -19 14 -29 8 -11 15 -15 15 -10 0 6 -7 19 -15 30
-8 10 -14 15 -14 9z"/>
<path d="M1165 560 c-3 -6 1 -7 9 -4 11 4 16 0 16 -11 0 -12 -5 -15 -17 -10
-15 5 -16 4 -5 -6 16 -17 37 3 29 25 -7 18 -23 21 -32 6z"/>
<path d="M1211 547 c1 -17 2 -18 6 -4 6 23 19 22 26 -3 5 -20 37 -29 37 -10 0
5 -7 7 -15 4 -10 -4 -15 0 -15 11 0 11 5 15 15 11 8 -3 15 -1 15 3 0 5 -16 9
-35 9 -30 0 -35 -3 -34 -21z"/>
<path d="M1302 549 c2 -12 10 -24 18 -26 13 -4 13 -3 0 6 -13 9 -12 11 3 11
23 0 17 24 -7 28 -13 3 -17 -2 -14 -19z"/>
<path d="M1351 543 c1 -22 2 -23 6 -8 3 11 10 23 17 27 7 5 5 8 -6 8 -13 0
-18 -7 -17 -27z"/>
<path d="M1428 563 c7 -3 16 -2 19 1 4 3 -2 6 -13 5 -11 0 -14 -3 -6 -6z"/>
<path d="M1472 549 c2 -12 10 -24 18 -26 13 -4 13 -3 0 6 -13 9 -12 11 3 11
23 0 17 24 -7 28 -13 3 -17 -2 -14 -19z"/>
<path d="M1570 563 c13 -6 13 -33 -1 -33 -5 0 -7 5 -3 12 4 7 3 8 -5 4 -14 -9
-5 -26 15 -26 19 0 15 42 -4 46 -7 1 -8 0 -2 -3z"/>
<path d="M1660 561 c0 -6 5 -13 11 -17 8 -4 7 -9 -2 -15 -11 -7 -10 -9 4 -9 9
0 17 7 17 15 0 8 -6 15 -12 15 -9 0 -8 4 2 10 13 8 12 10 -2 10 -10 0 -18 -4
-18 -9z"/>
<path d="M918 523 c7 -3 16 -2 19 1 4 3 -2 6 -13 5 -11 0 -14 -3 -6 -6z"/>
<path d="M806 498 l-29 -11 33 -13 c39 -17 43 -17 35 -4 -4 7 966 11 2892 13
l2898 2 -2898 3 c-1929 1 -2896 5 -2892 12 8 12 -1 12 -39 -2z"/>
<path d="M840 379 c0 -5 5 -7 10 -4 6 3 10 8 10 11 0 2 -4 4 -10 4 -5 0 -10
-5 -10 -11z"/>
<path d="M992 360 c0 -19 2 -29 5 -22 4 10 8 10 21 0 16 -12 16 -11 1 7 -9 11
-19 27 -22 35 -3 8 -5 -1 -5 -20z"/>
<path d="M1110 379 c0 -5 5 -7 10 -4 6 3 10 8 10 11 0 2 -4 4 -10 4 -5 0 -10
-5 -10 -11z"/>
<path d="M944 365 c-7 -17 3 -35 19 -34 9 0 9 2 0 6 -7 2 -13 11 -13 18 0 7 6
16 13 18 9 4 9 6 -1 6 -7 1 -15 -6 -18 -14z"/>
<path d="M1193 364 c-8 -21 13 -42 28 -27 13 13 5 43 -11 43 -6 0 -13 -7 -17
-16z m27 -9 c0 -8 -4 -15 -10 -15 -5 0 -10 7 -10 15 0 8 5 15 10 15 6 0 10 -7
10 -15z"/>
<path d="M1240 365 c0 -8 6 -15 13 -15 8 0 7 -4 -3 -10 -13 -8 -12 -10 3 -10
19 0 23 15 6 26 -8 4 -7 9 2 15 11 7 10 9 -3 9 -10 0 -18 -7 -18 -15z"/>
<path d="M1284 365 c-8 -19 3 -35 24 -34 14 0 13 2 -3 9 l-20 9 20 1 20 1 -20
8 -20 8 20 5 c17 5 17 6 2 7 -10 0 -20 -6 -23 -14z"/>
<path d="M848 338 c5 -5 16 -8 23 -6 8 3 3 7 -10 11 -17 4 -21 3 -13 -5z"/>
<path d="M1118 338 c5 -5 16 -8 23 -6 8 3 3 7 -10 11 -17 4 -21 3 -13 -5z"/>
<path d="M6565 310 c4 -7 -966 -11 -2892 -13 l-2898 -2 2898 -3 c1929 -1 2896
-5 2892 -12 -8 -13 5 -12 33 3 l23 13 -26 12 c-32 15 -38 15 -30 2z"/>
<path d="M3380 167 c0 -14 4 -28 8 -31 9 -5 8 41 -1 51 -4 3 -7 -5 -7 -20z"/>
<path d="M3602 160 c0 -19 2 -27 5 -17 2 9 2 25 0 35 -3 9 -5 1 -5 -18z"/>
<path d="M3290 160 c0 -11 2 -20 4 -20 2 0 6 9 9 20 3 11 1 20 -4 20 -5 0 -9
-9 -9 -20z"/>
<path d="M3334 165 c-7 -17 3 -35 19 -35 8 0 8 3 2 8 -17 12 -17 35 0 28 9 -3
13 -2 10 4 -9 15 -25 12 -31 -5z"/>
<path d="M3470 165 c0 -8 2 -15 4 -15 2 0 6 7 10 15 3 8 1 15 -4 15 -6 0 -10
-7 -10 -15z"/>
<path d="M3501 158 c1 -17 2 -19 6 -5 2 9 8 17 13 17 5 0 11 -8 13 -17 4 -14
5 -12 6 5 1 16 -5 22 -19 22 -14 0 -20 -6 -19 -22z"/>
<path d="M3562 160 c0 -14 2 -19 5 -12 2 6 2 18 0 25 -3 6 -5 1 -5 -13z"/>
<path d="M3202 117 l-23 -13 26 -12 c32 -15 38 -15 30 -2 -4 7 565 11 1697 12
l1703 3 -1697 2 c-1121 2 -1698 6 -1698 13 0 13 -10 12 -38 -3z"/>
</g>
</svg>
