<?xml version="1.0" standalone="no"?>
<!DOCTYPE svg PUBLIC "-//W3C//DTD SVG 20010904//EN"
 "http://www.w3.org/TR/2001/REC-SVG-20010904/DTD/svg10.dtd">
<svg version="1.0" xmlns="http://www.w3.org/2000/svg"
 width="720.000000pt" height="694.000000pt" viewBox="0 0 720.000000 694.000000"
 preserveAspectRatio="xMidYMid meet">

<g transform="translate(0.000000,694.000000) scale(0.100000,-0.100000)"
fill="#000000" stroke="none">
<path d="M1557 6563 c-13 -12 -7 -33 8 -33 21 0 19 -18 -2 -23 -14 -4 -12 -5
5 -6 25 -1 31 26 6 36 -8 3 -13 12 -10 19 6 15 3 18 -7 7z"/>
<path d="M2278 6559 c19 -20 15 -51 -5 -47 -12 3 -17 12 -16 28 3 23 2 23 -8
6 -14 -22 11 -52 35 -43 22 9 20 53 -1 62 -15 5 -16 4 -5 -6z"/>
<path d="M5764 6545 l-8 -30 -7 25 c-6 20 -7 21 -8 5 0 -11 3 -26 8 -34 7 -11
10 -8 16 9 l7 23 13 -24 13 -24 7 28 c4 15 5 31 1 34 -3 4 -6 -2 -6 -13 -1
-16 -3 -15 -15 6 l-13 25 -8 -30z"/>
<path d="M6241 6561 c-16 -10 -6 -31 15 -31 20 0 18 -18 -3 -23 -16 -4 -16 -5
-1 -6 26 -2 33 20 12 36 -16 12 -17 15 -4 23 8 5 11 10 5 10 -5 0 -16 -4 -24
-9z"/>
<path d="M1262 6530 c0 -19 2 -27 5 -17 2 9 11 17 18 17 7 0 16 -8 18 -17 3
-10 5 -2 5 17 0 19 -2 29 -5 23 -2 -7 -11 -13 -18 -13 -7 0 -16 6 -18 13 -3 6
-5 -4 -5 -23z"/>
<path d="M2041 6543 c-9 -16 -12 -16 -22 -3 -9 13 -10 12 -5 -3 3 -10 6 -23 6
-28 0 -20 16 -7 27 21 13 33 10 39 -6 13z"/>
<path d="M2365 6550 c-17 -7 -17 -9 -2 -9 9 -1 17 -7 17 -15 0 -8 -8 -17 -17
-19 -14 -4 -12 -5 5 -6 18 -1 22 4 22 29 0 17 -1 30 -2 29 -2 0 -12 -4 -23 -9z"/>
<path d="M3037 6546 c-3 -8 0 -22 7 -32 19 -25 46 -11 45 23 l-2 28 -4 -27
c-7 -45 -40 -35 -34 10 2 16 -6 15 -12 -2z"/>
<path d="M3156 6547 c-21 -16 -16 -47 8 -47 17 0 25 19 17 43 -6 15 -9 16 -25
4z m16 -22 c0 -5 -5 -11 -11 -13 -6 -2 -11 4 -11 13 0 9 5 15 11 13 6 -2 11
-8 11 -13z"/>
<path d="M4571 6534 c-1 -32 -1 -32 49 -31 39 1 50 4 49 16 0 11 -2 12 -6 4
-2 -7 -9 -13 -14 -13 -6 0 -7 5 -3 12 4 7 3 8 -4 4 -7 -4 -12 -1 -12 8 0 8 -4
17 -8 20 -5 3 -8 -5 -8 -17 1 -34 -32 -34 -37 0 -4 28 -4 28 -6 -3z"/>
<path d="M4692 6534 c2 -15 10 -29 18 -31 12 -4 13 -3 1 5 -8 6 -11 17 -8 26
3 8 1 18 -4 22 -7 4 -9 -4 -7 -22z"/>
<path d="M4780 6529 c0 -22 5 -29 20 -29 11 0 20 4 20 10 0 5 -7 7 -15 4 -10
-4 -15 0 -15 11 0 11 5 15 15 11 8 -3 15 -2 15 3 0 5 -9 11 -20 14 -17 4 -20
0 -20 -24z"/>
<path d="M5540 6532 c0 -18 4 -32 8 -32 9 0 8 47 -1 57 -4 3 -7 -8 -7 -25z"/>
<path d="M5915 6546 c-11 -8 -16 -19 -12 -30 10 -27 34 -18 39 14 5 33 0 36
-27 16z m15 -21 c0 -8 -4 -15 -10 -15 -5 0 -10 7 -10 15 0 8 5 15 10 15 6 0
10 -7 10 -15z"/>
<path d="M6620 6528 c0 -36 4 -35 14 5 4 16 2 27 -4 27 -5 0 -10 -14 -10 -32z"/>
<path d="M6666 6533 c10 -40 14 -41 14 -5 0 18 -5 32 -10 32 -6 0 -8 -11 -4
-27z"/>
<path d="M1334 6535 c-7 -18 3 -35 22 -35 8 0 14 10 14 25 0 27 -27 35 -36 10z
m26 -10 c0 -8 -4 -15 -10 -15 -5 0 -10 7 -10 15 0 8 5 15 10 15 6 0 10 -7 10
-15z"/>
<path d="M1381 6523 c2 -24 2 -25 6 -5 2 12 8 22 13 22 5 0 11 -10 13 -22 l4
-23 2 23 c0 12 5 22 10 22 5 0 12 -10 14 -22 4 -20 4 -19 6 5 1 25 -2 27 -34
27 -32 0 -35 -2 -34 -27z"/>
<path d="M1472 6528 c2 -14 11 -24 23 -25 l20 -3 -20 9 c-18 9 -18 10 -2 10
23 1 17 25 -7 29 -13 3 -17 -2 -14 -20z"/>
<path d="M1608 6538 c-8 -20 2 -38 20 -38 13 0 13 2 -3 14 -18 13 -18 13 1 24
16 10 16 11 3 12 -9 0 -19 -6 -21 -12z"/>
<path d="M1660 6525 c0 -14 2 -25 4 -25 2 0 6 11 8 25 3 14 1 25 -3 25 -5 0
-9 -11 -9 -25z"/>
<path d="M1690 6526 c0 -20 5 -26 23 -25 21 0 21 1 2 9 -18 8 -18 9 -2 9 23 1
17 25 -6 29 -12 3 -17 -4 -17 -22z"/>
<path d="M1744 6536 c-8 -20 3 -36 24 -35 14 0 13 2 -3 9 -19 8 -19 9 3 9 14
1 22 6 20 14 -7 18 -37 21 -44 3z m33 -2 c-3 -3 -12 -4 -19 -1 -8 3 -5 6 6 6
11 1 17 -2 13 -5z"/>
<path d="M1801 6523 c2 -24 2 -25 6 -5 2 12 8 22 13 22 5 0 11 -10 13 -22 4
-20 4 -19 6 5 1 21 -4 27 -19 27 -15 0 -20 -6 -19 -27z"/>
<path d="M2094 6536 c-8 -20 3 -36 24 -35 15 1 15 2 0 6 -19 5 -25 33 -7 33 5
0 7 -4 4 -10 -3 -5 -1 -10 5 -10 15 0 8 22 -8 28 -7 2 -15 -3 -18 -12z"/>
<path d="M2163 6534 c-15 -15 -17 -34 -4 -34 8 0 24 41 18 46 -1 1 -8 -4 -14
-12z"/>
<path d="M2192 6538 c-14 -14 -16 -38 -3 -38 5 0 11 11 13 25 6 29 6 29 -10
13z"/>
<path d="M2314 6539 c-3 -6 -1 -15 5 -20 6 -5 9 -6 6 -3 -3 4 0 13 6 21 8 9 8
13 1 13 -6 0 -14 -5 -18 -11z"/>
<path d="M2404 6535 c-8 -19 3 -35 24 -34 14 0 14 2 -2 8 -19 7 -19 8 3 14 13
3 20 10 16 16 -9 16 -35 13 -41 -4z"/>
<path d="M2460 6525 c0 -14 2 -25 4 -25 2 0 6 11 8 25 3 14 1 25 -3 25 -5 0
-9 -11 -9 -25z"/>
<path d="M2495 6540 c-3 -6 1 -13 10 -16 13 -6 14 -8 3 -15 -10 -7 -9 -9 5 -9
9 0 17 7 17 15 0 8 -8 15 -17 16 -15 0 -15 2 2 9 16 7 17 9 3 9 -9 1 -20 -4
-23 -9z"/>
<path d="M3106 6533 c-4 -9 -1 -21 5 -27 9 -8 10 -7 6 5 -3 9 0 22 6 28 8 8 8
11 0 11 -6 0 -14 -8 -17 -17z"/>
<path d="M3204 6536 c-8 -20 3 -36 24 -35 15 1 15 2 0 6 -19 5 -25 33 -7 33 5
0 7 -4 4 -10 -3 -5 -1 -10 5 -10 15 0 8 22 -8 28 -7 2 -15 -3 -18 -12z"/>
<path d="M3251 6523 c1 -22 2 -23 6 -8 3 11 10 23 17 27 7 5 5 8 -6 8 -13 0
-18 -7 -17 -27z"/>
<path d="M4648 6543 c7 -3 16 -2 19 1 4 3 -2 6 -13 5 -11 0 -14 -3 -6 -6z"/>
<path d="M4745 6543 c13 -11 17 -33 6 -33 -5 0 -12 6 -14 13 -3 7 -6 5 -6 -5
-1 -12 6 -18 20 -18 15 0 20 5 17 22 -2 12 -10 23 -18 25 -9 3 -11 1 -5 -4z"/>
<path d="M4848 6543 c7 -3 16 -2 19 1 4 3 -2 6 -13 5 -11 0 -14 -3 -6 -6z"/>
<path d="M4890 6540 c0 -5 8 -14 18 -19 16 -10 15 -10 -3 -11 -11 -1 -14 -4
-7 -7 7 -3 19 1 27 7 11 9 15 9 15 1 0 -6 10 -11 23 -10 21 0 21 1 2 9 -17 7
-17 9 -2 9 22 1 22 20 1 28 -10 4 -20 0 -26 -10 -5 -9 -15 -14 -24 -10 -13 5
-13 7 -2 14 10 7 9 9 -4 9 -10 0 -18 -4 -18 -10z"/>
<path d="M5203 6534 c-8 -21 13 -42 28 -27 13 13 5 43 -11 43 -6 0 -13 -7 -17
-16z m27 -9 c0 -8 -4 -15 -10 -15 -5 0 -10 7 -10 15 0 8 5 15 10 15 6 0 10 -7
10 -15z"/>
<path d="M5261 6523 c1 -23 2 -24 6 -5 2 12 8 22 13 22 5 0 11 -10 13 -22 5
-20 5 -20 4 2 -1 15 -9 26 -19 28 -14 3 -18 -3 -17 -25z"/>
<path d="M5371 6523 c2 -24 2 -25 6 -5 2 12 8 22 13 22 5 0 11 -10 13 -22 l4
-23 2 23 c0 12 5 22 10 22 5 0 12 -10 14 -22 l4 -23 2 23 c0 12 5 22 10 22 5
0 12 -10 14 -22 4 -20 4 -19 6 5 1 26 -1 27 -49 27 -48 0 -50 -1 -49 -27z"/>
<path d="M5503 6544 c18 -6 24 -34 6 -34 -5 0 -7 5 -4 10 3 6 1 10 -4 10 -6 0
-11 -7 -11 -15 0 -9 9 -15 21 -15 28 0 23 44 -6 47 -16 1 -16 1 -2 -3z"/>
<path d="M5582 6525 c0 -16 2 -22 5 -12 2 9 2 23 0 30 -3 6 -5 -1 -5 -18z"/>
<path d="M5604 6535 c-7 -18 3 -35 22 -35 8 0 14 10 14 25 0 27 -27 35 -36 10z
m26 -10 c0 -8 -4 -15 -10 -15 -5 0 -10 7 -10 15 0 8 5 15 10 15 6 0 10 -7 10
-15z"/>
<path d="M5651 6523 c2 -24 2 -25 6 -5 2 12 8 22 13 22 5 0 11 -10 13 -22 4
-20 4 -19 6 5 1 21 -4 27 -19 27 -15 0 -20 -6 -19 -27z"/>
<path d="M5832 6525 c0 -16 2 -22 5 -12 2 9 2 23 0 30 -3 6 -5 -1 -5 -18z"/>
<path d="M5851 6523 c1 -23 2 -24 6 -5 2 12 8 22 13 22 5 0 11 -10 13 -22 5
-20 5 -20 4 2 -1 15 -9 26 -19 28 -14 3 -18 -3 -17 -25z"/>
<path d="M5960 6525 c0 -20 4 -26 18 -23 9 2 17 12 17 23 0 11 -8 21 -17 23
-14 3 -18 -3 -18 -23z m30 0 c0 -8 -4 -15 -10 -15 -5 0 -10 7 -10 15 0 8 5 15
10 15 6 0 10 -7 10 -15z"/>
<path d="M6014 6537 c3 -10 6 -24 6 -30 0 -7 7 -3 15 7 8 11 15 25 15 30 0 6
-5 4 -10 -4 -9 -13 -11 -13 -21 0 -9 13 -10 12 -5 -3z"/>
<path d="M6062 6538 c-14 -14 -16 -38 -3 -38 5 0 11 11 13 25 6 29 6 29 -10
13z"/>
<path d="M6294 6525 c1 -11 9 -21 19 -23 13 -3 17 3 16 25 -1 23 -2 24 -6 6
-5 -27 -20 -30 -26 -5 -3 13 -4 12 -3 -3z"/>
<path d="M6350 6540 c0 -5 7 -7 15 -4 8 4 15 8 15 10 0 2 -7 4 -15 4 -8 0 -15
-4 -15 -10z"/>
<path d="M6400 6540 c0 -5 7 -7 15 -4 8 4 15 8 15 10 0 2 -7 4 -15 4 -8 0 -15
-4 -15 -10z"/>
<path d="M6444 6535 c-8 -19 3 -35 24 -34 14 0 13 2 -3 9 -17 7 -17 9 -2 9 21
1 23 31 2 31 -9 0 -18 -7 -21 -15z"/>
<path d="M6500 6535 c0 -8 6 -15 13 -15 8 0 7 -4 -3 -10 -13 -8 -12 -10 3 -10
9 0 17 7 17 15 0 8 -6 15 -12 15 -9 0 -8 4 2 10 13 8 12 10 -2 10 -10 0 -18
-7 -18 -15z"/>
<path d="M6540 6540 c0 -6 8 -14 17 -17 15 -6 15 -7 -3 -14 -16 -6 -16 -8 -2
-8 23 -1 33 18 13 25 -13 6 -14 8 -3 15 10 7 9 9 -4 9 -10 0 -18 -5 -18 -10z"/>
<path d="M6694 6535 c-8 -19 4 -35 24 -34 15 1 15 2 0 6 -19 5 -25 33 -7 33 5
0 7 -4 4 -10 -3 -5 -1 -10 4 -10 6 0 11 7 11 15 0 19 -29 20 -36 0z"/>
<path d="M6750 6541 c0 -6 5 -13 11 -17 8 -4 7 -9 -2 -15 -11 -7 -10 -9 4 -9
9 0 17 7 17 15 0 8 -6 15 -12 15 -9 0 -8 4 2 10 13 8 12 10 -2 10 -10 0 -18
-4 -18 -9z"/>
<path d="M6790 6540 c0 -6 8 -14 17 -17 15 -6 15 -7 -3 -14 -16 -6 -16 -8 -2
-8 23 -1 33 18 13 25 -13 6 -14 8 -3 15 10 7 9 9 -4 9 -10 0 -18 -5 -18 -10z"/>
<path d="M6848 6543 c7 -3 16 -2 19 1 4 3 -2 6 -13 5 -11 0 -14 -3 -6 -6z"/>
<path d="M6893 6534 c-4 -10 1 -22 11 -29 13 -10 14 -14 4 -18 -10 -4 -10 -6
0 -6 14 -1 35 46 26 60 -9 15 -34 10 -41 -7z m27 -9 c0 -8 -4 -15 -10 -15 -5
0 -10 7 -10 15 0 8 5 15 10 15 6 0 10 -7 10 -15z"/>
<path d="M6954 6536 c-8 -20 3 -36 24 -35 14 0 15 2 2 7 -17 8 -25 32 -11 32
5 0 12 -5 14 -10 3 -6 4 -5 3 2 -4 18 -25 22 -32 4z"/>
<path d="M2062 6520 c0 -14 2 -19 5 -12 2 6 2 18 0 25 -3 6 -5 1 -5 -13z"/>
<path d="M5342 6520 c0 -14 2 -19 5 -12 2 6 2 18 0 25 -3 6 -5 1 -5 -13z"/>
<path d="M6647 6533 c-4 -3 -7 -11 -7 -17 0 -6 5 -5 12 2 6 6 9 14 7 17 -3 3
-9 2 -12 -2z"/>
<path d="M4835 6520 c-8 -12 20 -24 35 -15 13 8 13 25 -1 25 -5 0 -7 -4 -4
-10 3 -5 -1 -10 -10 -10 -9 0 -13 5 -10 10 3 6 4 10 1 10 -3 0 -8 -5 -11 -10z"/>
<path d="M5143 6520 c2 -8 12 -16 23 -17 13 -2 15 -1 4 4 -8 3 -19 11 -23 17
-6 7 -7 6 -4 -4z"/>
<path d="M6870 6521 c0 -5 -8 -12 -17 -14 -14 -4 -12 -5 5 -6 13 -1 22 5 22
14 0 8 -2 15 -5 15 -3 0 -5 -4 -5 -9z"/>
<path d="M6350 6510 c0 -6 7 -10 15 -10 8 0 15 2 15 4 0 2 -7 6 -15 10 -8 3
-15 1 -15 -4z"/>
<path d="M6400 6510 c0 -6 7 -10 15 -10 8 0 15 2 15 4 0 2 -7 6 -15 10 -8 3
-15 1 -15 -4z"/>
<path d="M201 6483 c-1 -25 3 -33 17 -33 11 0 13 3 6 8 -7 4 -14 18 -17 32 -4
21 -4 20 -6 -7z"/>
<path d="M238 6483 c5 -21 7 -23 10 -9 2 10 0 22 -6 28 -6 6 -7 0 -4 -19z"/>
<path d="M592 6480 c0 -19 2 -27 5 -17 2 9 2 25 0 35 -3 9 -5 1 -5 -18z"/>
<path d="M621 6494 c0 -11 3 -14 6 -6 3 7 2 16 -1 19 -3 4 -6 -2 -5 -13z"/>
<path d="M264 6485 c-8 -19 4 -35 24 -34 14 0 15 2 2 7 -20 9 -24 32 -4 32 8
0 13 -3 11 -7 -3 -5 1 -13 8 -20 10 -9 13 -7 11 11 -1 26 -43 35 -52 11z"/>
<path d="M342 6475 c0 -16 2 -22 5 -12 2 9 2 23 0 30 -3 6 -5 -1 -5 -18z"/>
<path d="M360 6494 c0 -6 6 -18 13 -28 13 -18 14 -18 21 -1 3 10 4 20 1 23 -3
3 -5 -1 -5 -9 -1 -10 -5 -8 -15 5 -8 11 -15 15 -15 10z"/>
<path d="M414 6485 c-8 -19 3 -35 24 -34 14 0 13 2 -3 9 -13 6 -15 9 -5 9 13
1 13 2 0 12 -12 9 -11 10 8 6 12 -3 20 -1 16 4 -8 14 -34 11 -40 -6z"/>
<path d="M470 6475 c0 -14 2 -25 4 -25 2 0 6 11 8 25 3 14 1 25 -3 25 -5 0 -9
-11 -9 -25z"/>
<path d="M536 6483 c-6 -13 -9 -14 -15 -4 -5 8 -8 1 -7 -18 1 -17 2 -31 3 -31
6 0 34 62 30 66 -3 3 -8 -3 -11 -13z"/>
<path d="M644 6486 c-8 -20 3 -36 24 -35 14 0 15 2 2 7 -17 8 -25 32 -11 32 5
0 12 -5 14 -10 3 -6 4 -5 3 2 -4 18 -25 22 -32 4z"/>
<path d="M700 6475 c0 -14 2 -25 4 -25 2 0 6 11 8 25 3 14 1 25 -3 25 -5 0 -9
-11 -9 -25z"/>
<path d="M738 6493 c7 -3 16 -2 19 1 4 3 -2 6 -13 5 -11 0 -14 -3 -6 -6z"/>
<path d="M780 6491 c0 -6 7 -8 15 -5 10 4 15 0 15 -11 0 -11 -5 -15 -15 -11
-8 3 -15 1 -15 -5 0 -6 8 -9 18 -7 9 2 17 12 17 23 0 11 -8 21 -17 23 -10 2
-18 -1 -18 -7z"/>
<path d="M831 6473 c1 -23 2 -24 6 -5 2 12 8 22 13 22 5 0 11 -10 13 -22 5
-20 5 -20 4 2 -1 15 -9 26 -19 28 -14 3 -18 -3 -17 -25z"/>
<path d="M739 6471 c11 -7 11 -9 0 -14 -10 -4 -9 -6 4 -6 9 -1 17 6 17 14 0 8
-8 15 -17 15 -14 0 -15 -2 -4 -9z"/>
<path d="M604 6319 c-4 -7 1 -16 12 -22 17 -10 17 -11 -1 -18 -19 -7 -18 -8 3
-8 26 -1 30 24 5 34 -17 7 -16 8 2 15 16 7 17 9 3 9 -9 1 -20 -4 -24 -10z"/>
<path d="M702 6300 c0 -19 2 -27 5 -17 2 9 2 25 0 35 -3 9 -5 1 -5 -18z"/>
<path d="M1144 6315 c-13 -32 23 -63 40 -36 4 5 -3 7 -14 4 -16 -4 -20 0 -20
17 0 17 4 21 20 17 11 -3 18 -1 14 4 -8 14 -34 11 -40 -6z"/>
<path d="M820 6301 c0 -11 4 -22 9 -25 4 -3 6 6 3 19 -5 30 -12 33 -12 6z"/>
<path d="M650 6296 c0 -8 4 -17 9 -20 5 -4 7 3 4 14 -6 23 -13 26 -13 6z"/>
<path d="M927 6292 c1 -8 3 -16 3 -18 0 -3 5 -2 10 1 6 3 10 11 10 16 0 6 -4
8 -9 5 -5 -4 -11 -3 -14 1 -2 5 -2 2 0 -5z"/>
<path d="M972 6290 c0 -14 2 -19 5 -12 2 6 2 18 0 25 -3 6 -5 1 -5 -13z"/>
<path d="M1200 6299 c0 -5 5 -7 10 -4 6 3 10 8 10 11 0 2 -4 4 -10 4 -5 0 -10
-5 -10 -11z"/>
<path d="M1370 6300 c0 -5 5 -10 11 -10 5 0 7 5 4 10 -3 6 -8 10 -11 10 -2 0
-4 -4 -4 -10z"/>
<path d="M1087 6293 c-4 -3 -7 -11 -7 -17 0 -6 5 -5 12 2 6 6 9 14 7 17 -3 3
-9 2 -12 -2z"/>
<path d="M1050 6280 c0 -5 5 -10 10 -10 6 0 10 5 10 10 0 6 -4 10 -10 10 -5 0
-10 -4 -10 -10z"/>
<path d="M788 6273 c7 -3 16 -2 19 1 4 3 -2 6 -13 5 -11 0 -14 -3 -6 -6z"/>
<path d="M1008 6273 c7 -3 16 -2 19 1 4 3 -2 6 -13 5 -11 0 -14 -3 -6 -6z"/>
<path d="M1298 6273 c7 -3 16 -2 19 1 4 3 -2 6 -13 5 -11 0 -14 -3 -6 -6z"/>
<path d="M1455 6250 c4 -6 -153 -11 -452 -13 l-458 -2 458 -3 c302 -1 456 -5
452 -12 -8 -13 5 -12 33 3 l23 13 -26 12 c-32 15 -38 15 -30 2z"/>
<path d="M1548 6233 l32 -4 0 -544 c0 -425 -3 -544 -12 -548 -10 -4 -10 -6 0
-6 7 -1 12 -16 12 -41 l0 -40 -760 0 -760 0 0 -2225 0 -2225 759 0 760 0 4
-22 4 -23 2 23 1 22 764 0 765 0 4 -23 4 -22 2 23 c1 24 16 30 24 10 4 -10 6
-10 6 0 1 9 409 12 2006 12 l2005 0 0 2225 0 2225 -2790 0 -2790 0 0 500 0
500 291 0 c191 0 288 -3 284 -10 -8 -13 11 -13 37 1 21 11 21 12 -3 25 -29 16
-42 18 -34 4 4 -7 -93 -10 -284 -10 l-291 0 0 90 0 90 -37 -2 c-37 -1 -37 -1
-5 -5z m-1088 -1211 c0 -10 -13 -33 -28 -50 l-29 -32 -166 0 -167 0 0 50 0 50
195 0 c182 0 195 -1 195 -18z m1120 -97 l0 -115 -517 -2 -518 -3 518 -2 517
-3 0 -850 0 -850 -517 -2 -518 -3 517 -2 518 -3 0 -110 0 -110 -725 0 -725 0
3 773 2 772 170 3 c168 2 170 3 197 29 15 15 28 31 28 37 0 5 -15 -4 -33 -22
l-33 -32 -167 0 -167 0 0 45 0 45 700 0 c385 0 700 4 700 8 0 5 -316 8 -702 8
l-703 -1 -3 -837 -2 -838 217 0 c120 0 449 0 731 0 l512 0 0 -130 c0 -97 -3
-130 -12 -131 -10 0 -10 -2 0 -6 9 -3 12 -41 12 -139 l0 -134 -512 0 c-282 0
-611 0 -731 0 l-217 0 2 -838 3 -837 728 -3 c637 -2 727 -4 727 -17 0 -13 -92
-15 -755 -15 l-755 0 0 2160 0 2160 167 0 167 0 33 32 c18 18 33 42 33 55 l0
22 555 1 555 0 0 -115z m5580 -2100 l0 -2215 -2000 0 c-1593 0 -2000 3 -2001
13 0 10 -2 10 -6 0 -7 -18 -23 -16 -23 2 0 10 11 15 33 16 26 0 28 2 12 8 -11
5 -26 6 -32 4 -9 -4 -13 7 -13 37 0 36 3 41 18 36 16 -6 16 -5 0 8 -10 7 -18
19 -18 26 0 7 7 10 18 6 16 -6 16 -5 0 8 -17 12 -18 61 -18 775 l0 761 1220 0
1220 0 2 -92 2 -93 3 93 c4 90 4 92 28 92 l25 0 2 -117 2 -118 3 117 4 118
729 0 730 0 -2 -827 -3 -828 -1940 -2 c-1067 -2 -1944 -5 -1950 -7 -5 -3 871
-5 1948 -5 l1957 -1 0 840 0 840 -735 0 -735 0 -2 48 -2 47 -3 -47 c-4 -43 -7
-48 -29 -48 -13 0 -24 6 -25 13 0 9 -2 9 -6 0 -4 -10 -258 -13 -1224 -13
l-1219 0 0 80 c0 69 2 80 18 81 16 1 16 2 0 6 -16 4 -18 22 -18 189 l0 184
1743 0 c958 0 1853 0 1990 0 l247 0 0 834 c0 744 -2 835 -15 840 -9 3 -332 6
-718 6 -386 0 -710 0 -719 0 -15 0 -18 9 -18 45 0 45 0 45 -35 45 l-35 0 0
-47 0 -48 -1640 3 c-1094 1 -1640 -1 -1640 -8 0 -7 549 -10 1645 -10 l1645 0
0 50 c0 47 2 50 25 50 l25 0 2 -167 c2 -145 3 -152 5 -50 l4 117 729 0 730 0
0 -825 0 -825 -1985 0 -1985 0 0 110 0 110 1206 0 c801 0 1203 -3 1199 -10 -8
-13 -2 -13 30 2 l26 12 -23 13 c-28 15 -41 16 -33 3 4 -7 -398 -10 -1199 -10
l-1206 0 0 501 0 501 43 -5 c23 -2 53 -8 67 -12 19 -5 22 -4 10 4 -11 8 324
11 1170 13 l1185 3 -1178 2 c-894 2 -1176 6 -1171 15 5 8 2 9 -12 4 -10 -5
-41 -11 -69 -15 l-50 -6 -3 -502 -2 -503 -440 0 -440 0 0 850 0 850 32 1 c22
1 15 4 -22 9 -30 4 -64 11 -74 16 -14 5 -17 4 -12 -4 5 -9 -64 -12 -283 -12
l-291 0 0 115 0 115 2785 0 2785 0 0 -2215z m-4996 1963 c-5 -8 -2 -9 12 -4
57 24 54 29 54 -112 0 -138 -1 -142 -50 -136 -14 1 -152 3 -307 3 l-283 1 0
130 0 130 291 0 c219 0 288 -3 283 -12z m66 -978 l0 -710 -320 0 -320 0 0 710
0 710 320 0 320 0 0 -710z m2 -812 l2 -93 3 93 4 92 439 0 440 0 0 -110 0
-110 -765 0 -765 0 0 110 0 110 320 0 320 0 2 -92z m888 -408 l0 -270 -440 0
-440 0 0 134 c0 120 2 135 18 139 13 3 12 4 -3 3 -19 -1 -20 -9 -23 -138 l-3
-138 -319 0 -320 0 0 135 0 135 258 2 257 3 -257 2 -258 3 0 130 0 130 765 0
765 0 0 -270z m-1540 -1110 l0 -830 -722 2 -723 3 -2 815 c-2 448 -1 821 2
828 3 9 158 12 725 12 l720 0 0 -830z m652 23 l3 -808 2 808 3 807 440 0 440
0 0 -830 0 -830 -765 0 -765 0 0 830 0 830 320 0 320 0 2 -807z m888 -878 c0
-13 -92 -15 -765 -15 -673 0 -765 2 -765 15 0 13 92 15 765 15 673 0 765 -2
765 -15z"/>
<path d="M223 4995 c0 -22 2 -30 4 -17 2 12 2 30 0 40 -3 9 -5 -1 -4 -23z"/>
<path d="M247 5014 c-8 -8 4 -44 15 -44 5 0 6 5 2 11 -3 6 -1 15 6 19 9 5 8 9
-3 13 -8 3 -17 3 -20 1z"/>
<path d="M170 5001 c10 -7 11 -11 3 -11 -7 0 -13 -4 -13 -10 0 -5 12 -10 26
-10 34 0 29 34 -6 38 -20 2 -22 1 -10 -7z"/>
<path d="M560 4996 c0 -14 5 -28 10 -31 6 -4 10 7 10 24 0 17 -4 31 -10 31 -5
0 -10 -11 -10 -24z"/>
<path d="M598 5008 c-8 -20 2 -38 20 -37 11 0 12 2 5 6 -7 2 -13 11 -13 18 0
7 6 16 13 18 7 4 6 6 -4 6 -9 1 -19 -5 -21 -11z"/>
<path d="M652 4995 c0 -16 2 -22 5 -12 2 9 2 23 0 30 -3 6 -5 -1 -5 -18z"/>
<path d="M672 4995 c0 -16 2 -22 5 -12 2 9 2 23 0 30 -3 6 -5 -1 -5 -18z"/>
<path d="M741 5000 c-1 -18 5 -26 17 -27 11 -1 18 6 18 18 0 11 -5 18 -12 15
-7 -3 -15 0 -18 7 -2 7 -5 1 -5 -13z"/>
<path d="M810 5009 c0 -5 5 -7 10 -4 6 3 10 8 10 11 0 2 -4 4 -10 4 -5 0 -10
-5 -10 -11z"/>
<path d="M842 4998 c2 -14 11 -24 23 -25 16 -1 16 -1 3 3 -10 3 -18 12 -18 19
0 7 8 16 18 18 12 3 11 5 -6 6 -19 1 -23 -3 -20 -21z"/>
<path d="M1060 5011 c0 -5 -9 -7 -20 -4 -16 4 -20 0 -20 -21 0 -18 4 -24 15
-20 8 4 15 11 15 18 0 6 5 4 10 -4 8 -12 10 -9 10 13 0 15 -2 27 -5 27 -3 0
-5 -4 -5 -9z"/>
<path d="M1138 5014 c-8 -7 2 -44 11 -44 8 0 8 37 0 45 -3 3 -8 2 -11 -1z"/>
<path d="M1210 5010 c0 -5 5 -10 10 -10 6 0 10 5 10 10 0 6 -4 10 -10 10 -5 0
-10 -4 -10 -10z"/>
<path d="M1254 4990 c-1 -17 3 -30 7 -30 5 0 9 14 9 30 0 39 -15 39 -16 0z"/>
<path d="M695 5000 c-9 -14 3 -30 23 -30 15 0 15 2 2 10 -13 9 -13 11 0 20 13
8 13 10 -2 10 -9 0 -20 -4 -23 -10z"/>
<path d="M897 5004 c-9 -10 4 -34 19 -34 8 0 14 9 14 20 0 19 -19 27 -33 14z"/>
<path d="M941 4987 c0 -21 1 -21 8 -2 8 19 8 19 19 0 11 -20 11 -20 12 0 l1
20 9 -20 c8 -20 9 -20 9 1 1 17 -5 21 -29 22 -25 1 -30 -3 -29 -21z"/>
<path d="M1085 5000 c-9 -14 3 -30 23 -30 15 0 15 2 2 10 -10 6 -11 10 -2 10
6 0 12 5 12 10 0 6 -6 10 -14 10 -8 0 -18 -4 -21 -10z"/>
<path d="M1165 5000 c-8 -14 3 -30 21 -30 8 0 14 9 14 20 0 21 -24 28 -35 10z"/>
<path d="M604 4885 c-10 -24 4 -45 28 -44 l23 2 -22 4 c-14 3 -23 12 -23 23 0
11 9 20 23 23 l22 4 -23 2 c-12 0 -25 -6 -28 -14z"/>
<path d="M662 4870 c0 -19 2 -27 5 -17 2 9 2 25 0 35 -3 9 -5 1 -5 -18z"/>
<path d="M752 4870 c0 -19 2 -29 5 -22 4 10 8 10 21 0 15 -11 15 -11 5 3 -7 9
-9 20 -5 24 4 5 2 5 -5 1 -6 -3 -13 1 -16 11 -3 10 -5 2 -5 -17z"/>
<path d="M864 4885 c-9 -23 3 -45 23 -44 17 1 17 2 1 6 -10 2 -18 13 -18 23 0
10 8 21 18 23 16 4 16 5 -1 6 -10 0 -20 -6 -23 -14z"/>
<path d="M1172 4868 c2 -18 10 -23 38 -25 19 -1 28 1 20 4 -8 3 -18 11 -22 17
-5 8 -8 7 -8 -1 0 -7 -5 -13 -11 -13 -6 0 -9 9 -6 20 3 11 1 20 -5 20 -5 0 -8
-10 -6 -22z"/>
<path d="M682 4860 c0 -14 2 -19 5 -12 2 6 2 18 0 25 -3 6 -5 1 -5 -13z"/>
<path d="M703 4866 c1 -11 9 -21 17 -23 10 -3 11 -2 4 4 -6 4 -14 15 -17 23
-5 11 -6 9 -4 -4z"/>
<path d="M915 4870 c-9 -15 4 -30 23 -29 15 1 14 2 -1 6 -11 3 -16 11 -13 19
6 16 0 19 -9 4z"/>
<path d="M1022 4860 c0 -14 2 -19 5 -12 2 6 2 18 0 25 -3 6 -5 1 -5 -13z"/>
<path d="M1051 4857 c-1 -25 1 -27 19 -17 11 6 19 18 19 28 -1 16 -2 16 -6 0
-2 -10 -8 -18 -13 -18 -5 0 -11 8 -13 18 -3 10 -5 6 -6 -11z"/>
<path d="M1124 4860 c1 -8 10 -16 21 -17 15 -1 15 0 3 3 -9 3 -19 11 -21 17
-2 7 -3 5 -3 -3z"/>
<path d="M280 4480 c0 -31 20 -43 21 -12 0 13 2 12 9 -5 5 -13 12 -23 16 -23
3 0 4 6 1 14 -3 7 0 19 6 25 10 10 -1 16 -25 12 -5 0 -8 4 -8 9 0 6 -4 10 -10
10 -5 0 -10 -13 -10 -30z"/>
<path d="M632 4470 c0 -19 2 -27 5 -17 2 9 2 25 0 35 -3 9 -5 1 -5 -18z"/>
<path d="M664 4475 c1 -28 30 -25 34 3 2 19 1 19 -4 2 -7 -25 -21 -26 -27 -2
-3 13 -4 12 -3 -3z"/>
<path d="M1000 4474 c0 -27 20 -34 21 -6 0 14 2 14 9 -3 8 -18 9 -18 9 5 1 19
-4 26 -19 27 -15 1 -20 -4 -20 -23z"/>
<path d="M1212 4470 c0 -19 2 -27 5 -17 2 9 2 25 0 35 -3 9 -5 1 -5 -18z"/>
<path d="M238 4484 c10 -5 9 -9 -4 -18 -12 -9 -14 -15 -6 -20 7 -4 12 -3 12 3
0 6 7 8 16 4 12 -4 15 -1 12 13 -2 10 -12 20 -23 21 -11 2 -14 0 -7 -3z"/>
<path d="M715 4480 c-3 -5 0 -10 7 -10 9 0 9 -3 -2 -10 -13 -8 -13 -10 1 -10
21 0 29 9 22 26 -6 16 -19 18 -28 4z"/>
<path d="M760 4469 c0 -11 7 -19 18 -19 14 0 15 2 2 10 -13 8 -13 10 2 10 9 0
18 -5 20 -10 2 -6 8 -2 15 9 11 17 9 19 -23 19 -27 0 -34 -4 -34 -19z"/>
<path d="M865 4480 c-11 -18 5 -30 38 -27 20 2 32 8 32 17 0 17 -61 25 -70 10z
m35 -10 c0 -5 -4 -10 -10 -10 -5 0 -10 5 -10 10 0 6 5 10 10 10 6 0 10 -4 10
-10z m30 0 c0 -5 -4 -10 -10 -10 -5 0 -10 5 -10 10 0 6 5 10 10 10 6 0 10 -4
10 -10z"/>
<path d="M950 4470 c0 -25 20 -27 21 -2 0 14 2 14 9 -3 8 -19 9 -19 9 3 1 16
-5 22 -19 22 -13 0 -20 -7 -20 -20z"/>
<path d="M1050 4470 c0 -11 4 -20 9 -20 5 0 11 9 14 20 3 13 0 20 -9 20 -8 0
-14 -9 -14 -20z"/>
<path d="M1091 4467 c0 -21 1 -21 8 -2 8 19 8 19 19 0 11 -20 11 -20 12 0 l1
20 9 -20 c8 -20 9 -20 9 1 1 17 -5 21 -29 22 -25 1 -30 -3 -29 -21z"/>
<path d="M1163 4470 c1 -11 7 -20 14 -20 6 0 11 9 10 20 -1 11 -7 20 -14 20
-6 0 -11 -9 -10 -20z"/>
<path d="M604 4369 c-4 -7 1 -16 12 -22 17 -10 17 -11 -1 -18 -19 -7 -18 -8 3
-8 26 -1 30 24 5 34 -17 7 -16 8 2 15 16 7 17 9 3 9 -9 1 -20 -4 -24 -10z"/>
<path d="M702 4350 c0 -19 2 -27 5 -17 2 9 2 25 0 35 -3 9 -5 1 -5 -18z"/>
<path d="M820 4356 c0 -14 4 -27 8 -30 5 -3 6 8 4 25 -5 35 -12 38 -12 5z"/>
<path d="M916 4364 c-5 -14 -4 -15 9 -4 17 14 19 20 6 20 -5 0 -12 -7 -15 -16z"/>
<path d="M1082 4350 c0 -19 2 -27 5 -17 2 9 2 25 0 35 -3 9 -5 1 -5 -18z"/>
<path d="M654 4340 c1 -8 10 -16 21 -17 15 -1 15 0 3 3 -9 3 -19 11 -21 17 -2
7 -3 5 -3 -3z"/>
<path d="M974 4340 c1 -8 9 -16 19 -18 12 -3 17 3 16 20 -1 17 -3 18 -6 6 -5
-21 -20 -24 -26 -5 -2 7 -3 6 -3 -3z"/>
<path d="M1022 4340 c0 -14 2 -19 5 -12 2 6 2 18 0 25 -3 6 -5 1 -5 -13z"/>
<path d="M1052 4340 c0 -14 2 -19 5 -12 2 6 2 18 0 25 -3 6 -5 1 -5 -13z"/>
<path d="M1102 4340 c0 -14 2 -19 5 -12 2 6 2 18 0 25 -3 6 -5 1 -5 -13z"/>
<path d="M1132 4340 c0 -14 2 -19 5 -12 2 6 2 18 0 25 -3 6 -5 1 -5 -13z"/>
<path d="M1162 4340 c0 -14 2 -19 5 -12 2 6 2 18 0 25 -3 6 -5 1 -5 -13z"/>
<path d="M1192 4340 c0 -14 2 -19 5 -12 2 6 2 18 0 25 -3 6 -5 1 -5 -13z"/>
<path d="M1221 4334 c0 -11 3 -14 6 -6 3 7 2 16 -1 19 -3 4 -6 -2 -5 -13z"/>
<path d="M920 4329 c0 -5 9 -9 20 -9 11 0 20 2 20 4 0 2 -9 6 -20 9 -11 3 -20
1 -20 -4z"/>
<path d="M738 4323 c7 -3 16 -2 19 1 4 3 -2 6 -13 5 -11 0 -14 -3 -6 -6z"/>
<path d="M788 4323 c7 -3 16 -2 19 1 4 3 -2 6 -13 5 -11 0 -14 -3 -6 -6z"/>
<path d="M160 3270 c0 -16 3 -30 8 -30 4 0 7 14 7 30 0 17 -3 30 -7 30 -5 0
-8 -13 -8 -30z"/>
<path d="M195 3287 c-4 -10 -3 -23 3 -29 16 -16 42 -1 41 24 0 23 0 23 -11 -2
l-11 -25 -7 25 c-6 22 -8 23 -15 7z"/>
<path d="M622 3275 c0 -16 2 -22 5 -12 2 9 2 23 0 30 -3 6 -5 -1 -5 -18z"/>
<path d="M688 3273 c4 -24 3 -25 -10 -12 -9 8 -14 17 -11 22 2 4 0 7 -6 7 -21
0 -20 -19 1 -34 32 -22 38 -20 38 14 0 17 -4 30 -9 30 -4 0 -6 -12 -3 -27z"/>
<path d="M257 3283 c-12 -12 -7 -30 8 -30 8 0 15 4 15 9 0 4 -5 8 -11 8 -5 0
-7 5 -4 10 7 11 2 13 -8 3z"/>
<path d="M303 3283 c-14 -5 -18 -33 -5 -33 4 0 14 5 22 10 17 11 2 30 -17 23z"/>
<path d="M401 3281 c-7 -5 -10 -14 -7 -20 11 -17 22 -13 22 9 0 11 0 20 -1 20
0 0 -6 -4 -14 -9z"/>
<path d="M446 3283 c6 -4 14 -15 17 -23 5 -11 6 -9 4 4 -1 11 -9 21 -17 23
-10 3 -11 2 -4 -4z"/>
<path d="M493 3283 c-7 -3 -13 -12 -13 -21 1 -14 2 -14 12 3 11 19 11 19 19 0
6 -16 8 -17 8 -3 1 20 -9 27 -26 21z"/>
<path d="M543 3283 c-16 -6 -17 -33 -2 -33 5 0 8 4 5 9 -4 5 0 11 6 14 7 2 11
7 8 9 -3 3 -11 3 -17 1z"/>
<path d="M580 3275 c-7 -8 -11 -15 -9 -16 32 -6 39 -5 39 6 0 21 -16 26 -30
10z"/>
<path d="M340 3265 c0 -8 2 -15 4 -15 2 0 6 7 10 15 3 8 1 15 -4 15 -6 0 -10
-7 -10 -15z"/>
<path d="M605 3180 c-3 -5 3 -18 15 -30 14 -14 20 -16 20 -6 0 8 -8 17 -17 21
-17 7 -16 8 2 15 16 7 17 9 3 9 -9 1 -19 -3 -23 -9z"/>
<path d="M702 3160 c0 -19 2 -27 5 -17 2 9 2 25 0 35 -3 9 -5 1 -5 -18z"/>
<path d="M926 3181 c-4 -5 3 -7 14 -4 23 6 26 13 6 13 -8 0 -17 -4 -20 -9z"/>
<path d="M1172 3160 c0 -19 2 -27 5 -17 2 9 2 25 0 35 -3 9 -5 1 -5 -18z"/>
<path d="M822 3160 c0 -14 2 -19 5 -12 2 6 2 18 0 25 -3 6 -5 1 -5 -13z"/>
<path d="M650 3156 c0 -8 4 -17 9 -20 5 -4 7 3 4 14 -6 23 -13 26 -13 6z"/>
<path d="M1022 3150 c0 -14 2 -19 5 -12 2 6 2 18 0 25 -3 6 -5 1 -5 -13z"/>
<path d="M1052 3150 c0 -14 2 -19 5 -12 2 6 2 18 0 25 -3 6 -5 1 -5 -13z"/>
<path d="M1124 3159 c-3 -6 -2 -15 3 -20 5 -5 9 -1 9 11 0 23 -2 24 -12 9z"/>
<path d="M916 3145 c4 -8 11 -15 16 -15 6 0 5 6 -2 15 -7 8 -14 15 -16 15 -2
0 -1 -7 2 -15z"/>
<path d="M1001 3144 c0 -11 3 -14 6 -6 3 7 2 16 -1 19 -3 4 -6 -2 -5 -13z"/>
<path d="M100 2770 c0 -16 3 -30 8 -30 4 0 7 14 7 30 0 17 -3 30 -7 30 -5 0
-8 -13 -8 -30z"/>
<path d="M137 2793 c-11 -10 -8 -43 4 -43 5 0 7 5 3 12 -4 6 1 17 11 25 15 10
16 13 4 13 -9 0 -19 -3 -22 -7z"/>
<path d="M182 2775 c0 -16 2 -22 5 -12 2 9 2 23 0 30 -3 6 -5 -1 -5 -18z"/>
<path d="M271 2779 c-1 -15 4 -26 12 -26 8 0 14 6 14 13 0 7 -4 11 -8 8 -4 -2
-10 4 -12 13 -3 12 -5 9 -6 -8z"/>
<path d="M383 2789 c-12 -12 -7 -39 8 -39 4 0 6 7 2 16 -3 9 0 20 8 25 8 5 9
9 4 9 -6 0 -16 -5 -22 -11z"/>
<path d="M612 2775 c0 -16 2 -22 5 -12 2 9 2 23 0 30 -3 6 -5 -1 -5 -18z"/>
<path d="M675 2770 c0 -16 3 -30 8 -30 4 0 7 14 7 30 0 17 -3 30 -7 30 -5 0
-8 -13 -8 -30z"/>
<path d="M211 2764 c0 -11 3 -14 6 -6 3 7 2 16 -1 19 -3 4 -6 -2 -5 -13z"/>
<path d="M230 2765 c0 -8 4 -15 8 -15 5 0 9 7 9 15 0 8 -4 15 -9 15 -4 0 -8
-7 -8 -15z"/>
<path d="M430 2766 c-9 -12 -8 -15 9 -13 12 1 21 7 21 14 0 17 -15 16 -30 -1z"/>
<path d="M480 2762 c0 -15 2 -15 10 -2 5 8 10 10 10 4 0 -14 28 -14 34 1 3 8
-7 12 -25 13 -21 0 -29 -4 -29 -16z"/>
<path d="M560 2765 c0 -17 2 -18 24 -9 23 9 20 24 -4 24 -11 0 -20 -7 -20 -15z"/>
<path d="M613 2683 c-15 -6 -17 -39 -3 -48 6 -3 7 1 4 10 -4 8 -1 22 6 30 13
16 13 16 -7 8z"/>
<path d="M750 2664 c0 -21 5 -31 15 -31 18 0 18 -2 0 33 l-15 29 0 -31z"/>
<path d="M662 2655 c0 -16 2 -22 5 -12 2 9 2 23 0 30 -3 6 -5 -1 -5 -18z"/>
<path d="M860 2655 c0 -14 4 -25 9 -25 4 0 6 11 3 25 -2 14 -6 25 -8 25 -2 0
-4 -11 -4 -25z"/>
<path d="M682 2650 c0 -14 2 -19 5 -12 2 6 2 18 0 25 -3 6 -5 1 -5 -13z"/>
<path d="M703 2655 c-3 -9 -3 -18 -1 -21 3 -3 8 4 11 16 6 23 -1 27 -10 5z"/>
<path d="M942 2650 c0 -14 2 -19 5 -12 2 6 2 18 0 25 -3 6 -5 1 -5 -13z"/>
<path d="M978 2663 c7 -3 16 -2 19 1 4 3 -2 6 -13 5 -11 0 -14 -3 -6 -6z"/>
<path d="M550 2593 c0 -7 371 -7 820 0 96 1 -49 4 -322 5 -274 1 -498 -1 -498
-5z"/>
<path d="M3280 4687 c0 -14 4 -28 8 -31 9 -5 8 41 -1 51 -4 3 -7 -5 -7 -20z"/>
<path d="M3448 4703 c6 -2 9 -10 6 -15 -4 -7 -2 -8 4 -4 18 11 14 26 -5 25
-11 0 -13 -3 -5 -6z"/>
<path d="M2405 4690 c-3 -6 1 -7 9 -4 18 7 21 14 7 14 -6 0 -13 -4 -16 -10z"/>
<path d="M2453 4684 c-8 -21 13 -42 28 -27 13 13 5 43 -11 43 -6 0 -13 -7 -17
-16z m27 -9 c0 -8 -4 -15 -10 -15 -5 0 -10 7 -10 15 0 8 5 15 10 15 6 0 10 -7
10 -15z"/>
<path d="M2684 4685 c-3 -8 -3 -19 1 -25 8 -13 35 -13 35 0 0 5 -7 7 -15 4
-10 -4 -15 0 -15 11 0 11 5 15 16 11 8 -3 12 -2 9 4 -9 15 -25 12 -31 -5z"/>
<path d="M2740 4690 c-12 -7 -10 -9 7 -7 12 0 19 5 17 9 -6 10 -6 10 -24 -2z"/>
<path d="M2790 4675 c0 -14 2 -25 4 -25 2 0 6 11 8 25 3 14 1 25 -3 25 -5 0
-9 -11 -9 -25z"/>
<path d="M2844 4685 c-3 -8 -4 -20 -2 -27 3 -7 7 -1 10 15 6 29 1 36 -8 12z"/>
<path d="M2898 4673 c5 -21 7 -23 10 -9 2 10 0 22 -6 28 -6 6 -7 0 -4 -19z"/>
<path d="M2928 4673 c5 -21 7 -23 10 -9 2 10 0 22 -6 28 -6 6 -7 0 -4 -19z"/>
<path d="M2984 4685 c-7 -17 3 -35 19 -34 9 0 9 2 0 6 -7 2 -13 11 -13 18 0 7
6 16 13 18 9 4 9 6 -1 6 -7 1 -15 -6 -18 -14z"/>
<path d="M3023 4684 c-8 -21 13 -42 28 -27 13 13 5 43 -11 43 -6 0 -13 -7 -17
-16z m27 -9 c0 -8 -4 -15 -10 -15 -5 0 -10 7 -10 15 0 8 5 15 10 15 6 0 10 -7
10 -15z"/>
<path d="M3098 4673 c5 -21 7 -23 10 -9 2 10 0 22 -6 28 -6 6 -7 0 -4 -19z"/>
<path d="M3128 4673 c5 -21 7 -23 10 -9 2 10 0 22 -6 28 -6 6 -7 0 -4 -19z"/>
<path d="M3165 4690 c-3 -6 1 -7 9 -4 18 7 21 14 7 14 -6 0 -13 -4 -16 -10z"/>
<path d="M3234 4686 c-8 -20 3 -36 24 -35 14 0 13 2 -3 9 -18 8 -18 9 -2 9 10
1 17 6 15 13 -7 19 -27 21 -34 4z"/>
<path d="M3333 4684 c-8 -21 13 -42 28 -27 13 13 5 43 -11 43 -6 0 -13 -7 -17
-16z m27 -9 c0 -8 -4 -15 -10 -15 -5 0 -10 7 -10 15 0 8 5 15 10 15 6 0 10 -7
10 -15z"/>
<path d="M3381 4673 c1 -23 2 -24 6 -5 2 12 8 22 13 22 5 0 11 -10 13 -22 5
-20 5 -20 4 2 -1 15 -9 26 -19 28 -14 3 -18 -3 -17 -25z"/>
<path d="M2350 4686 c0 -2 7 -7 16 -10 8 -3 12 -2 9 4 -6 10 -25 14 -25 6z"/>
<path d="M2516 4674 c-4 -9 -4 -19 -1 -22 3 -3 5 0 5 8 0 10 3 10 15 0 16 -14
18 -10 9 14 -8 21 -20 20 -28 0z"/>
<path d="M2872 4670 c0 -14 2 -19 5 -12 2 6 2 18 0 25 -3 6 -5 1 -5 -13z"/>
<path d="M3072 4670 c0 -14 2 -19 5 -12 2 6 2 18 0 25 -3 6 -5 1 -5 -13z"/>
<path d="M3312 4670 c0 -14 2 -19 5 -12 2 6 2 18 0 25 -3 6 -5 1 -5 -13z"/>
<path d="M2638 4658 c5 -5 16 -8 23 -6 8 3 3 7 -10 11 -17 4 -21 3 -13 -5z"/>
<path d="M3153 4656 c0 -8 8 -11 20 -8 14 4 16 7 5 13 -19 12 -25 11 -25 -5z"/>
<path d="M2358 4653 c7 -3 16 -2 19 1 4 3 -2 6 -13 5 -11 0 -14 -3 -6 -6z"/>
<path d="M5505 4640 c4 -7 -536 -11 -1602 -13 l-1608 -2 1608 -3 c1069 -1
1606 -5 1602 -12 -8 -13 -3 -13 32 1 l28 11 -25 13 c-30 17 -44 19 -35 5z"/>
<path d="M5574 4425 c0 -49 1 -71 3 -48 2 23 2 64 0 90 -2 26 -3 8 -3 -42z"/>
<path d="M5571 4321 c-1 -8 -8 -11 -18 -9 -14 4 -18 -2 -19 -23 -1 -26 0 -27
25 -16 14 6 27 12 29 13 1 0 -2 12 -7 25 -5 13 -10 18 -10 10z"/>
<path d="M3602 4165 c0 -16 2 -22 5 -12 2 9 2 23 0 30 -3 6 -5 -1 -5 -18z"/>
<path d="M3302 4160 c0 -14 2 -19 5 -12 2 6 2 18 0 25 -3 6 -5 1 -5 -13z"/>
<path d="M3340 4166 c0 -8 4 -17 8 -20 4 -2 8 4 8 15 0 10 -4 19 -8 19 -4 0
-8 -6 -8 -14z"/>
<path d="M3372 4160 c0 -14 2 -19 5 -12 2 6 2 18 0 25 -3 6 -5 1 -5 -13z"/>
<path d="M3390 4160 c0 -11 2 -20 4 -20 2 0 6 9 9 20 3 11 1 20 -4 20 -5 0 -9
-9 -9 -20z"/>
<path d="M3422 4160 c0 -14 2 -19 5 -12 2 6 2 18 0 25 -3 6 -5 1 -5 -13z"/>
<path d="M3452 4160 c0 -14 2 -19 5 -12 2 6 2 18 0 25 -3 6 -5 1 -5 -13z"/>
<path d="M3552 4160 c0 -14 2 -19 5 -12 2 6 2 18 0 25 -3 6 -5 1 -5 -13z"/>
<path d="M3631 4154 c0 -11 3 -14 6 -6 3 7 2 16 -1 19 -3 4 -6 -2 -5 -13z"/>
<path d="M3356 4000 c-10 -10 -16 -25 -13 -32 4 -8 6 -7 6 5 1 9 5 17 10 17 5
0 12 -8 14 -17 3 -10 5 -3 6 15 1 37 2 37 -23 12z"/>
<path d="M3532 4008 c-14 -14 -16 -34 -4 -42 5 -3 8 5 8 17 -1 13 5 22 14 22
9 0 15 -9 14 -23 0 -16 2 -20 10 -12 7 7 7 16 0 27 -14 22 -27 26 -42 11z"/>
<path d="M3650 4010 c0 -5 -7 -10 -15 -10 -8 0 -15 -4 -15 -10 0 -5 8 -6 17
-3 12 5 15 2 10 -10 -3 -9 -2 -17 3 -17 6 0 10 14 10 30 0 17 -2 30 -5 30 -3
0 -5 -4 -5 -10z"/>
<path d="M3900 4010 c0 -5 -7 -10 -15 -10 -9 0 -15 -9 -14 -22 1 -17 2 -19 6
-5 2 9 8 17 13 17 5 0 11 -8 13 -17 3 -10 5 -3 6 15 0 17 -1 32 -4 32 -3 0 -5
-4 -5 -10z"/>
<path d="M4556 4000 c-10 -10 -16 -25 -13 -32 4 -8 6 -7 6 5 1 9 5 17 10 17 5
0 12 -8 14 -17 3 -10 5 -3 6 15 1 37 2 37 -23 12z"/>
<path d="M3440 3986 c0 -31 6 -34 13 -6 3 11 1 23 -4 26 -5 3 -9 -6 -9 -20z"/>
<path d="M4012 3985 c0 -16 2 -22 5 -12 2 9 2 23 0 30 -3 6 -5 -1 -5 -18z"/>
<path d="M4032 3985 c0 -16 2 -22 5 -12 2 9 2 23 0 30 -3 6 -5 -1 -5 -18z"/>
<path d="M4460 3986 c0 -31 6 -34 13 -6 3 11 1 23 -4 26 -5 3 -9 -6 -9 -20z"/>
<path d="M3291 3973 c1 -22 2 -23 6 -8 3 11 10 23 17 27 7 5 5 8 -6 8 -13 0
-18 -7 -17 -27z"/>
<path d="M3406 3993 c6 -4 14 -15 17 -23 5 -11 6 -9 4 4 -1 11 -9 21 -17 23
-10 3 -11 2 -4 -4z"/>
<path d="M3474 3989 c-3 -6 -1 -16 5 -22 9 -9 11 -8 6 5 -4 11 0 18 12 21 15
4 16 5 1 6 -9 0 -20 -4 -24 -10z"/>
<path d="M3590 3985 c0 -8 2 -15 4 -15 2 0 6 7 10 15 3 8 1 15 -4 15 -6 0 -10
-7 -10 -15z"/>
<path d="M3674 3989 c-3 -6 -1 -16 5 -22 9 -9 11 -8 6 5 -4 11 0 18 12 21 15
4 16 5 1 6 -9 0 -20 -4 -24 -10z"/>
<path d="M3803 3993 c12 -3 16 -10 12 -21 -5 -13 -3 -14 6 -5 14 14 3 33 -19
32 -15 -1 -14 -2 1 -6z"/>
<path d="M3840 3980 c0 -11 2 -20 4 -20 2 0 6 9 9 20 3 11 1 20 -4 20 -5 0 -9
-9 -9 -20z"/>
<path d="M3938 3993 c7 -3 16 -2 19 1 4 3 -2 6 -13 5 -11 0 -14 -3 -6 -6z"/>
<path d="M3980 3989 c0 -5 5 -7 10 -4 6 3 10 8 10 11 0 2 -4 4 -10 4 -5 0 -10
-5 -10 -11z"/>
<path d="M4160 3990 c0 -5 7 -7 15 -4 8 4 15 8 15 10 0 2 -7 4 -15 4 -8 0 -15
-4 -15 -10z"/>
<path d="M4204 3985 c-4 -9 -4 -19 0 -22 3 -4 6 1 6 10 0 21 17 22 23 2 4 -12
5 -11 3 1 -2 23 -24 30 -32 9z"/>
<path d="M4251 3978 c1 -17 3 -18 6 -5 2 9 8 17 13 17 5 0 11 -8 13 -17 4 -17
5 -17 6 0 1 21 18 23 24 2 4 -11 4 -10 3 2 -1 13 -11 19 -34 21 -28 3 -32 0
-31 -20z"/>
<path d="M4330 3968 c0 -23 3 -29 9 -19 5 8 7 20 4 27 -2 7 4 14 14 17 14 4
14 5 -4 6 -19 1 -23 -4 -23 -31z"/>
<path d="M4382 3980 c0 -14 2 -19 5 -12 2 6 2 18 0 25 -3 6 -5 1 -5 -13z"/>
<path d="M4411 3978 c1 -19 2 -19 6 -5 3 11 11 16 19 13 9 -3 12 -1 9 4 -12
19 -35 10 -34 -12z"/>
<path d="M4493 3985 c-3 -9 -3 -19 1 -22 3 -4 6 2 6 11 0 12 5 16 16 12 8 -3
12 -2 9 4 -9 15 -25 12 -32 -5z"/>
<path d="M4641 3984 c0 -11 3 -14 6 -6 3 7 2 16 -1 19 -3 4 -6 -2 -5 -13z"/>
<path d="M4675 3924 c0 -27 13 -30 40 -11 17 13 16 15 -11 24 -27 9 -29 8 -29
-13z"/>
<path d="M4744 3830 c0 -52 1 -74 3 -47 2 26 2 68 0 95 -2 26 -3 4 -3 -48z"/>
<path d="M4804 3830 c0 -52 1 -74 3 -47 2 26 2 68 0 95 -2 26 -3 4 -3 -48z"/>
<path d="M3380 3807 c0 -14 4 -28 8 -31 9 -5 8 41 -1 51 -4 3 -7 -5 -7 -20z"/>
<path d="M3300 3800 c0 -11 2 -20 4 -20 2 0 6 9 9 20 3 11 1 20 -4 20 -5 0 -9
-9 -9 -20z"/>
<path d="M3334 3806 c-8 -20 3 -36 24 -35 14 0 13 2 -3 9 -18 8 -18 9 -2 9 10
1 17 6 15 13 -7 19 -27 21 -34 4z"/>
<path d="M3414 3795 c1 -11 9 -21 19 -23 13 -3 17 3 16 25 -1 23 -2 24 -6 6
-5 -27 -20 -30 -26 -5 -3 13 -4 12 -3 -3z"/>
<path d="M3470 3800 c0 -11 2 -20 4 -20 2 0 6 9 9 20 3 11 1 20 -4 20 -5 0 -9
-9 -9 -20z"/>
<path d="M3501 3798 c1 -17 3 -18 6 -5 6 24 21 21 26 -5 5 -20 5 -20 4 2 -1
15 -9 26 -19 28 -13 3 -18 -3 -17 -20z"/>
<path d="M3552 3800 c0 -14 2 -19 5 -12 2 6 2 18 0 25 -3 6 -5 1 -5 -13z"/>
<path d="M3592 3800 c0 -14 2 -19 5 -12 2 6 2 18 0 25 -3 6 -5 1 -5 -13z"/>
<path d="M3228 3757 c-36 -14 -35 -23 3 -36 27 -9 30 -9 19 4 -10 12 -10 18 0
30 7 8 11 15 9 14 -2 -1 -16 -6 -31 -12z"/>
<path d="M3273 3634 c-3 -8 1 -23 10 -31 13 -13 19 -14 31 -3 9 7 16 17 16 23
0 6 -6 3 -13 -8 -17 -22 -41 -11 -34 16 6 23 -1 25 -10 3z"/>
<path d="M3832 3624 c3 -25 8 -29 38 -31 27 -1 31 0 15 7 -18 8 -18 9 -2 9 20
1 19 22 -2 29 -7 2 -15 -5 -18 -17 -3 -12 -10 -21 -15 -21 -6 0 -8 9 -5 20 3
11 1 23 -5 26 -6 4 -8 -5 -6 -22z"/>
<path d="M3925 3636 c-21 -15 -14 -46 10 -46 10 0 15 10 15 30 0 34 0 34 -25
16z m15 -21 c0 -8 -4 -15 -10 -15 -5 0 -10 7 -10 15 0 8 5 15 10 15 6 0 10 -7
10 -15z"/>
<path d="M4310 3621 c0 -17 2 -31 4 -31 8 0 13 51 5 56 -5 3 -9 -9 -9 -25z"/>
<path d="M4392 3620 c0 -19 2 -27 5 -17 2 9 2 25 0 35 -3 9 -5 1 -5 -18z"/>
<path d="M3374 3625 c-3 -8 -3 -19 1 -25 8 -13 35 -13 35 0 0 5 -7 7 -15 4
-10 -4 -15 0 -15 11 0 11 5 15 15 11 8 -3 15 -1 15 4 0 16 -30 12 -36 -5z"/>
<path d="M3424 3626 c-8 -20 3 -36 24 -35 14 0 13 2 -3 9 -18 8 -18 9 -2 9 10
1 17 6 15 13 -7 19 -27 21 -34 4z"/>
<path d="M3480 3629 c0 -5 5 -7 10 -4 6 3 10 8 10 11 0 2 -4 4 -10 4 -5 0 -10
-5 -10 -11z"/>
<path d="M3534 3625 c-7 -17 3 -35 19 -34 9 0 9 2 0 6 -7 2 -13 11 -13 18 0 7
6 16 13 18 9 4 9 6 -1 6 -7 1 -15 -6 -18 -14z"/>
<path d="M3574 3625 c-3 -8 -3 -19 1 -25 8 -13 35 -13 35 0 0 5 -7 7 -15 4
-10 -4 -15 0 -15 11 0 11 5 15 16 11 8 -3 12 -2 9 4 -9 15 -25 12 -31 -5z"/>
<path d="M3636 3632 c-3 -5 1 -9 9 -9 8 0 12 4 9 9 -3 4 -7 8 -9 8 -2 0 -6 -4
-9 -8z"/>
<path d="M3678 3615 c2 -14 6 -25 8 -25 2 0 4 11 4 25 0 14 -4 25 -9 25 -4 0
-6 -11 -3 -25z"/>
<path d="M3715 3630 c-3 -6 1 -7 9 -4 18 7 21 14 7 14 -6 0 -13 -4 -16 -10z"/>
<path d="M3784 3626 c-8 -20 3 -36 24 -35 14 0 13 2 -3 9 -18 8 -18 9 -2 9 10
1 17 6 15 13 -7 19 -27 21 -34 4z"/>
<path d="M3990 3625 c0 -8 6 -15 13 -15 8 0 7 -4 -3 -10 -13 -8 -12 -10 3 -10
9 0 17 7 17 15 0 8 -6 15 -12 15 -9 0 -8 4 2 10 13 8 12 10 -2 10 -10 0 -18
-7 -18 -15z"/>
<path d="M4034 3615 c1 -11 9 -21 19 -23 13 -3 17 3 16 25 -1 23 -2 24 -6 6
-5 -27 -20 -30 -26 -5 -3 13 -4 12 -3 -3z"/>
<path d="M4084 3625 c-8 -19 4 -35 24 -34 15 1 15 2 0 6 -21 5 -24 29 -5 36 9
4 9 6 -1 6 -7 1 -15 -6 -18 -14z"/>
<path d="M4134 3625 c-8 -19 4 -35 24 -34 15 1 15 2 0 6 -21 5 -24 29 -5 36 9
4 9 6 -1 6 -7 1 -15 -6 -18 -14z"/>
<path d="M4187 3633 c-14 -13 -7 -43 11 -43 14 0 15 2 2 10 -13 9 -13 10 0 10
12 0 13 2 1 9 -11 7 -11 9 0 14 8 3 9 6 3 6 -6 1 -14 -2 -17 -6z"/>
<path d="M4238 3633 c7 -3 16 -2 19 1 4 3 -2 6 -13 5 -11 0 -14 -3 -6 -6z"/>
<path d="M4275 3631 c-3 -5 0 -13 6 -17 8 -4 7 -9 -2 -15 -11 -7 -10 -9 4 -9
9 0 17 7 17 15 0 8 -6 15 -12 15 -9 0 -8 4 2 10 9 6 10 10 3 10 -6 0 -14 -4
-18 -9z"/>
<path d="M4370 3620 c0 -22 -16 -27 -23 -7 -2 7 -3 6 -3 -3 1 -8 9 -16 19 -18
12 -3 17 3 17 22 0 14 -2 26 -5 26 -3 0 -5 -9 -5 -20z"/>
<path d="M4438 3614 c6 -12 10 -23 9 -25 -1 -2 4 2 11 10 6 8 12 20 11 25 0 6
-3 5 -6 -2 -4 -10 -8 -10 -21 0 -13 11 -14 10 -4 -8z"/>
<path d="M3740 3611 c0 -8 -7 -11 -15 -7 -8 3 -15 1 -15 -4 0 -6 6 -10 14 -10
17 0 31 18 22 27 -3 4 -6 1 -6 -6z"/>
<path d="M4239 3612 c9 -7 10 -11 2 -15 -7 -4 -8 -5 0 -3 15 2 13 20 -3 24
-10 3 -10 2 1 -6z"/>
<path d="M6514 3572 c3 -6 -2 -13 -11 -15 -17 -4 -17 -5 0 -6 10 0 16 -5 12
-11 -3 -5 7 -5 25 2 33 11 30 21 -9 33 -15 5 -21 4 -17 -3z"/>
<path d="M6580 3552 c0 -5 13 -7 30 -4 l29 4 4 -93 3 -94 2 98 2 97 -35 0
c-19 0 -35 -4 -35 -8z"/>
<path d="M6581 3384 c0 -11 3 -14 6 -6 3 7 2 16 -1 19 -3 4 -6 -2 -5 -13z"/>
<path d="M3242 2480 c0 -19 2 -27 5 -17 2 9 2 25 0 35 -3 9 -5 1 -5 -18z"/>
<path d="M3487 2495 c3 -8 9 -12 14 -9 12 7 11 11 -5 17 -10 4 -13 1 -9 -8z"/>
<path d="M3222 2475 c0 -16 2 -22 5 -12 2 9 2 23 0 30 -3 6 -5 -1 -5 -18z"/>
<path d="M3320 2476 c0 -31 6 -34 13 -6 3 11 1 23 -4 26 -5 3 -9 -6 -9 -20z"/>
<path d="M3174 2475 c-7 -16 3 -35 17 -35 6 0 7 5 4 10 -3 6 -1 10 4 10 6 0
11 7 11 15 0 19 -29 20 -36 0z"/>
<path d="M3276 2482 c6 -4 14 -14 17 -22 4 -10 6 -8 6 8 1 15 -5 22 -16 22
-11 0 -14 -3 -7 -8z"/>
<path d="M3352 2470 c0 -14 2 -19 5 -12 2 6 2 18 0 25 -3 6 -5 1 -5 -13z"/>
<path d="M3370 2480 c0 -6 5 -8 11 -4 6 3 16 0 21 -7 8 -12 9 -11 5 1 -4 18
-37 27 -37 10z"/>
<path d="M3421 2468 c1 -17 3 -18 6 -5 2 9 8 17 13 17 5 0 11 -8 14 -17 4 -14
4 -14 3 2 -3 30 -37 33 -36 3z"/>
<path d="M5500 2425 c10 -12 10 -18 0 -30 -11 -14 -10 -14 15 -5 47 18 49 22
15 36 -41 18 -45 17 -30 -1z"/>
<path d="M5572 2385 c0 -16 2 -22 5 -12 2 9 2 23 0 30 -3 6 -5 -1 -5 -18z"/>
<path d="M5570 2106 c0 -9 -7 -12 -17 -10 -14 4 -18 -1 -18 -19 0 -22 3 -23
26 -15 21 7 25 14 21 33 -5 27 -12 33 -12 11z"/>
<path d="M3334 1955 c-7 -17 3 -35 19 -34 9 0 9 2 0 6 -7 2 -13 11 -13 18 0 7
6 16 13 18 9 4 9 6 -1 6 -7 1 -15 -6 -18 -14z"/>
<path d="M3390 1963 c13 -6 13 -33 -1 -33 -5 0 -7 5 -4 10 3 6 1 10 -5 10 -7
0 -10 -6 -7 -12 2 -7 10 -13 18 -13 17 0 19 37 1 41 -7 1 -8 0 -2 -3z"/>
<path d="M3426 1961 c-4 -5 3 -7 14 -4 23 6 26 13 6 13 -8 0 -17 -4 -20 -9z"/>
<path d="M3474 1959 c-3 -6 -1 -16 5 -22 9 -9 11 -8 6 5 -4 11 0 18 12 21 15
4 16 5 1 6 -9 0 -20 -4 -24 -10z"/>
<path d="M3524 1959 c-10 -16 9 -30 26 -19 12 8 11 10 -5 11 l-20 0 20 9 c16
7 17 9 3 9 -9 1 -20 -4 -24 -10z"/>
<path d="M3255 1910 c-11 -5 -40 -10 -65 -11 l-45 -2 55 -7 c30 -4 64 -10 74
-15 14 -6 17 -5 12 3 -5 9 273 13 1156 15 l1163 2 -1163 3 c-772 1 -1161 5
-1157 12 7 12 -2 12 -30 0z"/>
<path d="M3560 1789 c0 -5 5 -7 10 -4 6 3 10 8 10 11 0 2 -4 4 -10 4 -5 0 -10
-5 -10 -11z"/>
<path d="M3594 1777 c1 -16 -4 -22 -18 -20 -12 1 -15 -2 -8 -9 15 -15 42 -2
42 21 0 11 -4 22 -8 25 -5 3 -8 -5 -8 -17z"/>
<path d="M3665 1786 c-21 -15 -14 -46 10 -46 10 0 15 10 15 30 0 34 0 34 -25
16z m15 -21 c0 -8 -4 -15 -10 -15 -5 0 -10 7 -10 15 0 8 5 15 10 15 6 0 10 -7
10 -15z"/>
<path d="M3915 1786 c-21 -15 -14 -46 10 -46 10 0 15 10 15 30 0 34 0 34 -25
16z m15 -21 c0 -8 -4 -15 -10 -15 -5 0 -10 7 -10 15 0 8 5 15 10 15 6 0 10 -7
10 -15z"/>
<path d="M4042 1770 c0 -19 2 -27 5 -17 2 9 2 25 0 35 -3 9 -5 1 -5 -18z"/>
<path d="M4090 1796 c0 -2 7 -9 15 -16 13 -11 14 -10 9 4 -5 14 -24 23 -24 12z"/>
<path d="M4462 1770 c0 -19 2 -27 5 -17 2 9 2 25 0 35 -3 9 -5 1 -5 -18z"/>
<path d="M4482 1780 c0 -14 2 -19 5 -12 2 6 2 18 0 25 -3 6 -5 1 -5 -13z"/>
<path d="M4565 1786 c-21 -15 -14 -46 10 -46 10 0 15 10 15 30 0 34 0 34 -25
16z m15 -21 c0 -8 -4 -15 -10 -15 -5 0 -10 7 -10 15 0 8 5 15 10 15 6 0 10 -7
10 -15z"/>
<path d="M3320 1765 c0 -20 4 -26 18 -23 9 2 17 12 17 23 0 11 -8 21 -17 23
-14 3 -18 -3 -18 -23z m30 0 c0 -8 -4 -15 -10 -15 -5 0 -10 7 -10 15 0 8 5 15
10 15 6 0 10 -7 10 -15z"/>
<path d="M3374 1775 c-3 -8 -3 -19 1 -25 8 -13 35 -13 35 0 0 5 -7 7 -15 4
-10 -4 -15 0 -15 11 0 11 5 15 15 11 8 -3 15 -1 15 4 0 16 -30 12 -36 -5z"/>
<path d="M3440 1783 c13 -6 13 -33 -1 -33 -5 0 -7 5 -3 12 4 7 3 8 -5 4 -14
-9 -5 -26 15 -26 19 0 15 42 -4 46 -7 1 -8 0 -2 -3z"/>
<path d="M3478 1783 c7 -3 16 -2 19 1 4 3 -2 6 -13 5 -11 0 -14 -3 -6 -6z"/>
<path d="M3518 1783 c7 -3 16 -2 19 1 4 3 -2 6 -13 5 -11 0 -14 -3 -6 -6z"/>
<path d="M3620 1765 c0 -14 2 -25 4 -25 2 0 6 11 8 25 3 14 1 25 -3 25 -5 0
-9 -11 -9 -25z"/>
<path d="M3718 1783 c7 -3 16 -2 19 1 4 3 -2 6 -13 5 -11 0 -14 -3 -6 -6z"/>
<path d="M3760 1779 c0 -5 5 -7 10 -4 6 3 10 8 10 11 0 2 -4 4 -10 4 -5 0 -10
-5 -10 -11z"/>
<path d="M3792 1765 c0 -16 2 -22 5 -12 2 9 2 23 0 30 -3 6 -5 -1 -5 -18z"/>
<path d="M3823 1774 c-8 -21 13 -42 28 -27 13 13 5 43 -11 43 -6 0 -13 -7 -17
-16z m27 -9 c0 -8 -4 -15 -10 -15 -5 0 -10 7 -10 15 0 8 5 15 10 15 6 0 10 -7
10 -15z"/>
<path d="M3870 1765 c0 -14 2 -25 4 -25 2 0 6 11 8 25 3 14 1 25 -3 25 -5 0
-9 -11 -9 -25z"/>
<path d="M3964 1775 c-7 -17 3 -35 19 -35 8 0 8 3 -1 9 -11 7 -10 9 3 15 9 3
13 10 10 16 -9 15 -25 12 -31 -5z"/>
<path d="M4010 1775 c0 -8 2 -15 4 -15 2 0 6 7 10 15 3 8 1 15 -4 15 -6 0 -10
-7 -10 -15z"/>
<path d="M4214 1775 c-8 -19 4 -35 24 -34 15 1 15 2 0 6 -10 2 -18 11 -18 18
0 7 8 16 18 18 16 4 16 5 -1 6 -10 0 -20 -6 -23 -14z"/>
<path d="M4268 1783 c6 -2 12 -12 12 -21 0 -15 -2 -15 -10 -2 -8 13 -10 12
-10 -2 0 -19 25 -25 34 -9 10 15 -5 41 -23 40 -10 0 -11 -2 -3 -6z"/>
<path d="M4314 1775 c-4 -9 -4 -19 0 -22 3 -4 6 1 6 10 0 25 18 21 23 -5 5
-21 5 -21 4 1 -2 29 -24 40 -33 16z"/>
<path d="M4365 1780 c-3 -6 1 -7 9 -4 18 7 21 14 7 14 -6 0 -13 -4 -16 -10z"/>
<path d="M4414 1776 c-8 -20 3 -36 24 -35 14 0 13 2 -3 9 -18 8 -18 9 -2 9 10
1 17 6 15 13 -7 19 -27 21 -34 4z"/>
<path d="M4504 1776 c-8 -20 3 -36 24 -35 14 0 13 2 -3 9 -18 8 -18 9 -2 9 10
1 17 6 15 13 -7 19 -27 21 -34 4z"/>
<path d="M4652 1770 c0 -14 2 -19 5 -12 2 6 2 18 0 25 -3 6 -5 1 -5 -13z"/>
<path d="M3300 1766 c0 -12 -5 -16 -15 -12 -8 3 -15 1 -15 -4 0 -6 7 -10 15
-10 17 0 32 27 21 37 -3 4 -6 -2 -6 -11z"/>
<path d="M3518 1763 c7 -3 16 -2 19 1 4 3 -2 6 -13 5 -11 0 -14 -3 -6 -6z"/>
<path d="M3718 1763 c7 -3 16 -2 19 1 4 3 -2 6 -13 5 -11 0 -14 -3 -6 -6z"/>
<path d="M4085 1750 c-16 -7 -17 -9 -3 -9 9 -1 20 4 23 9 7 11 7 11 -20 0z"/>
<path d="M4367 1749 c7 -7 15 -10 18 -7 3 3 -2 9 -12 12 -14 6 -15 5 -6 -5z"/>
<path d="M3518 1743 c7 -3 16 -2 19 1 4 3 -2 6 -13 5 -11 0 -14 -3 -6 -6z"/>
<path d="M3718 1743 c7 -3 16 -2 19 1 4 3 -2 6 -13 5 -11 0 -14 -3 -6 -6z"/>
<path d="M4674 1710 c1 -25 3 -26 29 -18 34 13 34 21 -1 34 -28 11 -29 10 -28
-16z"/>
<path d="M4740 1617 l-5 -97 38 0 37 0 -2 98 -2 97 -3 -92 c-4 -91 -4 -93 -28
-93 -24 0 -24 2 -27 93 l-3 92 -5 -98z"/>
<path d="M3414 1590 c1 -20 7 -25 34 -27 28 -2 32 0 31 20 -1 17 -2 18 -6 5
-2 -10 -8 -18 -13 -18 -5 0 -11 8 -13 18 -4 16 -5 16 -6 0 -2 -26 -19 -22 -24
5 -3 19 -4 19 -3 -3z"/>
<path d="M3558 1583 c5 -21 7 -23 10 -9 2 10 0 22 -6 28 -6 6 -7 0 -4 -19z"/>
<path d="M3622 1585 c0 -16 2 -22 5 -12 2 9 2 23 0 30 -3 6 -5 -1 -5 -18z"/>
<path d="M3332 1580 c0 -14 2 -19 5 -12 2 6 2 18 0 25 -3 6 -5 1 -5 -13z"/>
<path d="M3362 1580 c2 -8 12 -16 23 -17 20 -3 20 -3 0 6 -17 8 -18 10 -2 10
24 1 21 17 -3 17 -13 0 -20 -6 -18 -16z"/>
<path d="M3502 1580 c0 -14 2 -19 5 -12 2 6 2 18 0 25 -3 6 -5 1 -5 -13z"/>
<path d="M3532 1580 c0 -14 2 -19 5 -12 2 6 2 18 0 25 -3 6 -5 1 -5 -13z"/>
<path d="M3581 1584 c0 -11 3 -14 6 -6 3 7 2 16 -1 19 -3 4 -6 -2 -5 -13z"/>
<path d="M3241 1536 c-21 -12 -22 -13 -5 -18 11 -3 26 -9 35 -12 10 -5 16 -2
16 8 0 8 -5 12 -11 9 -6 -4 -5 1 3 10 11 14 11 17 0 17 -8 -1 -25 -7 -38 -14z"/>
<path d="M3306 1425 c-8 -23 4 -45 24 -45 24 0 33 15 25 40 -7 23 -40 27 -49
5z m42 -18 c2 -10 -3 -17 -12 -17 -18 0 -29 16 -21 31 9 14 29 6 33 -14z"/>
<path d="M3930 1415 c0 -27 -16 -34 -23 -10 -4 11 -4 10 -3 -2 1 -10 9 -19 19
-21 13 -3 17 3 17 27 0 17 -2 31 -5 31 -3 0 -5 -11 -5 -25z"/>
<path d="M4302 1410 c0 -19 2 -27 5 -17 2 9 2 25 0 35 -3 9 -5 1 -5 -18z"/>
<path d="M4402 1410 c0 -19 2 -27 5 -17 2 9 2 25 0 35 -3 9 -5 1 -5 -18z"/>
<path d="M3560 1406 c0 -8 4 -17 9 -20 5 -4 7 3 4 14 -6 23 -13 26 -13 6z"/>
<path d="M3630 1406 c0 -8 -6 -17 -12 -19 -8 -3 -6 -6 5 -6 11 -1 17 6 17 19
0 11 -2 20 -5 20 -3 0 -5 -6 -5 -14z"/>
<path d="M3710 1406 c0 -8 4 -17 9 -20 5 -4 7 3 4 14 -6 23 -13 26 -13 6z"/>
<path d="M3850 1406 c0 -8 4 -17 9 -20 5 -4 7 3 4 14 -6 23 -13 26 -13 6z"/>
<path d="M4024 1400 c1 -8 9 -16 19 -18 12 -3 17 3 16 20 -1 17 -3 18 -6 6 -5
-21 -20 -24 -26 -5 -2 7 -3 6 -3 -3z"/>
<path d="M4073 1406 c1 -11 9 -21 17 -23 10 -3 11 -2 4 4 -6 4 -14 15 -17 23
-5 11 -6 9 -4 -4z"/>
<path d="M4123 1406 c1 -11 9 -21 17 -23 10 -3 11 -2 4 4 -6 4 -14 15 -17 23
-5 11 -6 9 -4 -4z"/>
<path d="M4164 1409 c-3 -6 -2 -15 3 -20 5 -5 9 -1 9 11 0 23 -2 24 -12 9z"/>
<path d="M4242 1399 c-10 -16 -10 -19 4 -19 8 0 12 5 9 10 -3 6 -2 10 4 10 5
0 12 -6 14 -12 4 -8 6 -9 6 -2 1 6 -5 16 -12 22 -10 8 -16 6 -25 -9z"/>
<path d="M4360 1406 c0 -8 -8 -17 -17 -19 -14 -4 -12 -5 5 -6 16 -1 22 5 22
19 0 11 -2 20 -5 20 -3 0 -5 -6 -5 -14z"/>
<path d="M4381 1394 c0 -11 3 -14 6 -6 3 7 2 16 -1 19 -3 4 -6 -2 -5 -13z"/>
<path d="M3990 1390 c-13 -8 -12 -10 3 -10 9 0 17 5 17 10 0 12 -1 12 -20 0z"/>
<path d="M4427 1379 c-4 -16 -3 -18 9 -8 16 13 19 29 5 29 -5 0 -11 -9 -14
-21z"/>
<path d="M3418 1383 c7 -3 16 -2 19 1 4 3 -2 6 -13 5 -11 0 -14 -3 -6 -6z"/>
<path d="M3768 1383 c7 -3 16 -2 19 1 4 3 -2 6 -13 5 -11 0 -14 -3 -6 -6z"/>
<path d="M6515 1360 c4 -7 -551 -11 -1647 -13 l-1653 -2 1653 -3 c1099 -1
1651 -5 1647 -12 -8 -13 5 -12 33 3 l23 13 -26 12 c-32 15 -38 15 -30 2z"/>
<path d="M6608 1343 l32 -4 0 -91 0 -90 -30 4 c-16 3 -30 1 -30 -4 0 -4 16 -8
35 -8 l35 0 0 100 0 100 -37 -2 c-37 -1 -37 -1 -5 -5z"/>
<path d="M6581 1304 c0 -11 3 -14 6 -6 3 7 2 16 -1 19 -3 4 -6 -2 -5 -13z"/>
<path d="M5535 884 c0 -27 13 -30 40 -11 17 13 16 15 -11 24 -27 9 -29 8 -29
-13z"/>
<path d="M3381 758 c1 -24 3 -27 6 -10 2 12 8 22 13 22 5 0 11 -10 13 -22 l4
-23 2 22 c0 13 -7 27 -19 33 -18 10 -20 8 -19 -22z"/>
<path d="M3182 760 c0 -14 2 -19 5 -12 2 6 2 18 0 25 -3 6 -5 1 -5 -13z"/>
<path d="M3211 753 c1 -23 2 -24 6 -5 2 12 8 22 13 22 5 0 11 -10 13 -22 5
-20 5 -20 4 2 -1 15 -9 26 -19 28 -14 3 -18 -3 -17 -25z"/>
<path d="M3263 764 c-8 -21 13 -42 28 -27 13 13 5 43 -11 43 -6 0 -13 -7 -17
-16z m27 -9 c0 -8 -4 -15 -10 -15 -5 0 -10 7 -10 15 0 8 5 15 10 15 6 0 10 -7
10 -15z"/>
<path d="M3348 773 c7 -3 16 -2 19 1 4 3 -2 6 -13 5 -11 0 -14 -3 -6 -6z"/>
<path d="M3448 773 c15 -6 16 -29 2 -36 -6 -3 -5 -4 2 -3 7 1 14 12 16 24 3
16 -2 22 -15 21 -10 0 -13 -3 -5 -6z"/>
<path d="M3481 753 c1 -23 2 -24 6 -5 2 12 8 22 13 22 5 0 11 -10 13 -22 5
-20 5 -20 4 2 -1 15 -9 26 -19 28 -14 3 -18 -3 -17 -25z"/>
<path d="M3553 773 c20 -5 17 -30 -3 -25 -11 3 -11 0 0 -12 7 -9 15 -16 18
-16 3 0 2 3 -1 7 -4 3 -2 12 4 19 14 17 3 34 -19 33 -15 -1 -15 -2 1 -6z"/>
<path d="M3592 758 c2 -12 10 -23 18 -25 12 -4 12 -3 2 5 -11 7 -11 10 3 16
19 7 11 26 -11 26 -10 0 -14 -8 -12 -22z"/>
<path d="M3647 751 c-4 -17 -3 -21 5 -13 5 5 8 16 6 23 -3 8 -7 3 -11 -10z"/>
<path d="M3340 740 c0 -6 7 -10 15 -10 8 0 15 2 15 4 0 2 -7 6 -15 10 -8 3
-15 1 -15 -4z"/>
<path d="M3151 694 c0 -11 3 -14 6 -6 3 7 2 16 -1 19 -3 4 -6 -2 -5 -13z"/>
<path d="M2632 2975 c0 -16 2 -22 5 -12 2 9 2 23 0 30 -3 6 -5 -1 -5 -18z"/>
<path d="M2380 2975 c0 -8 2 -15 4 -15 2 0 6 7 10 15 3 8 1 15 -4 15 -6 0 -10
-7 -10 -15z"/>
<path d="M2414 2979 c-3 -6 -2 -15 3 -20 5 -5 9 -1 9 11 0 23 -2 24 -12 9z"/>
<path d="M2550 2979 c0 -5 5 -7 10 -4 6 3 10 8 10 11 0 2 -4 4 -10 4 -5 0 -10
-5 -10 -11z"/>
<path d="M2581 2973 c0 -10 3 -13 6 -5 7 17 21 15 27 -5 4 -14 4 -14 3 2 -3
26 -37 34 -36 8z"/>
<path d="M2301 2928 c-36 -10 -33 -17 13 -37 26 -11 28 -10 16 3 -10 13 -10
19 0 31 7 8 11 15 9 14 -2 0 -19 -5 -38 -11z"/>
<path d="M2165 2610 c3 -5 -7 -11 -22 -13 l-28 -4 28 -2 c16 0 25 -5 22 -11
-9 -15 18 -12 40 3 17 13 16 15 -14 25 -17 6 -29 7 -26 2z"/>
<path d="M2797 2503 c-4 -3 -7 -18 -6 -32 0 -16 3 -20 6 -11 3 8 11 18 17 22
7 5 6 8 -4 8 -13 0 -13 1 0 10 8 5 10 10 4 10 -6 0 -14 -3 -17 -7z"/>
<path d="M2400 2480 c0 -5 7 -7 15 -4 8 4 15 8 15 10 0 2 -7 4 -15 4 -8 0 -15
-4 -15 -10z"/>
<path d="M2453 2475 c-3 -9 -3 -19 1 -22 3 -4 6 1 6 10 0 10 5 17 11 17 7 0 9
-9 6 -21 -4 -16 -3 -19 5 -11 12 12 4 42 -12 42 -6 0 -13 -7 -17 -15z"/>
<path d="M2501 2485 c-1 -16 13 -30 31 -31 15 -1 16 2 7 19 -8 14 -13 16 -19
7 -6 -10 -9 -9 -13 1 -3 8 -6 10 -6 4z"/>
<path d="M2683 2475 c-3 -9 -3 -19 1 -22 3 -4 6 2 6 11 0 12 5 16 15 12 8 -3
15 -1 15 4 0 16 -30 11 -37 -5z"/>
<path d="M2738 2483 c6 -2 18 -2 25 0 6 3 1 5 -13 5 -14 0 -19 -2 -12 -5z"/>
<path d="M2841 2468 c1 -17 3 -18 6 -5 2 9 8 17 13 17 5 0 11 -8 13 -17 4 -17
5 -17 6 0 0 9 5 17 10 17 5 0 12 -8 14 -17 4 -17 5 -17 6 0 1 21 18 23 24 2 4
-11 4 -10 3 2 -1 14 -12 19 -49 21 -44 3 -47 1 -46 -20z"/>
<path d="M2983 2475 c-3 -9 -3 -19 1 -22 3 -4 6 1 6 10 0 8 6 18 13 20 9 4 9
6 -1 6 -7 1 -15 -6 -19 -14z"/>
<path d="M3036 2483 c6 -4 14 -15 17 -23 5 -11 6 -9 4 4 -1 11 -9 21 -17 23
-10 3 -11 2 -4 -4z"/>
<path d="M3071 2468 c1 -17 2 -19 6 -5 2 9 8 17 13 17 5 0 11 -8 13 -17 4 -14
5 -12 6 5 1 16 -5 22 -19 22 -14 0 -20 -6 -19 -22z"/>
<path d="M2350 2476 c0 -2 9 -6 20 -9 11 -3 18 -1 14 4 -5 9 -34 13 -34 5z"/>
<path d="M3020 2461 c0 -6 4 -12 8 -15 5 -3 9 1 9 9 0 8 -4 15 -9 15 -4 0 -8
-4 -8 -9z"/>
<path d="M280 2260 c0 -35 17 -41 23 -7 l4 22 2 -22 c0 -14 7 -23 17 -23 13 0
14 3 5 14 -9 11 -9 15 1 19 18 6 6 17 -26 23 -23 4 -26 1 -26 -26z"/>
<path d="M630 2260 c0 -16 3 -30 8 -30 4 0 7 14 7 30 0 17 -3 30 -7 30 -5 0
-8 -13 -8 -30z"/>
<path d="M661 2268 c-1 -22 4 -28 19 -28 15 0 20 6 19 28 -2 23 -2 24 -6 5 -2
-13 -8 -23 -13 -23 -5 0 -11 10 -13 23 -4 19 -4 18 -6 -5z"/>
<path d="M1007 2283 c-11 -10 -8 -43 3 -43 6 0 10 8 11 18 0 14 2 14 9 -3 8
-18 9 -17 9 8 1 25 -16 36 -32 20z"/>
<path d="M1205 2260 c0 -16 3 -30 8 -30 4 0 7 14 7 30 0 17 -3 30 -7 30 -5 0
-8 -13 -8 -30z"/>
<path d="M238 2272 c11 -7 10 -10 -3 -16 -21 -8 -10 -26 16 -26 28 0 22 44 -6
48 -15 2 -16 1 -7 -6z"/>
<path d="M493 2243 c-18 -18 -29 -33 -25 -33 10 0 67 59 61 63 -2 2 -18 -12
-36 -30z"/>
<path d="M717 2274 c-10 -10 4 -34 20 -34 12 0 13 3 4 13 -6 8 -8 17 -4 20 3
4 2 7 -4 7 -5 0 -12 -3 -16 -6z"/>
<path d="M764 2271 c-10 -10 -3 -31 11 -31 8 0 15 6 15 13 0 9 2 9 8 0 6 -9
11 -8 18 5 10 15 7 17 -18 17 -16 0 -32 -2 -34 -4z"/>
<path d="M867 2266 c-8 -20 2 -26 40 -26 22 0 33 5 33 14 0 23 -22 31 -35 13
-7 -10 -18 -17 -25 -17 -10 0 -10 3 0 15 7 9 8 15 2 15 -5 0 -12 -6 -15 -14z
m63 -6 c0 -5 -5 -10 -11 -10 -5 0 -7 5 -4 10 3 6 8 10 11 10 2 0 4 -4 4 -10z"/>
<path d="M950 2259 c0 -24 20 -25 21 -1 0 15 2 14 10 -3 8 -19 9 -19 6 -1 -3
26 -37 30 -37 5z"/>
<path d="M1050 2258 c0 -10 4 -18 9 -18 5 0 11 8 13 18 3 11 0 19 -8 19 -8 0
-14 -9 -14 -19z"/>
<path d="M1090 2257 c0 -18 2 -19 10 -7 9 13 11 13 20 0 8 -13 10 -12 11 5 l0
20 9 -20 c8 -20 9 -20 9 1 1 17 -5 21 -29 22 -24 1 -30 -3 -30 -21z"/>
<path d="M1160 2262 c0 -10 7 -19 15 -19 8 0 15 4 15 9 0 4 -5 8 -11 8 -5 0
-7 5 -4 10 3 6 1 10 -4 10 -6 0 -11 -8 -11 -18z"/>
<path d="M702 2140 c0 -19 2 -27 5 -17 2 9 2 25 0 35 -3 9 -5 1 -5 -18z"/>
<path d="M1087 2163 c-4 -3 -7 -18 -6 -32 0 -23 1 -24 8 -6 l8 20 5 -20 c5
-18 6 -18 7 3 0 12 -5 22 -11 22 -9 0 -8 4 2 10 8 5 10 10 4 10 -6 0 -14 -3
-17 -7z"/>
<path d="M601 2155 c-1 -6 8 -18 19 -28 17 -14 20 -14 20 -2 0 8 -6 15 -14 15
-8 0 -17 6 -19 13 -3 6 -6 7 -6 2z"/>
<path d="M820 2136 c0 -31 6 -34 13 -6 3 11 1 23 -4 26 -5 3 -9 -6 -9 -20z"/>
<path d="M653 2135 c-3 -9 -3 -19 1 -22 3 -4 6 2 6 11 0 12 5 16 15 12 8 -3
15 -1 15 4 0 16 -30 11 -37 -5z"/>
<path d="M730 2146 c0 -2 9 -6 20 -9 11 -3 18 -1 14 4 -5 9 -34 13 -34 5z"/>
<path d="M788 2143 c7 -3 16 -2 19 1 4 3 -2 6 -13 5 -11 0 -14 -3 -6 -6z"/>
<path d="M974 2135 c-4 -9 -4 -19 0 -22 3 -4 6 1 6 10 0 21 17 22 23 2 4 -12
5 -11 3 1 -2 23 -24 30 -32 9z"/>
<path d="M1021 2128 c1 -17 2 -19 6 -5 2 9 8 17 13 17 5 0 11 -8 13 -17 4 -14
5 -12 6 5 1 16 -5 22 -19 22 -14 0 -20 -6 -19 -22z"/>
<path d="M1130 2130 c0 -11 2 -20 4 -20 2 0 6 9 9 20 3 11 1 20 -4 20 -5 0 -9
-9 -9 -20z"/>
<path d="M1161 2128 c1 -17 3 -18 6 -5 2 9 8 17 13 17 5 0 11 -8 13 -17 4 -17
5 -17 6 0 1 21 18 23 24 2 4 -11 4 -10 3 2 -1 13 -11 19 -34 21 -28 3 -32 0
-31 -20z"/>
<path d="M160 1060 c0 -39 15 -39 16 0 1 17 -3 30 -7 30 -5 0 -9 -13 -9 -30z"/>
<path d="M622 1060 c0 -19 2 -27 5 -17 2 9 2 25 0 35 -3 9 -5 1 -5 -18z"/>
<path d="M692 1060 c0 -19 2 -27 5 -17 2 9 2 25 0 35 -3 9 -5 1 -5 -18z"/>
<path d="M190 1066 c0 -18 27 -39 40 -31 5 3 10 16 10 28 -1 21 -1 21 -15 -3
-14 -25 -14 -25 -15 -2 0 12 -4 22 -10 22 -5 0 -10 -6 -10 -14z"/>
<path d="M250 1060 c0 -5 6 -10 13 -10 8 0 7 -4 -3 -10 -13 -8 -12 -10 3 -10
10 0 17 8 17 20 0 11 -7 20 -15 20 -8 0 -15 -4 -15 -10z"/>
<path d="M295 1060 c-7 -12 2 -30 16 -30 6 0 7 5 4 10 -3 6 -1 10 4 10 6 0 11
5 11 10 0 6 -6 10 -14 10 -8 0 -18 -4 -21 -10z"/>
<path d="M340 1050 c0 -11 2 -20 4 -20 2 0 6 9 9 20 3 11 1 20 -4 20 -5 0 -9
-9 -9 -20z"/>
<path d="M397 1063 c-11 -11 -8 -21 9 -27 14 -5 15 -4 5 8 -9 11 -9 15 1 19 7
3 8 6 2 6 -6 1 -14 -2 -17 -6z"/>
<path d="M440 1049 c0 -24 23 -21 28 4 2 10 -3 17 -12 17 -10 0 -16 -9 -16
-21z"/>
<path d="M480 1054 c0 -13 3 -14 14 -5 11 10 15 8 19 -6 4 -14 5 -13 6 5 1 16
-5 22 -19 22 -12 0 -20 -7 -20 -16z"/>
<path d="M532 1053 c2 -9 10 -19 18 -21 13 -4 13 -3 2 10 -10 13 -10 17 0 21
8 3 6 6 -5 6 -12 1 -17 -5 -15 -16z"/>
<path d="M577 1064 c-10 -10 5 -34 22 -34 14 0 14 2 1 10 -10 6 -11 10 -2 10
6 0 12 5 12 10 0 11 -23 14 -33 4z"/>
<path d="M653 1050 c1 -20 8 -25 20 -14 7 8 -3 34 -13 34 -5 0 -8 -9 -7 -20z"/>
<path d="M702 950 c0 -19 2 -27 5 -17 2 9 2 25 0 35 -3 9 -5 1 -5 -18z"/>
<path d="M1172 950 c0 -19 2 -27 5 -17 2 9 2 25 0 35 -3 9 -5 1 -5 -18z"/>
<path d="M601 965 c-1 -6 8 -18 19 -28 17 -14 20 -14 20 -2 0 8 -6 15 -14 15
-8 0 -17 6 -19 13 -3 6 -6 7 -6 2z"/>
<path d="M820 946 c0 -31 6 -34 13 -6 3 11 1 23 -4 26 -5 3 -9 -6 -9 -20z"/>
<path d="M653 945 c-3 -9 -3 -19 1 -22 3 -4 6 2 6 11 0 12 5 16 16 12 8 -3 12
-2 9 4 -9 15 -25 12 -32 -5z"/>
<path d="M730 956 c0 -2 9 -6 20 -9 11 -3 18 -1 14 4 -5 9 -34 13 -34 5z"/>
<path d="M780 950 c0 -5 7 -7 15 -4 8 4 15 8 15 10 0 2 -7 4 -15 4 -8 0 -15
-4 -15 -10z"/>
<path d="M986 953 c6 -4 14 -15 17 -23 5 -11 6 -9 4 4 -1 11 -9 21 -17 23 -10
3 -11 2 -4 -4z"/>
<path d="M1021 938 c1 -17 2 -19 6 -5 2 9 8 17 13 17 5 0 11 -8 13 -17 4 -14
5 -12 6 5 1 16 -5 22 -19 22 -14 0 -20 -6 -19 -22z"/>
<path d="M1083 945 c-3 -9 -3 -19 1 -22 3 -4 6 1 6 10 0 8 6 18 13 20 9 4 9 6
-1 6 -7 1 -15 -6 -19 -14z"/>
<path d="M1127 953 c-11 -10 -8 -35 3 -28 6 4 7 11 4 17 -5 7 -1 9 9 5 10 -3
17 -2 17 3 0 11 -23 13 -33 3z"/>
<path d="M2382 765 c0 -16 2 -24 5 -17 3 9 9 10 17 3 9 -8 12 -6 11 9 -1 11
-5 23 -10 27 -4 5 -5 2 -1 -4 4 -7 3 -13 -3 -13 -5 0 -12 6 -14 13 -3 6 -5 -1
-5 -18z"/>
<path d="M2482 763 c2 -14 9 -28 16 -29 7 -1 8 0 2 3 -14 7 -13 30 2 35 7 3 5
7 -6 11 -14 6 -17 2 -14 -20z"/>
<path d="M2677 783 c-4 -8 9 -53 16 -53 5 0 1 50 -5 56 -3 3 -8 2 -11 -3z"/>
<path d="M2885 776 c-21 -15 -14 -46 10 -46 10 0 15 10 15 30 0 34 0 34 -25
16z m15 -21 c0 -8 -4 -15 -10 -15 -5 0 -10 7 -10 15 0 8 5 15 10 15 6 0 10 -7
10 -15z"/>
<path d="M2434 765 c-8 -19 3 -35 24 -34 14 0 13 2 -3 9 -17 7 -17 9 -2 9 21
1 23 31 2 31 -9 0 -18 -7 -21 -15z"/>
<path d="M2571 753 c2 -24 2 -25 6 -5 5 26 20 29 26 5 4 -17 5 -17 6 0 0 9 5
17 10 17 5 0 12 -8 14 -17 4 -14 5 -12 6 5 1 19 -4 22 -34 22 -32 0 -35 -2
-34 -27z"/>
<path d="M2713 764 c-8 -21 13 -42 28 -27 13 13 5 43 -11 43 -6 0 -13 -7 -17
-16z m27 -9 c0 -8 -4 -15 -10 -15 -5 0 -10 7 -10 15 0 8 5 15 10 15 6 0 10 -7
10 -15z"/>
<path d="M2785 769 c-4 -6 -4 -13 -1 -16 3 -4 6 -1 6 6 0 8 7 11 15 7 8 -3 15
-1 15 4 0 13 -27 13 -35 -1z"/>
<path d="M2840 769 c0 -5 5 -7 10 -4 6 3 10 8 10 11 0 2 -4 4 -10 4 -5 0 -10
-5 -10 -11z"/>
<path d="M2924 766 c-8 -20 3 -36 24 -35 14 0 13 2 -3 9 -18 8 -18 9 -2 9 10
1 17 6 15 13 -7 19 -27 21 -34 4z"/>
<path d="M2971 753 c1 -22 2 -23 6 -8 3 11 10 23 17 27 7 5 5 8 -6 8 -13 0
-18 -7 -17 -27z"/>
<path d="M3080 771 c0 -6 5 -13 11 -17 8 -4 7 -9 -2 -15 -11 -7 -10 -9 4 -9 9
0 17 7 17 15 0 8 -6 15 -12 15 -9 0 -8 4 2 10 13 8 12 10 -2 10 -10 0 -18 -4
-18 -9z"/>
<path d="M2530 740 c-9 -6 -10 -10 -3 -10 6 0 15 5 18 10 8 12 4 12 -15 0z"/>
<path d="M2800 740 c-9 -6 -10 -10 -3 -10 6 0 15 5 18 10 8 12 4 12 -15 0z"/>
<path d="M2308 717 c-36 -14 -35 -23 3 -36 27 -9 30 -9 19 4 -10 12 -10 18 0
30 7 8 11 15 9 14 -2 -1 -16 -6 -31 -12z"/>
<path d="M1632 6120 c0 -19 2 -27 5 -17 2 9 2 25 0 35 -3 9 -5 1 -5 -18z"/>
<path d="M1732 6110 c0 -14 2 -19 5 -12 2 6 2 18 0 25 -3 6 -5 1 -5 -13z"/>
<path d="M1846 6105 c-9 -26 -7 -32 5 -12 6 10 9 21 6 23 -2 3 -7 -2 -11 -11z"/>
<path d="M2232 5688 l3 -373 2 367 3 367 33 4 c31 4 31 4 -5 5 l-38 2 2 -372z"/>
<path d="M2500 5935 c0 -27 -16 -34 -23 -10 -4 11 -4 10 -3 -2 1 -10 9 -19 19
-21 13 -3 17 3 17 27 0 17 -2 31 -5 31 -3 0 -5 -11 -5 -25z"/>
<path d="M2524 5945 c-13 -32 23 -63 40 -36 4 5 -3 7 -14 4 -16 -4 -20 0 -20
17 0 17 4 21 20 17 11 -3 18 -1 14 4 -8 14 -34 11 -40 -6z"/>
<path d="M2650 5935 c0 -27 -16 -34 -23 -10 -4 11 -4 10 -3 -2 1 -10 9 -19 19
-21 13 -3 17 3 17 27 0 17 -2 31 -5 31 -3 0 -5 -11 -5 -25z"/>
<path d="M2374 5920 c2 -21 30 -19 32 3 1 12 1 13 -3 2 -5 -18 -20 -20 -26 -2
-2 7 -3 6 -3 -3z"/>
<path d="M2580 5920 c0 -11 2 -20 4 -20 2 0 6 9 9 20 3 11 1 20 -4 20 -5 0 -9
-9 -9 -20z"/>
<path d="M2670 5926 c0 -8 4 -17 9 -20 5 -4 7 3 4 14 -6 23 -13 26 -13 6z"/>
<path d="M2720 5920 c0 -11 2 -20 4 -20 2 0 6 9 9 20 3 11 1 20 -4 20 -5 0 -9
-9 -9 -20z"/>
<path d="M2750 5930 c0 -5 5 -10 11 -10 5 0 7 5 4 10 -3 6 -8 10 -11 10 -2 0
-4 -4 -4 -10z"/>
<path d="M2841 5924 c0 -11 3 -14 6 -6 3 7 2 16 -1 19 -3 4 -6 -2 -5 -13z"/>
<path d="M2446 5918 c5 -8 2 -9 -9 -5 -10 3 -17 2 -17 -3 0 -6 9 -10 20 -10
11 0 20 7 20 15 0 8 -5 15 -11 15 -5 0 -7 -5 -3 -12z"/>
<path d="M4674 5869 c-1 -28 -1 -28 27 -13 36 18 36 20 2 32 -26 9 -28 7 -29
-19z"/>
<path d="M4744 5780 c0 -52 1 -74 3 -47 2 26 2 68 0 95 -2 26 -3 4 -3 -48z"/>
<path d="M4804 5780 c0 -52 1 -74 3 -47 2 26 2 68 0 95 -2 26 -3 4 -3 -48z"/>
<path d="M3662 5750 c0 -19 2 -27 5 -17 2 9 2 25 0 35 -3 9 -5 1 -5 -18z"/>
<path d="M3352 5745 c0 -16 2 -22 5 -12 2 9 2 23 0 30 -3 6 -5 -1 -5 -18z"/>
<path d="M3271 5744 c0 -11 3 -14 6 -6 3 7 2 16 -1 19 -3 4 -6 -2 -5 -13z"/>
<path d="M3302 5740 c0 -14 2 -19 5 -12 2 6 2 18 0 25 -3 6 -5 1 -5 -13z"/>
<path d="M3382 5740 c0 -14 2 -19 5 -12 2 6 2 18 0 25 -3 6 -5 1 -5 -13z"/>
<path d="M3412 5740 c0 -14 2 -19 5 -12 2 6 2 18 0 25 -3 6 -5 1 -5 -13z"/>
<path d="M3472 5740 c0 -14 2 -19 5 -12 2 6 2 18 0 25 -3 6 -5 1 -5 -13z"/>
<path d="M3497 5739 c4 -13 8 -18 11 -10 2 7 -1 18 -6 23 -8 8 -9 4 -5 -13z"/>
<path d="M3544 5749 c-3 -6 -2 -15 3 -20 5 -5 9 -1 9 11 0 23 -2 24 -12 9z"/>
<path d="M3572 5740 c0 -14 2 -19 5 -12 2 6 2 18 0 25 -3 6 -5 1 -5 -13z"/>
<path d="M3590 5740 c0 -11 2 -20 4 -20 2 0 6 9 9 20 3 11 1 20 -4 20 -5 0 -9
-9 -9 -20z"/>
<path d="M3632 5740 c0 -14 2 -19 5 -12 2 6 2 18 0 25 -3 6 -5 1 -5 -13z"/>
<path d="M3683 5745 c-3 -9 -3 -18 -1 -21 3 -3 8 4 11 16 6 23 -1 27 -10 5z"/>
<path d="M3730 5740 c0 -11 2 -20 4 -20 2 0 6 9 9 20 3 11 1 20 -4 20 -5 0 -9
-9 -9 -20z"/>
<path d="M3760 5749 c0 -5 5 -7 10 -4 6 3 10 8 10 11 0 2 -4 4 -10 4 -5 0 -10
-5 -10 -11z"/>
<path d="M3198 5707 c-36 -14 -35 -23 3 -36 27 -9 30 -9 19 4 -10 12 -10 18 0
30 7 8 11 15 9 14 -2 -1 -16 -6 -31 -12z"/>
<path d="M2391 5568 c1 -18 3 -25 6 -15 2 9 9 17 14 17 5 0 9 -8 10 -17 0 -12
2 -14 6 -5 3 8 -4 22 -16 33 l-21 20 1 -33z"/>
<path d="M2562 5565 c0 -16 2 -22 5 -12 2 9 2 23 0 30 -3 6 -5 -1 -5 -18z"/>
<path d="M2602 5565 c0 -16 2 -22 5 -12 2 9 2 23 0 30 -3 6 -5 -1 -5 -18z"/>
<path d="M2671 5581 c-7 -5 -22 -6 -32 -4 -15 4 -19 0 -18 -18 1 -17 3 -19 6
-6 2 9 8 17 13 17 5 0 11 -8 13 -17 4 -17 5 -17 6 0 0 9 5 17 10 17 5 0 12 -8
14 -17 3 -11 5 -7 6 10 1 30 1 30 -18 18z"/>
<path d="M2345 5570 c-3 -6 1 -7 9 -4 18 7 21 14 7 14 -6 0 -13 -4 -16 -10z"/>
<path d="M2441 5558 c1 -17 3 -18 6 -5 2 9 8 17 13 17 5 0 11 -8 14 -17 4 -14
4 -14 3 2 -3 30 -37 33 -36 3z"/>
<path d="M2490 5575 c0 -5 5 -17 10 -25 5 -8 10 -10 10 -5 0 6 -5 17 -10 25
-5 8 -10 11 -10 5z"/>
<path d="M2510 5575 c0 -18 19 -40 26 -32 4 4 0 15 -9 24 -9 10 -17 13 -17 8z"/>
<path d="M2713 5565 c-3 -9 -3 -19 1 -22 3 -4 6 2 6 11 0 12 5 16 16 12 8 -3
12 -2 9 4 -9 15 -25 12 -32 -5z"/>
<path d="M2760 5560 c0 -11 2 -20 4 -20 2 0 6 9 9 20 3 11 1 20 -4 20 -5 0 -9
-9 -9 -20z"/>
<path d="M2792 5568 c2 -6 11 -13 19 -16 12 -3 12 -2 0 6 -11 8 -11 10 0 15
10 4 8 6 -4 6 -10 1 -17 -4 -15 -11z"/>
<path d="M3054 5521 c5 -8 -102 -12 -376 -14 l-383 -2 383 -3 c242 -1 381 -6
377 -12 -3 -5 7 -5 25 2 33 11 30 21 -9 33 -16 5 -21 4 -17 -4z"/>
<path d="M3122 5413 l2 -98 3 92 4 92 32 4 c31 4 31 4 -5 5 l-38 2 2 -97z"/>
<path d="M2768 5408 c-3 -7 -17 -12 -31 -10 -22 1 -27 -2 -26 -21 1 -17 2 -18
6 -4 6 23 19 22 26 -3 3 -11 12 -20 21 -20 12 0 16 10 16 35 0 36 -5 45 -12
23z m2 -33 c0 -8 -4 -15 -10 -15 -5 0 -10 7 -10 15 0 8 5 15 10 15 6 0 10 -7
10 -15z"/>
<path d="M2987 5413 c-4 -3 -7 -18 -6 -32 0 -24 1 -24 9 -6 6 13 9 15 9 5 1
-12 3 -13 10 -1 5 7 14 10 20 7 6 -4 11 -2 11 4 0 6 -10 10 -22 8 -14 -2 -22
2 -20 10 2 13 -1 15 -11 5z"/>
<path d="M2380 5385 c0 -8 2 -15 4 -15 2 0 6 7 10 15 3 8 1 15 -4 15 -6 0 -10
-7 -10 -15z"/>
<path d="M2417 5393 c-14 -13 -7 -23 16 -22 21 0 21 1 2 8 l-20 8 20 5 c13 4
15 6 4 7 -9 0 -19 -2 -22 -6z"/>
<path d="M2468 5393 c7 -3 16 -2 19 1 4 3 -2 6 -13 5 -11 0 -14 -3 -6 -6z"/>
<path d="M2550 5389 c0 -5 5 -7 10 -4 6 3 10 8 10 11 0 2 -4 4 -10 4 -5 0 -10
-5 -10 -11z"/>
<path d="M2581 5378 c1 -17 3 -18 6 -5 2 9 8 17 13 17 5 0 11 -8 14 -17 4 -14
4 -14 3 2 -3 30 -37 33 -36 3z"/>
<path d="M2663 5384 c-8 -21 13 -42 28 -27 13 13 5 43 -11 43 -6 0 -13 -7 -17
-16z m27 -9 c0 -8 -4 -15 -10 -15 -5 0 -10 7 -10 15 0 8 5 15 10 15 6 0 10 -7
10 -15z"/>
<path d="M2794 5386 c-8 -20 3 -36 24 -35 14 0 13 2 -3 9 -18 8 -18 9 -2 9 10
1 17 6 15 13 -7 19 -27 21 -34 4z"/>
<path d="M2841 5378 c0 -16 2 -18 6 -8 3 8 11 18 17 22 7 5 4 8 -6 8 -12 0
-18 -7 -17 -22z"/>
<path d="M2921 5378 c1 -17 2 -19 6 -5 2 9 8 17 13 17 5 0 11 -8 13 -17 4 -14
5 -12 6 5 1 16 -5 22 -19 22 -14 0 -20 -6 -19 -22z"/>
<path d="M2901 5374 c0 -11 3 -14 6 -6 3 7 2 16 -1 19 -3 4 -6 -2 -5 -13z"/>
<path d="M2500 5358 c0 -4 4 -8 9 -8 6 0 12 4 15 8 3 5 -1 9 -9 9 -8 0 -15 -4
-15 -9z"/>
<path d="M3020 5360 c-9 -6 -10 -10 -3 -10 6 0 15 5 18 10 8 12 4 12 -15 0z"/>
<path d="M2428 5353 c7 -3 16 -2 19 1 4 3 -2 6 -13 5 -11 0 -14 -3 -6 -6z"/>
<path d="M2308 5338 c-36 -13 -35 -24 3 -37 27 -9 30 -9 19 4 -10 12 -10 18 0
30 14 17 15 17 -22 3z"/>
<path d="M600 5220 c0 -6 7 -13 15 -16 20 -8 19 -21 -2 -27 -14 -4 -12 -5 5
-6 25 -1 31 26 7 35 -8 4 -12 10 -9 15 3 5 0 9 -5 9 -6 0 -11 -5 -11 -10z"/>
<path d="M702 5200 c0 -19 2 -27 5 -17 2 9 2 25 0 35 -3 9 -5 1 -5 -18z"/>
<path d="M822 5204 c2 -15 10 -29 18 -31 12 -4 13 -3 1 5 -8 6 -11 17 -8 26 3
8 1 18 -4 22 -7 4 -9 -4 -7 -22z"/>
<path d="M1105 5216 c-21 -15 -14 -46 10 -46 10 0 15 10 15 30 0 34 0 34 -25
16z m15 -21 c0 -8 -4 -15 -10 -15 -5 0 -10 7 -10 15 0 8 5 15 10 15 6 0 10 -7
10 -15z"/>
<path d="M654 5206 c-8 -20 3 -36 24 -35 14 0 13 2 -3 9 -18 8 -18 9 -2 9 10
1 17 6 15 13 -7 19 -27 21 -34 4z"/>
<path d="M737 5213 c-14 -13 -7 -43 11 -43 14 0 15 2 2 10 -13 9 -13 10 0 10
12 0 13 2 1 9 -11 7 -11 9 0 14 8 3 9 6 3 6 -6 1 -14 -2 -17 -6z"/>
<path d="M785 5210 c-3 -6 1 -7 9 -4 18 7 21 14 7 14 -6 0 -13 -4 -16 -10z"/>
<path d="M888 5213 c6 -2 12 -11 12 -18 0 -7 -6 -16 -12 -18 -8 -4 -7 -6 3 -6
9 -1 19 5 22 13 6 15 -11 36 -27 35 -6 0 -5 -3 2 -6z"/>
<path d="M934 5206 c-3 -8 -4 -21 -1 -28 3 -7 6 -3 6 10 1 12 5 22 10 22 5 0
12 -10 14 -22 5 -21 5 -21 4 1 -2 28 -24 40 -33 17z"/>
<path d="M1013 5204 c-8 -21 13 -42 28 -27 13 13 5 43 -11 43 -6 0 -13 -7 -17
-16z m27 -9 c0 -8 -4 -15 -10 -15 -5 0 -10 7 -10 15 0 8 5 15 10 15 6 0 10 -7
10 -15z"/>
<path d="M1064 5205 c-3 -8 -4 -20 -2 -27 3 -7 7 -1 10 15 6 29 1 36 -8 12z"/>
<path d="M1144 5206 c-8 -20 3 -36 24 -35 14 0 13 2 -3 9 -18 8 -18 9 -2 9 10
1 17 6 15 13 -7 19 -27 21 -34 4z"/>
<path d="M1190 5195 c0 -14 2 -25 4 -25 2 0 6 11 8 25 3 14 1 25 -3 25 -5 0
-9 -11 -9 -25z"/>
<path d="M787 5179 c7 -7 15 -10 18 -7 3 3 -2 9 -12 12 -14 6 -15 5 -6 -5z"/>
<path d="M2205 5150 c3 -5 2 -10 -3 -10 -5 0 -9 -7 -9 -15 0 -18 5 -18 36 -1
24 13 24 14 3 25 -26 14 -35 14 -27 1z"/>
<path d="M613 5133 c9 -2 25 -2 35 0 9 3 1 5 -18 5 -19 0 -27 -2 -17 -5z"/>
<path d="M738 5133 c12 -2 32 -2 45 0 12 2 2 4 -23 4 -25 0 -35 -2 -22 -4z"/>
<path d="M853 5133 c9 -2 23 -2 30 0 6 3 -1 5 -18 5 -16 0 -22 -2 -12 -5z"/>
<path d="M943 5133 c15 -2 39 -2 55 0 15 2 2 4 -28 4 -30 0 -43 -2 -27 -4z"/>
<path d="M1043 5133 c9 -2 23 -2 30 0 6 3 -1 5 -18 5 -16 0 -22 -2 -12 -5z"/>
<path d="M1138 5133 c12 -2 30 -2 40 0 9 3 -1 5 -23 4 -22 0 -30 -2 -17 -4z"/>
<path d="M1282 5133 c48 -2 129 -2 180 0 51 1 12 3 -87 3 -99 0 -141 -2 -93
-3z"/>
<path d="M1742 5133 c82 -2 214 -2 295 0 82 1 15 3 -147 3 -162 0 -229 -2
-148 -3z"/>
<path d="M201 458 c2 -30 2 -31 6 -5 3 16 11 27 20 27 11 0 14 -7 10 -26 -3
-16 -1 -22 5 -16 16 16 4 47 -20 50 -19 3 -22 -1 -21 -30z"/>
<path d="M590 460 c0 -29 1 -29 20 -13 11 10 20 23 20 30 0 7 -9 13 -20 13
-16 0 -20 -7 -20 -30z m30 10 c0 -5 -4 -10 -10 -10 -5 0 -10 5 -10 10 0 6 5
10 10 10 6 0 10 -4 10 -10z"/>
<path d="M270 465 c-11 -13 -11 -18 0 -28 7 -7 10 -7 7 -2 -3 6 -2 17 4 25 6
10 9 11 9 3 0 -7 7 -13 15 -13 8 0 15 5 15 12 0 6 -3 8 -7 5 -3 -4 -12 -2 -18
3 -9 7 -16 5 -25 -5z"/>
<path d="M420 465 c-10 -13 -11 -18 -1 -28 7 -7 12 -7 11 -2 -2 6 -2 17 -1 25
1 13 2 13 11 0 5 -8 12 -12 15 -9 3 4 -1 11 -8 18 -11 9 -17 8 -27 -4z"/>
<path d="M663 465 c0 -8 4 -15 9 -15 4 0 8 4 8 9 0 6 -4 12 -8 15 -5 3 -9 -1
-9 -9z"/>
<path d="M735 469 c-4 -6 -5 -12 -2 -15 2 -3 7 2 10 11 7 17 1 20 -8 4z"/>
<path d="M858 453 c5 -21 7 -23 10 -9 2 10 0 22 -6 28 -6 6 -7 0 -4 -19z"/>
<path d="M342 450 c0 -14 2 -19 5 -12 2 6 2 18 0 25 -3 6 -5 1 -5 -13z"/>
<path d="M370 452 c11 -22 31 -22 29 1 0 8 -2 8 -6 -1 -4 -10 -9 -9 -20 5 -13
17 -13 16 -3 -5z"/>
<path d="M470 450 c0 -11 2 -20 4 -20 2 0 6 9 9 20 3 11 1 20 -4 20 -5 0 -9
-9 -9 -20z"/>
<path d="M517 445 c8 -41 9 -41 22 -4 9 26 9 29 -3 20 -11 -9 -15 -9 -20 1 -3
7 -3 0 1 -17z"/>
<path d="M642 450 c0 -14 2 -19 5 -12 2 6 2 18 0 25 -3 6 -5 1 -5 -13z"/>
<path d="M701 454 c0 -11 3 -14 6 -6 3 7 2 16 -1 19 -3 4 -6 -2 -5 -13z"/>
<path d="M812 450 c0 -14 2 -19 5 -12 2 6 2 18 0 25 -3 6 -5 1 -5 -13z"/>
<path d="M832 450 c0 -14 2 -19 5 -12 2 6 2 18 0 25 -3 6 -5 1 -5 -13z"/>
<path d="M1300 435 c0 -18 -26 -20 -33 -2 -3 6 -5 -4 -5 -23 0 -19 2 -27 5
-17 2 9 11 17 18 17 7 0 16 -8 18 -17 3 -10 5 -1 6 20 0 20 -1 37 -4 37 -3 0
-5 -7 -5 -15z"/>
<path d="M1554 438 c-4 -6 0 -16 9 -23 22 -16 21 -22 0 -28 -14 -4 -12 -5 5
-6 16 -1 22 5 22 19 0 11 -7 20 -15 20 -21 0 -19 18 3 23 15 4 15 5 0 6 -9 0
-20 -4 -24 -11z"/>
<path d="M2044 423 c-7 -25 -8 -25 -22 -7 -14 18 -14 18 -8 1 3 -10 6 -23 6
-28 0 -21 20 -7 27 19 l7 27 7 -30 c7 -28 7 -28 6 8 -1 43 -14 49 -23 10z"/>
<path d="M2250 429 c-10 -17 -9 -24 3 -37 23 -22 49 -8 45 25 -4 35 -33 42
-48 12z m40 -14 c0 -15 -6 -25 -14 -25 -16 0 -25 19 -18 38 8 22 32 13 32 -13z"/>
<path d="M2380 441 c0 -5 -8 -12 -17 -14 -17 -4 -17 -5 0 -6 9 0 17 -8 17 -16
0 -18 -12 -19 -29 -2 -10 10 -11 9 -6 -5 4 -10 16 -18 26 -18 15 0 19 7 19 35
0 19 -2 35 -5 35 -3 0 -5 -4 -5 -9z"/>
<path d="M3041 432 c-7 -14 -7 -24 3 -37 19 -27 48 -12 44 22 -4 33 -32 42
-47 15z m39 -17 c0 -15 -6 -25 -14 -25 -16 0 -25 19 -18 38 8 22 32 13 32 -13z"/>
<path d="M4577 444 c-4 -4 -7 -20 -7 -36 0 -30 25 -39 47 -17 8 8 13 8 17 0
14 -22 36 -12 35 17 -2 23 -2 24 -6 5 -2 -13 -9 -23 -14 -23 -6 0 -7 6 -3 13
4 6 4 9 -1 5 -5 -5 -13 2 -19 14 -12 23 -36 34 -49 22z m38 -29 c0 -11 -8 -21
-17 -23 -14 -3 -18 3 -18 23 0 20 4 26 18 23 9 -2 17 -12 17 -23z"/>
<path d="M4781 418 c-1 -32 2 -38 19 -38 11 0 20 4 20 10 0 5 -7 7 -15 4 -10
-4 -15 0 -15 11 0 11 5 15 15 11 8 -3 15 -1 15 4 0 6 -6 10 -14 10 -8 0 -17 6
-19 13 -3 6 -6 -5 -6 -25z"/>
<path d="M5145 439 c-4 -6 -4 -13 -1 -16 3 -4 6 -1 6 6 0 8 8 11 20 8 11 -3
18 -1 14 4 -7 12 -31 11 -39 -2z"/>
<path d="M5317 443 c-10 -10 -8 -23 4 -23 5 0 8 4 5 9 -4 5 0 12 6 14 7 3 8 6
2 6 -6 1 -14 -2 -17 -6z"/>
<path d="M5761 420 c-6 -18 -9 -35 -7 -37 2 -3 7 6 11 18 l7 22 13 -24 13 -24
7 28 c4 15 5 31 1 34 -3 4 -6 -2 -6 -13 -1 -16 -2 -16 -14 5 l-13 24 -12 -33z"/>
<path d="M5916 430 c-20 -21 -15 -50 9 -50 11 0 15 10 15 35 0 40 1 40 -24 15z
m14 -25 c0 -8 -4 -15 -10 -15 -5 0 -10 7 -10 15 0 8 5 15 10 15 6 0 10 -7 10
-15z"/>
<path d="M6235 440 c-8 -14 3 -30 21 -30 20 0 18 -18 -3 -23 -16 -4 -16 -5 -1
-6 26 -2 33 20 12 36 -16 12 -17 15 -4 23 13 8 13 10 -2 10 -9 0 -20 -4 -23
-10z"/>
<path d="M6621 415 c1 -40 1 -40 10 -10 5 18 5 33 -1 39 -7 7 -10 -4 -9 -29z"/>
<path d="M6666 442 c-3 -5 -1 -22 4 -38 8 -29 8 -29 9 9 1 36 -3 45 -13 29z"/>
<path d="M3170 415 c0 -14 -5 -25 -11 -25 -7 0 -9 9 -6 21 4 16 3 19 -5 11
-14 -14 -3 -42 17 -42 10 0 15 10 15 30 0 17 -2 30 -5 30 -3 0 -5 -11 -5 -25z"/>
<path d="M4692 414 c2 -15 10 -29 18 -31 12 -4 13 -3 1 5 -8 6 -11 17 -8 26 3
8 1 18 -4 22 -7 4 -9 -4 -7 -22z"/>
<path d="M5540 412 c0 -18 4 -32 8 -32 9 0 8 47 -1 57 -4 3 -7 -8 -7 -25z"/>
<path d="M5741 424 c0 -11 3 -14 6 -6 3 7 2 16 -1 19 -3 4 -6 -2 -5 -13z"/>
<path d="M1332 408 c2 -13 10 -23 18 -23 8 0 16 10 18 23 3 17 -2 22 -18 22
-16 0 -21 -5 -18 -22z m28 -3 c0 -8 -4 -15 -10 -15 -5 0 -10 7 -10 15 0 8 5
15 10 15 6 0 10 -7 10 -15z"/>
<path d="M1381 403 c2 -24 2 -25 6 -5 2 12 8 22 13 22 5 0 11 -10 13 -22 l4
-23 2 23 c0 12 5 22 10 22 5 0 12 -10 14 -22 4 -20 4 -19 6 5 1 25 -2 27 -34
27 -32 0 -35 -2 -34 -27z"/>
<path d="M1472 408 c2 -14 11 -24 23 -25 l20 -3 -20 9 c-17 8 -18 10 -2 10 25
1 21 31 -4 31 -15 0 -20 -5 -17 -22z"/>
<path d="M1660 410 c0 -11 2 -20 4 -20 2 0 6 9 9 20 3 11 1 20 -4 20 -5 0 -9
-9 -9 -20z"/>
<path d="M1690 406 c0 -20 5 -26 23 -25 21 0 21 1 2 9 -18 8 -18 9 -2 9 23 1
17 25 -6 29 -12 3 -17 -4 -17 -22z"/>
<path d="M1744 415 c-8 -19 3 -35 24 -34 14 0 15 2 2 7 -20 9 -24 32 -4 32 9
0 12 -5 8 -12 -4 -7 -3 -8 5 -4 6 4 9 12 6 17 -9 14 -35 11 -41 -6z"/>
<path d="M1801 403 c2 -24 2 -25 6 -5 2 12 8 22 13 22 5 0 11 -10 13 -22 4
-20 4 -19 6 5 1 21 -4 27 -19 27 -15 0 -20 -6 -19 -27z"/>
<path d="M2092 408 c2 -14 11 -24 23 -25 l20 -3 -20 9 c-17 8 -18 10 -2 10 25
1 21 31 -4 31 -15 0 -20 -5 -17 -22z"/>
<path d="M2147 412 c1 -8 3 -19 3 -25 1 -14 30 22 30 36 0 5 -6 4 -14 -2 -8
-7 -16 -8 -18 -4 -3 4 -3 2 -1 -5z"/>
<path d="M2192 418 c-14 -14 -16 -38 -3 -38 5 0 11 11 13 25 6 29 6 29 -10 13z"/>
<path d="M2319 428 c-4 -15 -6 -38 -3 -38 2 0 8 9 14 20 7 14 7 20 0 20 -5 0
-10 -1 -11 -2z"/>
<path d="M2404 415 c-8 -19 3 -35 24 -34 14 0 14 2 -2 8 -19 7 -19 8 3 14 13
3 20 10 16 16 -9 16 -35 13 -41 -4z"/>
<path d="M2460 405 c0 -14 2 -25 4 -25 2 0 6 11 8 25 3 14 1 25 -3 25 -5 0 -9
-11 -9 -25z"/>
<path d="M3110 410 c0 -11 2 -20 4 -20 2 0 6 9 9 20 3 11 1 20 -4 20 -5 0 -9
-9 -9 -20z"/>
<path d="M3202 408 c2 -14 11 -24 23 -25 l20 -3 -20 9 c-17 8 -18 10 -2 10 25
1 21 31 -4 31 -15 0 -20 -5 -17 -22z"/>
<path d="M3250 405 c0 -14 2 -25 4 -25 2 0 6 11 8 25 3 14 1 25 -3 25 -5 0 -9
-11 -9 -25z"/>
<path d="M4757 410 c6 -22 -12 -28 -20 -7 -3 7 -6 5 -6 -5 -1 -12 6 -18 19
-18 15 0 20 7 20 25 0 14 -4 25 -9 25 -5 0 -7 -9 -4 -20z"/>
<path d="M4890 420 c0 -6 8 -14 17 -17 15 -6 15 -7 -3 -14 -16 -6 -16 -8 -2
-8 23 -1 33 18 14 25 -9 3 -13 10 -10 15 3 5 0 9 -5 9 -6 0 -11 -5 -11 -10z"/>
<path d="M4936 421 c-11 -17 6 -41 28 -40 15 0 17 2 6 7 -17 8 -25 32 -11 32
5 0 12 -5 14 -10 3 -6 4 -5 3 2 -3 16 -32 23 -40 9z"/>
<path d="M5202 408 c2 -13 10 -23 18 -23 8 0 16 10 18 23 3 17 -2 22 -18 22
-16 0 -21 -5 -18 -22z m28 -3 c0 -8 -4 -15 -10 -15 -5 0 -10 7 -10 15 0 8 5
15 10 15 6 0 10 -7 10 -15z"/>
<path d="M5261 403 c1 -23 2 -24 6 -5 2 12 8 22 13 22 5 0 11 -10 13 -22 5
-20 5 -20 4 2 -1 15 -9 26 -19 28 -14 3 -18 -3 -17 -25z"/>
<path d="M5342 405 c0 -16 2 -22 5 -12 2 9 2 23 0 30 -3 6 -5 -1 -5 -18z"/>
<path d="M5370 405 c0 -14 2 -25 4 -25 2 0 6 11 8 25 3 14 1 25 -3 25 -5 0 -9
-11 -9 -25z"/>
<path d="M5401 403 c2 -24 2 -25 6 -5 2 12 8 22 13 22 5 0 11 -10 13 -22 l4
-23 2 23 c0 12 5 22 10 22 5 0 12 -10 14 -22 4 -20 4 -19 6 5 1 25 -2 27 -34
27 -32 0 -35 -2 -34 -27z"/>
<path d="M5517 410 c6 -22 -12 -28 -20 -7 -3 7 -6 5 -6 -5 -1 -12 6 -18 19
-18 21 0 29 33 11 44 -5 4 -7 -3 -4 -14z"/>
<path d="M5582 405 c0 -16 2 -22 5 -12 2 9 2 23 0 30 -3 6 -5 -1 -5 -18z"/>
<path d="M5602 408 c5 -34 38 -37 38 -4 0 20 -5 26 -21 26 -15 0 -20 -5 -17
-22z m28 -3 c0 -8 -4 -15 -10 -15 -5 0 -10 7 -10 15 0 8 5 15 10 15 6 0 10 -7
10 -15z"/>
<path d="M5651 403 c2 -24 2 -25 6 -5 2 12 8 22 13 22 5 0 11 -10 13 -22 4
-20 4 -19 6 5 1 21 -4 27 -19 27 -15 0 -20 -6 -19 -27z"/>
<path d="M5832 405 c0 -16 2 -22 5 -12 2 9 2 23 0 30 -3 6 -5 -1 -5 -18z"/>
<path d="M5851 403 c1 -23 2 -24 6 -5 2 12 8 22 13 22 5 0 11 -10 13 -22 5
-20 5 -20 4 2 -1 15 -9 26 -19 28 -14 3 -18 -3 -17 -25z"/>
<path d="M5960 405 c0 -20 4 -26 18 -23 9 2 17 12 17 23 0 11 -8 21 -17 23
-14 3 -18 -3 -18 -23z m30 0 c0 -8 -4 -15 -10 -15 -5 0 -10 7 -10 15 0 8 5 15
10 15 6 0 10 -7 10 -15z"/>
<path d="M6030 416 c-6 -9 -10 -21 -8 -28 3 -8 9 -4 17 10 15 28 9 39 -9 18z"/>
<path d="M6062 418 c-14 -14 -16 -42 -3 -34 7 5 23 46 17 46 -1 0 -7 -5 -14
-12z"/>
<path d="M6294 405 c1 -11 9 -21 19 -23 13 -3 17 3 16 25 -1 23 -2 24 -6 6 -5
-27 -20 -30 -26 -5 -3 13 -4 12 -3 -3z"/>
<path d="M6350 420 c0 -5 7 -7 15 -4 8 4 15 8 15 10 0 2 -7 4 -15 4 -8 0 -15
-4 -15 -10z"/>
<path d="M6400 420 c0 -5 7 -7 15 -4 8 4 15 8 15 10 0 2 -7 4 -15 4 -8 0 -15
-4 -15 -10z"/>
<path d="M6444 415 c-8 -19 3 -35 24 -34 14 0 13 2 -3 9 -17 7 -17 9 -2 9 21
1 23 31 2 31 -9 0 -18 -7 -21 -15z"/>
<path d="M6500 421 c0 -5 5 -13 11 -17 8 -4 7 -9 -2 -15 -11 -7 -10 -9 4 -9
21 0 22 16 2 36 -8 9 -15 11 -15 5z"/>
<path d="M6540 420 c0 -6 8 -14 17 -17 15 -6 15 -7 -3 -14 -16 -6 -16 -8 -2
-8 23 -1 33 18 13 25 -13 6 -14 8 -3 15 10 7 9 9 -4 9 -10 0 -18 -5 -18 -10z"/>
<path d="M6694 415 c-8 -19 3 -35 24 -34 14 0 14 2 -2 8 -19 7 -19 8 3 14 13
3 20 10 16 16 -9 16 -35 13 -41 -4z"/>
<path d="M6750 421 c0 -5 5 -13 11 -17 8 -4 7 -9 -2 -15 -11 -7 -10 -9 4 -9
21 0 22 16 2 36 -8 9 -15 11 -15 5z"/>
<path d="M6790 420 c0 -6 8 -14 17 -17 15 -6 15 -7 -3 -14 -16 -6 -16 -8 -2
-8 23 -1 33 18 13 25 -13 6 -14 8 -3 15 10 7 9 9 -4 9 -10 0 -18 -5 -18 -10z"/>
<path d="M6863 417 c4 -10 0 -20 -11 -26 -15 -9 -14 -10 6 -11 24 0 32 33 10
46 -8 5 -9 2 -5 -9z"/>
<path d="M6893 414 c-4 -11 1 -22 12 -30 13 -9 14 -14 5 -14 -7 0 -10 -3 -7
-6 11 -12 34 15 33 38 -1 28 -33 36 -43 12z m27 -9 c0 -8 -4 -15 -10 -15 -5 0
-10 7 -10 15 0 8 5 15 10 15 6 0 10 -7 10 -15z"/>
<path d="M6952 408 c2 -14 11 -24 23 -25 l20 -3 -20 9 c-17 8 -18 10 -2 10 10
1 17 8 16 19 0 10 -3 12 -6 5 -2 -7 -9 -13 -14 -13 -6 0 -7 5 -4 10 3 6 1 10
-5 10 -6 0 -10 -10 -8 -22z"/>
<path d="M6647 413 c-4 -3 -7 -11 -7 -17 0 -6 5 -5 12 2 6 6 9 14 7 17 -3 3
-9 2 -12 -2z"/>
<path d="M1606 396 c3 -9 13 -16 22 -16 8 0 13 1 11 3 -2 1 -12 9 -22 16 -15
12 -17 12 -11 -3z"/>
<path d="M2514 401 c4 -5 0 -12 -6 -14 -8 -3 -6 -6 5 -6 9 -1 17 6 17 14 0 8
-5 15 -11 15 -5 0 -8 -4 -5 -9z"/>
<path d="M4856 394 c-17 -12 -17 -14 -4 -14 9 0 20 5 23 11 11 17 2 18 -19 3z"/>
<path d="M5143 400 c2 -8 12 -16 23 -17 13 -2 15 -1 4 4 -8 3 -19 11 -23 17
-6 7 -7 6 -4 -4z"/>
<path d="M6350 390 c0 -6 7 -10 15 -10 8 0 15 2 15 4 0 2 -7 6 -15 10 -8 3
-15 1 -15 -4z"/>
<path d="M6400 390 c0 -6 7 -10 15 -10 8 0 15 2 15 4 0 2 -7 6 -15 10 -8 3
-15 1 -15 -4z"/>
</g>
</svg>
